G04 #@! TF.GenerationSoftware,KiCad,Pcbnew,5.1.4-e60b266~84~ubuntu19.04.1*
G04 #@! TF.CreationDate,2019-09-06T13:47:56+02:00*
G04 #@! TF.ProjectId,keyer,6b657965-722e-46b6-9963-61645f706362,rev?*
G04 #@! TF.SameCoordinates,Original*
G04 #@! TF.FileFunction,Copper,L2,Bot*
G04 #@! TF.FilePolarity,Positive*
%FSLAX46Y46*%
G04 Gerber Fmt 4.6, Leading zero omitted, Abs format (unit mm)*
G04 Created by KiCad (PCBNEW 5.1.4-e60b266~84~ubuntu19.04.1) date 2019-09-06 13:47:56*
%MOMM*%
%LPD*%
G04 APERTURE LIST*
%ADD10O,1.000000X1.000000*%
%ADD11R,1.000000X1.000000*%
%ADD12C,3.450000*%
%ADD13C,1.431000*%
%ADD14O,1.700000X1.700000*%
%ADD15R,1.700000X1.700000*%
%ADD16C,0.800000*%
%ADD17C,0.250000*%
%ADD18C,0.254000*%
G04 APERTURE END LIST*
D10*
X116380000Y-117000000D03*
X117650000Y-117000000D03*
X118920000Y-117000000D03*
X120190000Y-117000000D03*
X121460000Y-117000000D03*
X122730000Y-117000000D03*
D11*
X124000000Y-117000000D03*
D12*
X107000000Y-133500000D03*
X107000000Y-121500000D03*
D13*
X109000000Y-131000000D03*
X109000000Y-128500000D03*
X109000000Y-126500000D03*
X109000000Y-124000000D03*
D14*
X142000000Y-135540000D03*
D15*
X142000000Y-133000000D03*
X142000000Y-120000000D03*
D14*
X142000000Y-122540000D03*
D16*
X121000000Y-122000000D03*
X120675000Y-133325000D03*
X121000000Y-136000000D03*
X123600000Y-133310000D03*
X130270000Y-122270000D03*
X131850000Y-136850000D03*
X140000000Y-126000000D03*
X140000000Y-128000000D03*
X140000000Y-130000000D03*
X130000000Y-128000000D03*
X118260000Y-129740000D03*
D17*
X130000000Y-128000000D02*
X120000000Y-128000000D01*
X120000000Y-128000000D02*
X118260000Y-129740000D01*
D18*
G36*
X140768083Y-115731173D02*
G01*
X141511891Y-115934656D01*
X142207905Y-116266638D01*
X142834130Y-116716626D01*
X143370777Y-117270403D01*
X143800871Y-117910451D01*
X144110829Y-118616553D01*
X144292065Y-119371457D01*
X144340000Y-120024207D01*
X144340001Y-134970597D01*
X144268827Y-135768083D01*
X144065344Y-136511890D01*
X143733363Y-137207904D01*
X143283374Y-137834130D01*
X142729597Y-138370777D01*
X142089549Y-138800871D01*
X141383447Y-139110829D01*
X140628543Y-139292065D01*
X139975793Y-139340000D01*
X109029392Y-139340000D01*
X108231917Y-139268827D01*
X107488110Y-139065344D01*
X106792096Y-138733363D01*
X106165870Y-138283374D01*
X105629223Y-137729597D01*
X105199129Y-137089549D01*
X104889171Y-136383447D01*
X104707935Y-135628543D01*
X104660000Y-134975793D01*
X104660000Y-133832986D01*
X104730694Y-134188387D01*
X104908595Y-134617879D01*
X105166868Y-135004412D01*
X105495588Y-135333132D01*
X105882121Y-135591405D01*
X106311613Y-135769306D01*
X106767560Y-135860000D01*
X107232440Y-135860000D01*
X107688387Y-135769306D01*
X108117879Y-135591405D01*
X108194812Y-135540000D01*
X140507815Y-135540000D01*
X140536487Y-135831111D01*
X140621401Y-136111034D01*
X140759294Y-136369014D01*
X140944866Y-136595134D01*
X141170986Y-136780706D01*
X141428966Y-136918599D01*
X141708889Y-137003513D01*
X141927050Y-137025000D01*
X142072950Y-137025000D01*
X142291111Y-137003513D01*
X142571034Y-136918599D01*
X142829014Y-136780706D01*
X143055134Y-136595134D01*
X143240706Y-136369014D01*
X143378599Y-136111034D01*
X143463513Y-135831111D01*
X143492185Y-135540000D01*
X143463513Y-135248889D01*
X143378599Y-134968966D01*
X143240706Y-134710986D01*
X143055134Y-134484866D01*
X143025313Y-134460393D01*
X143094180Y-134439502D01*
X143204494Y-134380537D01*
X143301185Y-134301185D01*
X143380537Y-134204494D01*
X143439502Y-134094180D01*
X143475812Y-133974482D01*
X143488072Y-133850000D01*
X143488072Y-132150000D01*
X143475812Y-132025518D01*
X143439502Y-131905820D01*
X143380537Y-131795506D01*
X143301185Y-131698815D01*
X143204494Y-131619463D01*
X143094180Y-131560498D01*
X142974482Y-131524188D01*
X142850000Y-131511928D01*
X141150000Y-131511928D01*
X141025518Y-131524188D01*
X140905820Y-131560498D01*
X140795506Y-131619463D01*
X140698815Y-131698815D01*
X140619463Y-131795506D01*
X140560498Y-131905820D01*
X140524188Y-132025518D01*
X140511928Y-132150000D01*
X140511928Y-133850000D01*
X140524188Y-133974482D01*
X140560498Y-134094180D01*
X140619463Y-134204494D01*
X140698815Y-134301185D01*
X140795506Y-134380537D01*
X140905820Y-134439502D01*
X140974687Y-134460393D01*
X140944866Y-134484866D01*
X140759294Y-134710986D01*
X140621401Y-134968966D01*
X140536487Y-135248889D01*
X140507815Y-135540000D01*
X108194812Y-135540000D01*
X108504412Y-135333132D01*
X108833132Y-135004412D01*
X109091405Y-134617879D01*
X109269306Y-134188387D01*
X109360000Y-133732440D01*
X109360000Y-133267560D01*
X109269306Y-132811613D01*
X109091405Y-132382121D01*
X109073281Y-132354997D01*
X109073859Y-132355022D01*
X109336792Y-132314577D01*
X109586782Y-132223612D01*
X109691398Y-132167694D01*
X109752740Y-131932345D01*
X109000000Y-131179605D01*
X108985858Y-131193748D01*
X108806253Y-131014143D01*
X108820395Y-131000000D01*
X109179605Y-131000000D01*
X109932345Y-131752740D01*
X110167694Y-131691398D01*
X110280143Y-131450308D01*
X110343395Y-131191912D01*
X110355022Y-130926141D01*
X110314577Y-130663208D01*
X110223612Y-130413218D01*
X110167694Y-130308602D01*
X109932345Y-130247260D01*
X109179605Y-131000000D01*
X108820395Y-131000000D01*
X108806253Y-130985858D01*
X108985858Y-130806253D01*
X109000000Y-130820395D01*
X109752740Y-130067655D01*
X109691398Y-129832306D01*
X109513205Y-129749194D01*
X109639701Y-129696797D01*
X109727605Y-129638061D01*
X117225000Y-129638061D01*
X117225000Y-129841939D01*
X117264774Y-130041898D01*
X117342795Y-130230256D01*
X117456063Y-130399774D01*
X117600226Y-130543937D01*
X117769744Y-130657205D01*
X117958102Y-130735226D01*
X118158061Y-130775000D01*
X118361939Y-130775000D01*
X118561898Y-130735226D01*
X118750256Y-130657205D01*
X118919774Y-130543937D01*
X119063937Y-130399774D01*
X119177205Y-130230256D01*
X119255226Y-130041898D01*
X119295000Y-129841939D01*
X119295000Y-129779801D01*
X120314802Y-128760000D01*
X129296289Y-128760000D01*
X129340226Y-128803937D01*
X129509744Y-128917205D01*
X129698102Y-128995226D01*
X129898061Y-129035000D01*
X130101939Y-129035000D01*
X130301898Y-128995226D01*
X130490256Y-128917205D01*
X130659774Y-128803937D01*
X130803937Y-128659774D01*
X130917205Y-128490256D01*
X130995226Y-128301898D01*
X131035000Y-128101939D01*
X131035000Y-127898061D01*
X130995226Y-127698102D01*
X130917205Y-127509744D01*
X130803937Y-127340226D01*
X130659774Y-127196063D01*
X130490256Y-127082795D01*
X130301898Y-127004774D01*
X130101939Y-126965000D01*
X129898061Y-126965000D01*
X129698102Y-127004774D01*
X129509744Y-127082795D01*
X129340226Y-127196063D01*
X129296289Y-127240000D01*
X120037333Y-127240000D01*
X120000000Y-127236323D01*
X119962667Y-127240000D01*
X119851014Y-127250997D01*
X119707753Y-127294454D01*
X119575724Y-127365026D01*
X119459999Y-127459999D01*
X119436201Y-127488997D01*
X118220199Y-128705000D01*
X118158061Y-128705000D01*
X117958102Y-128744774D01*
X117769744Y-128822795D01*
X117600226Y-128936063D01*
X117456063Y-129080226D01*
X117342795Y-129249744D01*
X117264774Y-129438102D01*
X117225000Y-129638061D01*
X109727605Y-129638061D01*
X109860893Y-129549001D01*
X110049001Y-129360893D01*
X110196797Y-129139701D01*
X110298601Y-128893926D01*
X110350500Y-128633013D01*
X110350500Y-128366987D01*
X110298601Y-128106074D01*
X110196797Y-127860299D01*
X110049001Y-127639107D01*
X109909894Y-127500000D01*
X110049001Y-127360893D01*
X110196797Y-127139701D01*
X110298601Y-126893926D01*
X110350500Y-126633013D01*
X110350500Y-126366987D01*
X110298601Y-126106074D01*
X110196797Y-125860299D01*
X110049001Y-125639107D01*
X109860893Y-125450999D01*
X109639701Y-125303203D01*
X109511258Y-125250000D01*
X109639701Y-125196797D01*
X109860893Y-125049001D01*
X110049001Y-124860893D01*
X110196797Y-124639701D01*
X110298601Y-124393926D01*
X110350500Y-124133013D01*
X110350500Y-123866987D01*
X110298601Y-123606074D01*
X110196797Y-123360299D01*
X110049001Y-123139107D01*
X109860893Y-122950999D01*
X109639701Y-122803203D01*
X109393926Y-122701399D01*
X109133013Y-122649500D01*
X109062503Y-122649500D01*
X109119032Y-122540000D01*
X140507815Y-122540000D01*
X140536487Y-122831111D01*
X140621401Y-123111034D01*
X140759294Y-123369014D01*
X140944866Y-123595134D01*
X141170986Y-123780706D01*
X141428966Y-123918599D01*
X141708889Y-124003513D01*
X141927050Y-124025000D01*
X142072950Y-124025000D01*
X142291111Y-124003513D01*
X142571034Y-123918599D01*
X142829014Y-123780706D01*
X143055134Y-123595134D01*
X143240706Y-123369014D01*
X143378599Y-123111034D01*
X143463513Y-122831111D01*
X143492185Y-122540000D01*
X143463513Y-122248889D01*
X143378599Y-121968966D01*
X143240706Y-121710986D01*
X143055134Y-121484866D01*
X143025313Y-121460393D01*
X143094180Y-121439502D01*
X143204494Y-121380537D01*
X143301185Y-121301185D01*
X143380537Y-121204494D01*
X143439502Y-121094180D01*
X143475812Y-120974482D01*
X143488072Y-120850000D01*
X143488072Y-119150000D01*
X143475812Y-119025518D01*
X143439502Y-118905820D01*
X143380537Y-118795506D01*
X143301185Y-118698815D01*
X143204494Y-118619463D01*
X143094180Y-118560498D01*
X142974482Y-118524188D01*
X142850000Y-118511928D01*
X141150000Y-118511928D01*
X141025518Y-118524188D01*
X140905820Y-118560498D01*
X140795506Y-118619463D01*
X140698815Y-118698815D01*
X140619463Y-118795506D01*
X140560498Y-118905820D01*
X140524188Y-119025518D01*
X140511928Y-119150000D01*
X140511928Y-120850000D01*
X140524188Y-120974482D01*
X140560498Y-121094180D01*
X140619463Y-121204494D01*
X140698815Y-121301185D01*
X140795506Y-121380537D01*
X140905820Y-121439502D01*
X140974687Y-121460393D01*
X140944866Y-121484866D01*
X140759294Y-121710986D01*
X140621401Y-121968966D01*
X140536487Y-122248889D01*
X140507815Y-122540000D01*
X109119032Y-122540000D01*
X109203668Y-122376059D01*
X109332235Y-121929312D01*
X109371177Y-121466067D01*
X109318996Y-121004125D01*
X109177697Y-120561239D01*
X108990414Y-120210860D01*
X108651816Y-120027789D01*
X107179605Y-121500000D01*
X107193748Y-121514143D01*
X107014143Y-121693748D01*
X107000000Y-121679605D01*
X105527789Y-123151816D01*
X105710860Y-123490414D01*
X106123941Y-123703668D01*
X106570688Y-123832235D01*
X106960453Y-123865000D01*
X106863589Y-123865000D01*
X106596011Y-123918225D01*
X106343957Y-124022629D01*
X106117114Y-124174201D01*
X105924201Y-124367114D01*
X105772629Y-124593957D01*
X105668225Y-124846011D01*
X105615000Y-125113589D01*
X105615000Y-125386411D01*
X105668225Y-125653989D01*
X105772629Y-125906043D01*
X105924201Y-126132886D01*
X106117114Y-126325799D01*
X106343957Y-126477371D01*
X106596011Y-126581775D01*
X106863589Y-126635000D01*
X107136411Y-126635000D01*
X107403989Y-126581775D01*
X107649500Y-126480081D01*
X107649500Y-126633013D01*
X107701399Y-126893926D01*
X107803203Y-127139701D01*
X107950999Y-127360893D01*
X108090106Y-127500000D01*
X107950999Y-127639107D01*
X107803203Y-127860299D01*
X107701399Y-128106074D01*
X107649500Y-128366987D01*
X107649500Y-128519919D01*
X107403989Y-128418225D01*
X107136411Y-128365000D01*
X106863589Y-128365000D01*
X106596011Y-128418225D01*
X106343957Y-128522629D01*
X106117114Y-128674201D01*
X105924201Y-128867114D01*
X105772629Y-129093957D01*
X105668225Y-129346011D01*
X105615000Y-129613589D01*
X105615000Y-129886411D01*
X105668225Y-130153989D01*
X105772629Y-130406043D01*
X105924201Y-130632886D01*
X106117114Y-130825799D01*
X106343957Y-130977371D01*
X106596011Y-131081775D01*
X106863589Y-131135000D01*
X107136411Y-131135000D01*
X107403989Y-131081775D01*
X107649073Y-130980258D01*
X107644978Y-131073859D01*
X107668494Y-131226737D01*
X107232440Y-131140000D01*
X106767560Y-131140000D01*
X106311613Y-131230694D01*
X105882121Y-131408595D01*
X105495588Y-131666868D01*
X105166868Y-131995588D01*
X104908595Y-132382121D01*
X104730694Y-132811613D01*
X104660000Y-133167014D01*
X104660000Y-121809933D01*
X104681004Y-121995875D01*
X104822303Y-122438761D01*
X105009586Y-122789140D01*
X105348184Y-122972211D01*
X106820395Y-121500000D01*
X105348184Y-120027789D01*
X105009586Y-120210860D01*
X104796332Y-120623941D01*
X104667765Y-121070688D01*
X104660000Y-121163059D01*
X104660000Y-120029392D01*
X104676172Y-119848184D01*
X105527789Y-119848184D01*
X107000000Y-121320395D01*
X108472211Y-119848184D01*
X108289140Y-119509586D01*
X107876059Y-119296332D01*
X107429312Y-119167765D01*
X106966067Y-119128823D01*
X106504125Y-119181004D01*
X106061239Y-119322303D01*
X105710860Y-119509586D01*
X105527789Y-119848184D01*
X104676172Y-119848184D01*
X104731173Y-119231917D01*
X104934656Y-118488109D01*
X105266638Y-117792095D01*
X105716626Y-117165870D01*
X105887790Y-117000000D01*
X116509509Y-117000000D01*
X116531423Y-117222499D01*
X116596324Y-117436447D01*
X116701716Y-117633623D01*
X116843551Y-117806449D01*
X117016377Y-117948284D01*
X117213553Y-118053676D01*
X117427501Y-118118577D01*
X117594248Y-118135000D01*
X117705752Y-118135000D01*
X117872499Y-118118577D01*
X118086447Y-118053676D01*
X118283623Y-117948284D01*
X118285000Y-117947154D01*
X118286377Y-117948284D01*
X118483553Y-118053676D01*
X118697501Y-118118577D01*
X118864248Y-118135000D01*
X118975752Y-118135000D01*
X119142499Y-118118577D01*
X119356447Y-118053676D01*
X119553623Y-117948284D01*
X119555000Y-117947154D01*
X119556377Y-117948284D01*
X119753553Y-118053676D01*
X119967501Y-118118577D01*
X120134248Y-118135000D01*
X120245752Y-118135000D01*
X120412499Y-118118577D01*
X120626447Y-118053676D01*
X120823623Y-117948284D01*
X120825000Y-117947154D01*
X120826377Y-117948284D01*
X121023553Y-118053676D01*
X121237501Y-118118577D01*
X121404248Y-118135000D01*
X121515752Y-118135000D01*
X121682499Y-118118577D01*
X121896447Y-118053676D01*
X122093623Y-117948284D01*
X122095000Y-117947154D01*
X122096377Y-117948284D01*
X122293553Y-118053676D01*
X122507501Y-118118577D01*
X122674248Y-118135000D01*
X122785752Y-118135000D01*
X122952499Y-118118577D01*
X123166447Y-118053676D01*
X123177621Y-118047703D01*
X123255820Y-118089502D01*
X123375518Y-118125812D01*
X123500000Y-118138072D01*
X124500000Y-118138072D01*
X124624482Y-118125812D01*
X124744180Y-118089502D01*
X124854494Y-118030537D01*
X124951185Y-117951185D01*
X125030537Y-117854494D01*
X125089502Y-117744180D01*
X125125812Y-117624482D01*
X125138072Y-117500000D01*
X125138072Y-116500000D01*
X125125812Y-116375518D01*
X125089502Y-116255820D01*
X125030537Y-116145506D01*
X124951185Y-116048815D01*
X124854494Y-115969463D01*
X124744180Y-115910498D01*
X124624482Y-115874188D01*
X124500000Y-115861928D01*
X123500000Y-115861928D01*
X123375518Y-115874188D01*
X123255820Y-115910498D01*
X123177621Y-115952297D01*
X123166447Y-115946324D01*
X122952499Y-115881423D01*
X122785752Y-115865000D01*
X122674248Y-115865000D01*
X122507501Y-115881423D01*
X122293553Y-115946324D01*
X122096377Y-116051716D01*
X122095000Y-116052846D01*
X122093623Y-116051716D01*
X121896447Y-115946324D01*
X121682499Y-115881423D01*
X121515752Y-115865000D01*
X121404248Y-115865000D01*
X121237501Y-115881423D01*
X121023553Y-115946324D01*
X120826377Y-116051716D01*
X120825000Y-116052846D01*
X120823623Y-116051716D01*
X120626447Y-115946324D01*
X120412499Y-115881423D01*
X120245752Y-115865000D01*
X120134248Y-115865000D01*
X119967501Y-115881423D01*
X119753553Y-115946324D01*
X119556377Y-116051716D01*
X119555000Y-116052846D01*
X119553623Y-116051716D01*
X119356447Y-115946324D01*
X119142499Y-115881423D01*
X118975752Y-115865000D01*
X118864248Y-115865000D01*
X118697501Y-115881423D01*
X118483553Y-115946324D01*
X118286377Y-116051716D01*
X118285000Y-116052846D01*
X118283623Y-116051716D01*
X118086447Y-115946324D01*
X117872499Y-115881423D01*
X117705752Y-115865000D01*
X117594248Y-115865000D01*
X117427501Y-115881423D01*
X117213553Y-115946324D01*
X117016377Y-116051716D01*
X116843551Y-116193551D01*
X116701716Y-116366377D01*
X116596324Y-116563553D01*
X116531423Y-116777501D01*
X116509509Y-117000000D01*
X105887790Y-117000000D01*
X106270403Y-116629223D01*
X106910451Y-116199129D01*
X107616553Y-115889171D01*
X108371457Y-115707935D01*
X109024207Y-115660000D01*
X139970608Y-115660000D01*
X140768083Y-115731173D01*
X140768083Y-115731173D01*
G37*
X140768083Y-115731173D02*
X141511891Y-115934656D01*
X142207905Y-116266638D01*
X142834130Y-116716626D01*
X143370777Y-117270403D01*
X143800871Y-117910451D01*
X144110829Y-118616553D01*
X144292065Y-119371457D01*
X144340000Y-120024207D01*
X144340001Y-134970597D01*
X144268827Y-135768083D01*
X144065344Y-136511890D01*
X143733363Y-137207904D01*
X143283374Y-137834130D01*
X142729597Y-138370777D01*
X142089549Y-138800871D01*
X141383447Y-139110829D01*
X140628543Y-139292065D01*
X139975793Y-139340000D01*
X109029392Y-139340000D01*
X108231917Y-139268827D01*
X107488110Y-139065344D01*
X106792096Y-138733363D01*
X106165870Y-138283374D01*
X105629223Y-137729597D01*
X105199129Y-137089549D01*
X104889171Y-136383447D01*
X104707935Y-135628543D01*
X104660000Y-134975793D01*
X104660000Y-133832986D01*
X104730694Y-134188387D01*
X104908595Y-134617879D01*
X105166868Y-135004412D01*
X105495588Y-135333132D01*
X105882121Y-135591405D01*
X106311613Y-135769306D01*
X106767560Y-135860000D01*
X107232440Y-135860000D01*
X107688387Y-135769306D01*
X108117879Y-135591405D01*
X108194812Y-135540000D01*
X140507815Y-135540000D01*
X140536487Y-135831111D01*
X140621401Y-136111034D01*
X140759294Y-136369014D01*
X140944866Y-136595134D01*
X141170986Y-136780706D01*
X141428966Y-136918599D01*
X141708889Y-137003513D01*
X141927050Y-137025000D01*
X142072950Y-137025000D01*
X142291111Y-137003513D01*
X142571034Y-136918599D01*
X142829014Y-136780706D01*
X143055134Y-136595134D01*
X143240706Y-136369014D01*
X143378599Y-136111034D01*
X143463513Y-135831111D01*
X143492185Y-135540000D01*
X143463513Y-135248889D01*
X143378599Y-134968966D01*
X143240706Y-134710986D01*
X143055134Y-134484866D01*
X143025313Y-134460393D01*
X143094180Y-134439502D01*
X143204494Y-134380537D01*
X143301185Y-134301185D01*
X143380537Y-134204494D01*
X143439502Y-134094180D01*
X143475812Y-133974482D01*
X143488072Y-133850000D01*
X143488072Y-132150000D01*
X143475812Y-132025518D01*
X143439502Y-131905820D01*
X143380537Y-131795506D01*
X143301185Y-131698815D01*
X143204494Y-131619463D01*
X143094180Y-131560498D01*
X142974482Y-131524188D01*
X142850000Y-131511928D01*
X141150000Y-131511928D01*
X141025518Y-131524188D01*
X140905820Y-131560498D01*
X140795506Y-131619463D01*
X140698815Y-131698815D01*
X140619463Y-131795506D01*
X140560498Y-131905820D01*
X140524188Y-132025518D01*
X140511928Y-132150000D01*
X140511928Y-133850000D01*
X140524188Y-133974482D01*
X140560498Y-134094180D01*
X140619463Y-134204494D01*
X140698815Y-134301185D01*
X140795506Y-134380537D01*
X140905820Y-134439502D01*
X140974687Y-134460393D01*
X140944866Y-134484866D01*
X140759294Y-134710986D01*
X140621401Y-134968966D01*
X140536487Y-135248889D01*
X140507815Y-135540000D01*
X108194812Y-135540000D01*
X108504412Y-135333132D01*
X108833132Y-135004412D01*
X109091405Y-134617879D01*
X109269306Y-134188387D01*
X109360000Y-133732440D01*
X109360000Y-133267560D01*
X109269306Y-132811613D01*
X109091405Y-132382121D01*
X109073281Y-132354997D01*
X109073859Y-132355022D01*
X109336792Y-132314577D01*
X109586782Y-132223612D01*
X109691398Y-132167694D01*
X109752740Y-131932345D01*
X109000000Y-131179605D01*
X108985858Y-131193748D01*
X108806253Y-131014143D01*
X108820395Y-131000000D01*
X109179605Y-131000000D01*
X109932345Y-131752740D01*
X110167694Y-131691398D01*
X110280143Y-131450308D01*
X110343395Y-131191912D01*
X110355022Y-130926141D01*
X110314577Y-130663208D01*
X110223612Y-130413218D01*
X110167694Y-130308602D01*
X109932345Y-130247260D01*
X109179605Y-131000000D01*
X108820395Y-131000000D01*
X108806253Y-130985858D01*
X108985858Y-130806253D01*
X109000000Y-130820395D01*
X109752740Y-130067655D01*
X109691398Y-129832306D01*
X109513205Y-129749194D01*
X109639701Y-129696797D01*
X109727605Y-129638061D01*
X117225000Y-129638061D01*
X117225000Y-129841939D01*
X117264774Y-130041898D01*
X117342795Y-130230256D01*
X117456063Y-130399774D01*
X117600226Y-130543937D01*
X117769744Y-130657205D01*
X117958102Y-130735226D01*
X118158061Y-130775000D01*
X118361939Y-130775000D01*
X118561898Y-130735226D01*
X118750256Y-130657205D01*
X118919774Y-130543937D01*
X119063937Y-130399774D01*
X119177205Y-130230256D01*
X119255226Y-130041898D01*
X119295000Y-129841939D01*
X119295000Y-129779801D01*
X120314802Y-128760000D01*
X129296289Y-128760000D01*
X129340226Y-128803937D01*
X129509744Y-128917205D01*
X129698102Y-128995226D01*
X129898061Y-129035000D01*
X130101939Y-129035000D01*
X130301898Y-128995226D01*
X130490256Y-128917205D01*
X130659774Y-128803937D01*
X130803937Y-128659774D01*
X130917205Y-128490256D01*
X130995226Y-128301898D01*
X131035000Y-128101939D01*
X131035000Y-127898061D01*
X130995226Y-127698102D01*
X130917205Y-127509744D01*
X130803937Y-127340226D01*
X130659774Y-127196063D01*
X130490256Y-127082795D01*
X130301898Y-127004774D01*
X130101939Y-126965000D01*
X129898061Y-126965000D01*
X129698102Y-127004774D01*
X129509744Y-127082795D01*
X129340226Y-127196063D01*
X129296289Y-127240000D01*
X120037333Y-127240000D01*
X120000000Y-127236323D01*
X119962667Y-127240000D01*
X119851014Y-127250997D01*
X119707753Y-127294454D01*
X119575724Y-127365026D01*
X119459999Y-127459999D01*
X119436201Y-127488997D01*
X118220199Y-128705000D01*
X118158061Y-128705000D01*
X117958102Y-128744774D01*
X117769744Y-128822795D01*
X117600226Y-128936063D01*
X117456063Y-129080226D01*
X117342795Y-129249744D01*
X117264774Y-129438102D01*
X117225000Y-129638061D01*
X109727605Y-129638061D01*
X109860893Y-129549001D01*
X110049001Y-129360893D01*
X110196797Y-129139701D01*
X110298601Y-128893926D01*
X110350500Y-128633013D01*
X110350500Y-128366987D01*
X110298601Y-128106074D01*
X110196797Y-127860299D01*
X110049001Y-127639107D01*
X109909894Y-127500000D01*
X110049001Y-127360893D01*
X110196797Y-127139701D01*
X110298601Y-126893926D01*
X110350500Y-126633013D01*
X110350500Y-126366987D01*
X110298601Y-126106074D01*
X110196797Y-125860299D01*
X110049001Y-125639107D01*
X109860893Y-125450999D01*
X109639701Y-125303203D01*
X109511258Y-125250000D01*
X109639701Y-125196797D01*
X109860893Y-125049001D01*
X110049001Y-124860893D01*
X110196797Y-124639701D01*
X110298601Y-124393926D01*
X110350500Y-124133013D01*
X110350500Y-123866987D01*
X110298601Y-123606074D01*
X110196797Y-123360299D01*
X110049001Y-123139107D01*
X109860893Y-122950999D01*
X109639701Y-122803203D01*
X109393926Y-122701399D01*
X109133013Y-122649500D01*
X109062503Y-122649500D01*
X109119032Y-122540000D01*
X140507815Y-122540000D01*
X140536487Y-122831111D01*
X140621401Y-123111034D01*
X140759294Y-123369014D01*
X140944866Y-123595134D01*
X141170986Y-123780706D01*
X141428966Y-123918599D01*
X141708889Y-124003513D01*
X141927050Y-124025000D01*
X142072950Y-124025000D01*
X142291111Y-124003513D01*
X142571034Y-123918599D01*
X142829014Y-123780706D01*
X143055134Y-123595134D01*
X143240706Y-123369014D01*
X143378599Y-123111034D01*
X143463513Y-122831111D01*
X143492185Y-122540000D01*
X143463513Y-122248889D01*
X143378599Y-121968966D01*
X143240706Y-121710986D01*
X143055134Y-121484866D01*
X143025313Y-121460393D01*
X143094180Y-121439502D01*
X143204494Y-121380537D01*
X143301185Y-121301185D01*
X143380537Y-121204494D01*
X143439502Y-121094180D01*
X143475812Y-120974482D01*
X143488072Y-120850000D01*
X143488072Y-119150000D01*
X143475812Y-119025518D01*
X143439502Y-118905820D01*
X143380537Y-118795506D01*
X143301185Y-118698815D01*
X143204494Y-118619463D01*
X143094180Y-118560498D01*
X142974482Y-118524188D01*
X142850000Y-118511928D01*
X141150000Y-118511928D01*
X141025518Y-118524188D01*
X140905820Y-118560498D01*
X140795506Y-118619463D01*
X140698815Y-118698815D01*
X140619463Y-118795506D01*
X140560498Y-118905820D01*
X140524188Y-119025518D01*
X140511928Y-119150000D01*
X140511928Y-120850000D01*
X140524188Y-120974482D01*
X140560498Y-121094180D01*
X140619463Y-121204494D01*
X140698815Y-121301185D01*
X140795506Y-121380537D01*
X140905820Y-121439502D01*
X140974687Y-121460393D01*
X140944866Y-121484866D01*
X140759294Y-121710986D01*
X140621401Y-121968966D01*
X140536487Y-122248889D01*
X140507815Y-122540000D01*
X109119032Y-122540000D01*
X109203668Y-122376059D01*
X109332235Y-121929312D01*
X109371177Y-121466067D01*
X109318996Y-121004125D01*
X109177697Y-120561239D01*
X108990414Y-120210860D01*
X108651816Y-120027789D01*
X107179605Y-121500000D01*
X107193748Y-121514143D01*
X107014143Y-121693748D01*
X107000000Y-121679605D01*
X105527789Y-123151816D01*
X105710860Y-123490414D01*
X106123941Y-123703668D01*
X106570688Y-123832235D01*
X106960453Y-123865000D01*
X106863589Y-123865000D01*
X106596011Y-123918225D01*
X106343957Y-124022629D01*
X106117114Y-124174201D01*
X105924201Y-124367114D01*
X105772629Y-124593957D01*
X105668225Y-124846011D01*
X105615000Y-125113589D01*
X105615000Y-125386411D01*
X105668225Y-125653989D01*
X105772629Y-125906043D01*
X105924201Y-126132886D01*
X106117114Y-126325799D01*
X106343957Y-126477371D01*
X106596011Y-126581775D01*
X106863589Y-126635000D01*
X107136411Y-126635000D01*
X107403989Y-126581775D01*
X107649500Y-126480081D01*
X107649500Y-126633013D01*
X107701399Y-126893926D01*
X107803203Y-127139701D01*
X107950999Y-127360893D01*
X108090106Y-127500000D01*
X107950999Y-127639107D01*
X107803203Y-127860299D01*
X107701399Y-128106074D01*
X107649500Y-128366987D01*
X107649500Y-128519919D01*
X107403989Y-128418225D01*
X107136411Y-128365000D01*
X106863589Y-128365000D01*
X106596011Y-128418225D01*
X106343957Y-128522629D01*
X106117114Y-128674201D01*
X105924201Y-128867114D01*
X105772629Y-129093957D01*
X105668225Y-129346011D01*
X105615000Y-129613589D01*
X105615000Y-129886411D01*
X105668225Y-130153989D01*
X105772629Y-130406043D01*
X105924201Y-130632886D01*
X106117114Y-130825799D01*
X106343957Y-130977371D01*
X106596011Y-131081775D01*
X106863589Y-131135000D01*
X107136411Y-131135000D01*
X107403989Y-131081775D01*
X107649073Y-130980258D01*
X107644978Y-131073859D01*
X107668494Y-131226737D01*
X107232440Y-131140000D01*
X106767560Y-131140000D01*
X106311613Y-131230694D01*
X105882121Y-131408595D01*
X105495588Y-131666868D01*
X105166868Y-131995588D01*
X104908595Y-132382121D01*
X104730694Y-132811613D01*
X104660000Y-133167014D01*
X104660000Y-121809933D01*
X104681004Y-121995875D01*
X104822303Y-122438761D01*
X105009586Y-122789140D01*
X105348184Y-122972211D01*
X106820395Y-121500000D01*
X105348184Y-120027789D01*
X105009586Y-120210860D01*
X104796332Y-120623941D01*
X104667765Y-121070688D01*
X104660000Y-121163059D01*
X104660000Y-120029392D01*
X104676172Y-119848184D01*
X105527789Y-119848184D01*
X107000000Y-121320395D01*
X108472211Y-119848184D01*
X108289140Y-119509586D01*
X107876059Y-119296332D01*
X107429312Y-119167765D01*
X106966067Y-119128823D01*
X106504125Y-119181004D01*
X106061239Y-119322303D01*
X105710860Y-119509586D01*
X105527789Y-119848184D01*
X104676172Y-119848184D01*
X104731173Y-119231917D01*
X104934656Y-118488109D01*
X105266638Y-117792095D01*
X105716626Y-117165870D01*
X105887790Y-117000000D01*
X116509509Y-117000000D01*
X116531423Y-117222499D01*
X116596324Y-117436447D01*
X116701716Y-117633623D01*
X116843551Y-117806449D01*
X117016377Y-117948284D01*
X117213553Y-118053676D01*
X117427501Y-118118577D01*
X117594248Y-118135000D01*
X117705752Y-118135000D01*
X117872499Y-118118577D01*
X118086447Y-118053676D01*
X118283623Y-117948284D01*
X118285000Y-117947154D01*
X118286377Y-117948284D01*
X118483553Y-118053676D01*
X118697501Y-118118577D01*
X118864248Y-118135000D01*
X118975752Y-118135000D01*
X119142499Y-118118577D01*
X119356447Y-118053676D01*
X119553623Y-117948284D01*
X119555000Y-117947154D01*
X119556377Y-117948284D01*
X119753553Y-118053676D01*
X119967501Y-118118577D01*
X120134248Y-118135000D01*
X120245752Y-118135000D01*
X120412499Y-118118577D01*
X120626447Y-118053676D01*
X120823623Y-117948284D01*
X120825000Y-117947154D01*
X120826377Y-117948284D01*
X121023553Y-118053676D01*
X121237501Y-118118577D01*
X121404248Y-118135000D01*
X121515752Y-118135000D01*
X121682499Y-118118577D01*
X121896447Y-118053676D01*
X122093623Y-117948284D01*
X122095000Y-117947154D01*
X122096377Y-117948284D01*
X122293553Y-118053676D01*
X122507501Y-118118577D01*
X122674248Y-118135000D01*
X122785752Y-118135000D01*
X122952499Y-118118577D01*
X123166447Y-118053676D01*
X123177621Y-118047703D01*
X123255820Y-118089502D01*
X123375518Y-118125812D01*
X123500000Y-118138072D01*
X124500000Y-118138072D01*
X124624482Y-118125812D01*
X124744180Y-118089502D01*
X124854494Y-118030537D01*
X124951185Y-117951185D01*
X125030537Y-117854494D01*
X125089502Y-117744180D01*
X125125812Y-117624482D01*
X125138072Y-117500000D01*
X125138072Y-116500000D01*
X125125812Y-116375518D01*
X125089502Y-116255820D01*
X125030537Y-116145506D01*
X124951185Y-116048815D01*
X124854494Y-115969463D01*
X124744180Y-115910498D01*
X124624482Y-115874188D01*
X124500000Y-115861928D01*
X123500000Y-115861928D01*
X123375518Y-115874188D01*
X123255820Y-115910498D01*
X123177621Y-115952297D01*
X123166447Y-115946324D01*
X122952499Y-115881423D01*
X122785752Y-115865000D01*
X122674248Y-115865000D01*
X122507501Y-115881423D01*
X122293553Y-115946324D01*
X122096377Y-116051716D01*
X122095000Y-116052846D01*
X122093623Y-116051716D01*
X121896447Y-115946324D01*
X121682499Y-115881423D01*
X121515752Y-115865000D01*
X121404248Y-115865000D01*
X121237501Y-115881423D01*
X121023553Y-115946324D01*
X120826377Y-116051716D01*
X120825000Y-116052846D01*
X120823623Y-116051716D01*
X120626447Y-115946324D01*
X120412499Y-115881423D01*
X120245752Y-115865000D01*
X120134248Y-115865000D01*
X119967501Y-115881423D01*
X119753553Y-115946324D01*
X119556377Y-116051716D01*
X119555000Y-116052846D01*
X119553623Y-116051716D01*
X119356447Y-115946324D01*
X119142499Y-115881423D01*
X118975752Y-115865000D01*
X118864248Y-115865000D01*
X118697501Y-115881423D01*
X118483553Y-115946324D01*
X118286377Y-116051716D01*
X118285000Y-116052846D01*
X118283623Y-116051716D01*
X118086447Y-115946324D01*
X117872499Y-115881423D01*
X117705752Y-115865000D01*
X117594248Y-115865000D01*
X117427501Y-115881423D01*
X117213553Y-115946324D01*
X117016377Y-116051716D01*
X116843551Y-116193551D01*
X116701716Y-116366377D01*
X116596324Y-116563553D01*
X116531423Y-116777501D01*
X116509509Y-117000000D01*
X105887790Y-117000000D01*
X106270403Y-116629223D01*
X106910451Y-116199129D01*
X107616553Y-115889171D01*
X108371457Y-115707935D01*
X109024207Y-115660000D01*
X139970608Y-115660000D01*
X140768083Y-115731173D01*
M02*
