G04 #@! TF.GenerationSoftware,KiCad,Pcbnew,5.1.4-e60b266~84~ubuntu19.04.1*
G04 #@! TF.CreationDate,2019-09-06T13:47:56+02:00*
G04 #@! TF.ProjectId,keyer,6b657965-722e-46b6-9963-61645f706362,rev?*
G04 #@! TF.SameCoordinates,Original*
G04 #@! TF.FileFunction,Paste,Top*
G04 #@! TF.FilePolarity,Positive*
%FSLAX46Y46*%
G04 Gerber Fmt 4.6, Leading zero omitted, Abs format (unit mm)*
G04 Created by KiCad (PCBNEW 5.1.4-e60b266~84~ubuntu19.04.1) date 2019-09-06 13:47:56*
%MOMM*%
%LPD*%
G04 APERTURE LIST*
%ADD10C,0.100000*%
%ADD11C,1.150000*%
%ADD12R,0.450000X1.750000*%
%ADD13R,1.200000X0.800000*%
G04 APERTURE END LIST*
D10*
G36*
X119374505Y-135301204D02*
G01*
X119398773Y-135304804D01*
X119422572Y-135310765D01*
X119445671Y-135319030D01*
X119467850Y-135329520D01*
X119488893Y-135342132D01*
X119508599Y-135356747D01*
X119526777Y-135373223D01*
X119543253Y-135391401D01*
X119557868Y-135411107D01*
X119570480Y-135432150D01*
X119580970Y-135454329D01*
X119589235Y-135477428D01*
X119595196Y-135501227D01*
X119598796Y-135525495D01*
X119600000Y-135549999D01*
X119600000Y-136450001D01*
X119598796Y-136474505D01*
X119595196Y-136498773D01*
X119589235Y-136522572D01*
X119580970Y-136545671D01*
X119570480Y-136567850D01*
X119557868Y-136588893D01*
X119543253Y-136608599D01*
X119526777Y-136626777D01*
X119508599Y-136643253D01*
X119488893Y-136657868D01*
X119467850Y-136670480D01*
X119445671Y-136680970D01*
X119422572Y-136689235D01*
X119398773Y-136695196D01*
X119374505Y-136698796D01*
X119350001Y-136700000D01*
X118699999Y-136700000D01*
X118675495Y-136698796D01*
X118651227Y-136695196D01*
X118627428Y-136689235D01*
X118604329Y-136680970D01*
X118582150Y-136670480D01*
X118561107Y-136657868D01*
X118541401Y-136643253D01*
X118523223Y-136626777D01*
X118506747Y-136608599D01*
X118492132Y-136588893D01*
X118479520Y-136567850D01*
X118469030Y-136545671D01*
X118460765Y-136522572D01*
X118454804Y-136498773D01*
X118451204Y-136474505D01*
X118450000Y-136450001D01*
X118450000Y-135549999D01*
X118451204Y-135525495D01*
X118454804Y-135501227D01*
X118460765Y-135477428D01*
X118469030Y-135454329D01*
X118479520Y-135432150D01*
X118492132Y-135411107D01*
X118506747Y-135391401D01*
X118523223Y-135373223D01*
X118541401Y-135356747D01*
X118561107Y-135342132D01*
X118582150Y-135329520D01*
X118604329Y-135319030D01*
X118627428Y-135310765D01*
X118651227Y-135304804D01*
X118675495Y-135301204D01*
X118699999Y-135300000D01*
X119350001Y-135300000D01*
X119374505Y-135301204D01*
X119374505Y-135301204D01*
G37*
D11*
X119025000Y-136000000D03*
D10*
G36*
X117324505Y-135301204D02*
G01*
X117348773Y-135304804D01*
X117372572Y-135310765D01*
X117395671Y-135319030D01*
X117417850Y-135329520D01*
X117438893Y-135342132D01*
X117458599Y-135356747D01*
X117476777Y-135373223D01*
X117493253Y-135391401D01*
X117507868Y-135411107D01*
X117520480Y-135432150D01*
X117530970Y-135454329D01*
X117539235Y-135477428D01*
X117545196Y-135501227D01*
X117548796Y-135525495D01*
X117550000Y-135549999D01*
X117550000Y-136450001D01*
X117548796Y-136474505D01*
X117545196Y-136498773D01*
X117539235Y-136522572D01*
X117530970Y-136545671D01*
X117520480Y-136567850D01*
X117507868Y-136588893D01*
X117493253Y-136608599D01*
X117476777Y-136626777D01*
X117458599Y-136643253D01*
X117438893Y-136657868D01*
X117417850Y-136670480D01*
X117395671Y-136680970D01*
X117372572Y-136689235D01*
X117348773Y-136695196D01*
X117324505Y-136698796D01*
X117300001Y-136700000D01*
X116649999Y-136700000D01*
X116625495Y-136698796D01*
X116601227Y-136695196D01*
X116577428Y-136689235D01*
X116554329Y-136680970D01*
X116532150Y-136670480D01*
X116511107Y-136657868D01*
X116491401Y-136643253D01*
X116473223Y-136626777D01*
X116456747Y-136608599D01*
X116442132Y-136588893D01*
X116429520Y-136567850D01*
X116419030Y-136545671D01*
X116410765Y-136522572D01*
X116404804Y-136498773D01*
X116401204Y-136474505D01*
X116400000Y-136450001D01*
X116400000Y-135549999D01*
X116401204Y-135525495D01*
X116404804Y-135501227D01*
X116410765Y-135477428D01*
X116419030Y-135454329D01*
X116429520Y-135432150D01*
X116442132Y-135411107D01*
X116456747Y-135391401D01*
X116473223Y-135373223D01*
X116491401Y-135356747D01*
X116511107Y-135342132D01*
X116532150Y-135329520D01*
X116554329Y-135319030D01*
X116577428Y-135310765D01*
X116601227Y-135304804D01*
X116625495Y-135301204D01*
X116649999Y-135300000D01*
X117300001Y-135300000D01*
X117324505Y-135301204D01*
X117324505Y-135301204D01*
G37*
D11*
X116975000Y-136000000D03*
D10*
G36*
X112474505Y-118401204D02*
G01*
X112498773Y-118404804D01*
X112522572Y-118410765D01*
X112545671Y-118419030D01*
X112567850Y-118429520D01*
X112588893Y-118442132D01*
X112608599Y-118456747D01*
X112626777Y-118473223D01*
X112643253Y-118491401D01*
X112657868Y-118511107D01*
X112670480Y-118532150D01*
X112680970Y-118554329D01*
X112689235Y-118577428D01*
X112695196Y-118601227D01*
X112698796Y-118625495D01*
X112700000Y-118649999D01*
X112700000Y-119300001D01*
X112698796Y-119324505D01*
X112695196Y-119348773D01*
X112689235Y-119372572D01*
X112680970Y-119395671D01*
X112670480Y-119417850D01*
X112657868Y-119438893D01*
X112643253Y-119458599D01*
X112626777Y-119476777D01*
X112608599Y-119493253D01*
X112588893Y-119507868D01*
X112567850Y-119520480D01*
X112545671Y-119530970D01*
X112522572Y-119539235D01*
X112498773Y-119545196D01*
X112474505Y-119548796D01*
X112450001Y-119550000D01*
X111549999Y-119550000D01*
X111525495Y-119548796D01*
X111501227Y-119545196D01*
X111477428Y-119539235D01*
X111454329Y-119530970D01*
X111432150Y-119520480D01*
X111411107Y-119507868D01*
X111391401Y-119493253D01*
X111373223Y-119476777D01*
X111356747Y-119458599D01*
X111342132Y-119438893D01*
X111329520Y-119417850D01*
X111319030Y-119395671D01*
X111310765Y-119372572D01*
X111304804Y-119348773D01*
X111301204Y-119324505D01*
X111300000Y-119300001D01*
X111300000Y-118649999D01*
X111301204Y-118625495D01*
X111304804Y-118601227D01*
X111310765Y-118577428D01*
X111319030Y-118554329D01*
X111329520Y-118532150D01*
X111342132Y-118511107D01*
X111356747Y-118491401D01*
X111373223Y-118473223D01*
X111391401Y-118456747D01*
X111411107Y-118442132D01*
X111432150Y-118429520D01*
X111454329Y-118419030D01*
X111477428Y-118410765D01*
X111501227Y-118404804D01*
X111525495Y-118401204D01*
X111549999Y-118400000D01*
X112450001Y-118400000D01*
X112474505Y-118401204D01*
X112474505Y-118401204D01*
G37*
D11*
X112000000Y-118975000D03*
D10*
G36*
X112474505Y-120451204D02*
G01*
X112498773Y-120454804D01*
X112522572Y-120460765D01*
X112545671Y-120469030D01*
X112567850Y-120479520D01*
X112588893Y-120492132D01*
X112608599Y-120506747D01*
X112626777Y-120523223D01*
X112643253Y-120541401D01*
X112657868Y-120561107D01*
X112670480Y-120582150D01*
X112680970Y-120604329D01*
X112689235Y-120627428D01*
X112695196Y-120651227D01*
X112698796Y-120675495D01*
X112700000Y-120699999D01*
X112700000Y-121350001D01*
X112698796Y-121374505D01*
X112695196Y-121398773D01*
X112689235Y-121422572D01*
X112680970Y-121445671D01*
X112670480Y-121467850D01*
X112657868Y-121488893D01*
X112643253Y-121508599D01*
X112626777Y-121526777D01*
X112608599Y-121543253D01*
X112588893Y-121557868D01*
X112567850Y-121570480D01*
X112545671Y-121580970D01*
X112522572Y-121589235D01*
X112498773Y-121595196D01*
X112474505Y-121598796D01*
X112450001Y-121600000D01*
X111549999Y-121600000D01*
X111525495Y-121598796D01*
X111501227Y-121595196D01*
X111477428Y-121589235D01*
X111454329Y-121580970D01*
X111432150Y-121570480D01*
X111411107Y-121557868D01*
X111391401Y-121543253D01*
X111373223Y-121526777D01*
X111356747Y-121508599D01*
X111342132Y-121488893D01*
X111329520Y-121467850D01*
X111319030Y-121445671D01*
X111310765Y-121422572D01*
X111304804Y-121398773D01*
X111301204Y-121374505D01*
X111300000Y-121350001D01*
X111300000Y-120699999D01*
X111301204Y-120675495D01*
X111304804Y-120651227D01*
X111310765Y-120627428D01*
X111319030Y-120604329D01*
X111329520Y-120582150D01*
X111342132Y-120561107D01*
X111356747Y-120541401D01*
X111373223Y-120523223D01*
X111391401Y-120506747D01*
X111411107Y-120492132D01*
X111432150Y-120479520D01*
X111454329Y-120469030D01*
X111477428Y-120460765D01*
X111501227Y-120454804D01*
X111525495Y-120451204D01*
X111549999Y-120450000D01*
X112450001Y-120450000D01*
X112474505Y-120451204D01*
X112474505Y-120451204D01*
G37*
D11*
X112000000Y-121025000D03*
D10*
G36*
X114474505Y-120451204D02*
G01*
X114498773Y-120454804D01*
X114522572Y-120460765D01*
X114545671Y-120469030D01*
X114567850Y-120479520D01*
X114588893Y-120492132D01*
X114608599Y-120506747D01*
X114626777Y-120523223D01*
X114643253Y-120541401D01*
X114657868Y-120561107D01*
X114670480Y-120582150D01*
X114680970Y-120604329D01*
X114689235Y-120627428D01*
X114695196Y-120651227D01*
X114698796Y-120675495D01*
X114700000Y-120699999D01*
X114700000Y-121350001D01*
X114698796Y-121374505D01*
X114695196Y-121398773D01*
X114689235Y-121422572D01*
X114680970Y-121445671D01*
X114670480Y-121467850D01*
X114657868Y-121488893D01*
X114643253Y-121508599D01*
X114626777Y-121526777D01*
X114608599Y-121543253D01*
X114588893Y-121557868D01*
X114567850Y-121570480D01*
X114545671Y-121580970D01*
X114522572Y-121589235D01*
X114498773Y-121595196D01*
X114474505Y-121598796D01*
X114450001Y-121600000D01*
X113549999Y-121600000D01*
X113525495Y-121598796D01*
X113501227Y-121595196D01*
X113477428Y-121589235D01*
X113454329Y-121580970D01*
X113432150Y-121570480D01*
X113411107Y-121557868D01*
X113391401Y-121543253D01*
X113373223Y-121526777D01*
X113356747Y-121508599D01*
X113342132Y-121488893D01*
X113329520Y-121467850D01*
X113319030Y-121445671D01*
X113310765Y-121422572D01*
X113304804Y-121398773D01*
X113301204Y-121374505D01*
X113300000Y-121350001D01*
X113300000Y-120699999D01*
X113301204Y-120675495D01*
X113304804Y-120651227D01*
X113310765Y-120627428D01*
X113319030Y-120604329D01*
X113329520Y-120582150D01*
X113342132Y-120561107D01*
X113356747Y-120541401D01*
X113373223Y-120523223D01*
X113391401Y-120506747D01*
X113411107Y-120492132D01*
X113432150Y-120479520D01*
X113454329Y-120469030D01*
X113477428Y-120460765D01*
X113501227Y-120454804D01*
X113525495Y-120451204D01*
X113549999Y-120450000D01*
X114450001Y-120450000D01*
X114474505Y-120451204D01*
X114474505Y-120451204D01*
G37*
D11*
X114000000Y-121025000D03*
D10*
G36*
X114474505Y-118401204D02*
G01*
X114498773Y-118404804D01*
X114522572Y-118410765D01*
X114545671Y-118419030D01*
X114567850Y-118429520D01*
X114588893Y-118442132D01*
X114608599Y-118456747D01*
X114626777Y-118473223D01*
X114643253Y-118491401D01*
X114657868Y-118511107D01*
X114670480Y-118532150D01*
X114680970Y-118554329D01*
X114689235Y-118577428D01*
X114695196Y-118601227D01*
X114698796Y-118625495D01*
X114700000Y-118649999D01*
X114700000Y-119300001D01*
X114698796Y-119324505D01*
X114695196Y-119348773D01*
X114689235Y-119372572D01*
X114680970Y-119395671D01*
X114670480Y-119417850D01*
X114657868Y-119438893D01*
X114643253Y-119458599D01*
X114626777Y-119476777D01*
X114608599Y-119493253D01*
X114588893Y-119507868D01*
X114567850Y-119520480D01*
X114545671Y-119530970D01*
X114522572Y-119539235D01*
X114498773Y-119545196D01*
X114474505Y-119548796D01*
X114450001Y-119550000D01*
X113549999Y-119550000D01*
X113525495Y-119548796D01*
X113501227Y-119545196D01*
X113477428Y-119539235D01*
X113454329Y-119530970D01*
X113432150Y-119520480D01*
X113411107Y-119507868D01*
X113391401Y-119493253D01*
X113373223Y-119476777D01*
X113356747Y-119458599D01*
X113342132Y-119438893D01*
X113329520Y-119417850D01*
X113319030Y-119395671D01*
X113310765Y-119372572D01*
X113304804Y-119348773D01*
X113301204Y-119324505D01*
X113300000Y-119300001D01*
X113300000Y-118649999D01*
X113301204Y-118625495D01*
X113304804Y-118601227D01*
X113310765Y-118577428D01*
X113319030Y-118554329D01*
X113329520Y-118532150D01*
X113342132Y-118511107D01*
X113356747Y-118491401D01*
X113373223Y-118473223D01*
X113391401Y-118456747D01*
X113411107Y-118442132D01*
X113432150Y-118429520D01*
X113454329Y-118419030D01*
X113477428Y-118410765D01*
X113501227Y-118404804D01*
X113525495Y-118401204D01*
X113549999Y-118400000D01*
X114450001Y-118400000D01*
X114474505Y-118401204D01*
X114474505Y-118401204D01*
G37*
D11*
X114000000Y-118975000D03*
D10*
G36*
X138374505Y-127301204D02*
G01*
X138398773Y-127304804D01*
X138422572Y-127310765D01*
X138445671Y-127319030D01*
X138467850Y-127329520D01*
X138488893Y-127342132D01*
X138508599Y-127356747D01*
X138526777Y-127373223D01*
X138543253Y-127391401D01*
X138557868Y-127411107D01*
X138570480Y-127432150D01*
X138580970Y-127454329D01*
X138589235Y-127477428D01*
X138595196Y-127501227D01*
X138598796Y-127525495D01*
X138600000Y-127549999D01*
X138600000Y-128450001D01*
X138598796Y-128474505D01*
X138595196Y-128498773D01*
X138589235Y-128522572D01*
X138580970Y-128545671D01*
X138570480Y-128567850D01*
X138557868Y-128588893D01*
X138543253Y-128608599D01*
X138526777Y-128626777D01*
X138508599Y-128643253D01*
X138488893Y-128657868D01*
X138467850Y-128670480D01*
X138445671Y-128680970D01*
X138422572Y-128689235D01*
X138398773Y-128695196D01*
X138374505Y-128698796D01*
X138350001Y-128700000D01*
X137699999Y-128700000D01*
X137675495Y-128698796D01*
X137651227Y-128695196D01*
X137627428Y-128689235D01*
X137604329Y-128680970D01*
X137582150Y-128670480D01*
X137561107Y-128657868D01*
X137541401Y-128643253D01*
X137523223Y-128626777D01*
X137506747Y-128608599D01*
X137492132Y-128588893D01*
X137479520Y-128567850D01*
X137469030Y-128545671D01*
X137460765Y-128522572D01*
X137454804Y-128498773D01*
X137451204Y-128474505D01*
X137450000Y-128450001D01*
X137450000Y-127549999D01*
X137451204Y-127525495D01*
X137454804Y-127501227D01*
X137460765Y-127477428D01*
X137469030Y-127454329D01*
X137479520Y-127432150D01*
X137492132Y-127411107D01*
X137506747Y-127391401D01*
X137523223Y-127373223D01*
X137541401Y-127356747D01*
X137561107Y-127342132D01*
X137582150Y-127329520D01*
X137604329Y-127319030D01*
X137627428Y-127310765D01*
X137651227Y-127304804D01*
X137675495Y-127301204D01*
X137699999Y-127300000D01*
X138350001Y-127300000D01*
X138374505Y-127301204D01*
X138374505Y-127301204D01*
G37*
D11*
X138025000Y-128000000D03*
D10*
G36*
X136324505Y-127301204D02*
G01*
X136348773Y-127304804D01*
X136372572Y-127310765D01*
X136395671Y-127319030D01*
X136417850Y-127329520D01*
X136438893Y-127342132D01*
X136458599Y-127356747D01*
X136476777Y-127373223D01*
X136493253Y-127391401D01*
X136507868Y-127411107D01*
X136520480Y-127432150D01*
X136530970Y-127454329D01*
X136539235Y-127477428D01*
X136545196Y-127501227D01*
X136548796Y-127525495D01*
X136550000Y-127549999D01*
X136550000Y-128450001D01*
X136548796Y-128474505D01*
X136545196Y-128498773D01*
X136539235Y-128522572D01*
X136530970Y-128545671D01*
X136520480Y-128567850D01*
X136507868Y-128588893D01*
X136493253Y-128608599D01*
X136476777Y-128626777D01*
X136458599Y-128643253D01*
X136438893Y-128657868D01*
X136417850Y-128670480D01*
X136395671Y-128680970D01*
X136372572Y-128689235D01*
X136348773Y-128695196D01*
X136324505Y-128698796D01*
X136300001Y-128700000D01*
X135649999Y-128700000D01*
X135625495Y-128698796D01*
X135601227Y-128695196D01*
X135577428Y-128689235D01*
X135554329Y-128680970D01*
X135532150Y-128670480D01*
X135511107Y-128657868D01*
X135491401Y-128643253D01*
X135473223Y-128626777D01*
X135456747Y-128608599D01*
X135442132Y-128588893D01*
X135429520Y-128567850D01*
X135419030Y-128545671D01*
X135410765Y-128522572D01*
X135404804Y-128498773D01*
X135401204Y-128474505D01*
X135400000Y-128450001D01*
X135400000Y-127549999D01*
X135401204Y-127525495D01*
X135404804Y-127501227D01*
X135410765Y-127477428D01*
X135419030Y-127454329D01*
X135429520Y-127432150D01*
X135442132Y-127411107D01*
X135456747Y-127391401D01*
X135473223Y-127373223D01*
X135491401Y-127356747D01*
X135511107Y-127342132D01*
X135532150Y-127329520D01*
X135554329Y-127319030D01*
X135577428Y-127310765D01*
X135601227Y-127304804D01*
X135625495Y-127301204D01*
X135649999Y-127300000D01*
X136300001Y-127300000D01*
X136324505Y-127301204D01*
X136324505Y-127301204D01*
G37*
D11*
X135975000Y-128000000D03*
D10*
G36*
X136324505Y-125301204D02*
G01*
X136348773Y-125304804D01*
X136372572Y-125310765D01*
X136395671Y-125319030D01*
X136417850Y-125329520D01*
X136438893Y-125342132D01*
X136458599Y-125356747D01*
X136476777Y-125373223D01*
X136493253Y-125391401D01*
X136507868Y-125411107D01*
X136520480Y-125432150D01*
X136530970Y-125454329D01*
X136539235Y-125477428D01*
X136545196Y-125501227D01*
X136548796Y-125525495D01*
X136550000Y-125549999D01*
X136550000Y-126450001D01*
X136548796Y-126474505D01*
X136545196Y-126498773D01*
X136539235Y-126522572D01*
X136530970Y-126545671D01*
X136520480Y-126567850D01*
X136507868Y-126588893D01*
X136493253Y-126608599D01*
X136476777Y-126626777D01*
X136458599Y-126643253D01*
X136438893Y-126657868D01*
X136417850Y-126670480D01*
X136395671Y-126680970D01*
X136372572Y-126689235D01*
X136348773Y-126695196D01*
X136324505Y-126698796D01*
X136300001Y-126700000D01*
X135649999Y-126700000D01*
X135625495Y-126698796D01*
X135601227Y-126695196D01*
X135577428Y-126689235D01*
X135554329Y-126680970D01*
X135532150Y-126670480D01*
X135511107Y-126657868D01*
X135491401Y-126643253D01*
X135473223Y-126626777D01*
X135456747Y-126608599D01*
X135442132Y-126588893D01*
X135429520Y-126567850D01*
X135419030Y-126545671D01*
X135410765Y-126522572D01*
X135404804Y-126498773D01*
X135401204Y-126474505D01*
X135400000Y-126450001D01*
X135400000Y-125549999D01*
X135401204Y-125525495D01*
X135404804Y-125501227D01*
X135410765Y-125477428D01*
X135419030Y-125454329D01*
X135429520Y-125432150D01*
X135442132Y-125411107D01*
X135456747Y-125391401D01*
X135473223Y-125373223D01*
X135491401Y-125356747D01*
X135511107Y-125342132D01*
X135532150Y-125329520D01*
X135554329Y-125319030D01*
X135577428Y-125310765D01*
X135601227Y-125304804D01*
X135625495Y-125301204D01*
X135649999Y-125300000D01*
X136300001Y-125300000D01*
X136324505Y-125301204D01*
X136324505Y-125301204D01*
G37*
D11*
X135975000Y-126000000D03*
D10*
G36*
X138374505Y-125301204D02*
G01*
X138398773Y-125304804D01*
X138422572Y-125310765D01*
X138445671Y-125319030D01*
X138467850Y-125329520D01*
X138488893Y-125342132D01*
X138508599Y-125356747D01*
X138526777Y-125373223D01*
X138543253Y-125391401D01*
X138557868Y-125411107D01*
X138570480Y-125432150D01*
X138580970Y-125454329D01*
X138589235Y-125477428D01*
X138595196Y-125501227D01*
X138598796Y-125525495D01*
X138600000Y-125549999D01*
X138600000Y-126450001D01*
X138598796Y-126474505D01*
X138595196Y-126498773D01*
X138589235Y-126522572D01*
X138580970Y-126545671D01*
X138570480Y-126567850D01*
X138557868Y-126588893D01*
X138543253Y-126608599D01*
X138526777Y-126626777D01*
X138508599Y-126643253D01*
X138488893Y-126657868D01*
X138467850Y-126670480D01*
X138445671Y-126680970D01*
X138422572Y-126689235D01*
X138398773Y-126695196D01*
X138374505Y-126698796D01*
X138350001Y-126700000D01*
X137699999Y-126700000D01*
X137675495Y-126698796D01*
X137651227Y-126695196D01*
X137627428Y-126689235D01*
X137604329Y-126680970D01*
X137582150Y-126670480D01*
X137561107Y-126657868D01*
X137541401Y-126643253D01*
X137523223Y-126626777D01*
X137506747Y-126608599D01*
X137492132Y-126588893D01*
X137479520Y-126567850D01*
X137469030Y-126545671D01*
X137460765Y-126522572D01*
X137454804Y-126498773D01*
X137451204Y-126474505D01*
X137450000Y-126450001D01*
X137450000Y-125549999D01*
X137451204Y-125525495D01*
X137454804Y-125501227D01*
X137460765Y-125477428D01*
X137469030Y-125454329D01*
X137479520Y-125432150D01*
X137492132Y-125411107D01*
X137506747Y-125391401D01*
X137523223Y-125373223D01*
X137541401Y-125356747D01*
X137561107Y-125342132D01*
X137582150Y-125329520D01*
X137604329Y-125319030D01*
X137627428Y-125310765D01*
X137651227Y-125304804D01*
X137675495Y-125301204D01*
X137699999Y-125300000D01*
X138350001Y-125300000D01*
X138374505Y-125301204D01*
X138374505Y-125301204D01*
G37*
D11*
X138025000Y-126000000D03*
D10*
G36*
X138374505Y-129301204D02*
G01*
X138398773Y-129304804D01*
X138422572Y-129310765D01*
X138445671Y-129319030D01*
X138467850Y-129329520D01*
X138488893Y-129342132D01*
X138508599Y-129356747D01*
X138526777Y-129373223D01*
X138543253Y-129391401D01*
X138557868Y-129411107D01*
X138570480Y-129432150D01*
X138580970Y-129454329D01*
X138589235Y-129477428D01*
X138595196Y-129501227D01*
X138598796Y-129525495D01*
X138600000Y-129549999D01*
X138600000Y-130450001D01*
X138598796Y-130474505D01*
X138595196Y-130498773D01*
X138589235Y-130522572D01*
X138580970Y-130545671D01*
X138570480Y-130567850D01*
X138557868Y-130588893D01*
X138543253Y-130608599D01*
X138526777Y-130626777D01*
X138508599Y-130643253D01*
X138488893Y-130657868D01*
X138467850Y-130670480D01*
X138445671Y-130680970D01*
X138422572Y-130689235D01*
X138398773Y-130695196D01*
X138374505Y-130698796D01*
X138350001Y-130700000D01*
X137699999Y-130700000D01*
X137675495Y-130698796D01*
X137651227Y-130695196D01*
X137627428Y-130689235D01*
X137604329Y-130680970D01*
X137582150Y-130670480D01*
X137561107Y-130657868D01*
X137541401Y-130643253D01*
X137523223Y-130626777D01*
X137506747Y-130608599D01*
X137492132Y-130588893D01*
X137479520Y-130567850D01*
X137469030Y-130545671D01*
X137460765Y-130522572D01*
X137454804Y-130498773D01*
X137451204Y-130474505D01*
X137450000Y-130450001D01*
X137450000Y-129549999D01*
X137451204Y-129525495D01*
X137454804Y-129501227D01*
X137460765Y-129477428D01*
X137469030Y-129454329D01*
X137479520Y-129432150D01*
X137492132Y-129411107D01*
X137506747Y-129391401D01*
X137523223Y-129373223D01*
X137541401Y-129356747D01*
X137561107Y-129342132D01*
X137582150Y-129329520D01*
X137604329Y-129319030D01*
X137627428Y-129310765D01*
X137651227Y-129304804D01*
X137675495Y-129301204D01*
X137699999Y-129300000D01*
X138350001Y-129300000D01*
X138374505Y-129301204D01*
X138374505Y-129301204D01*
G37*
D11*
X138025000Y-130000000D03*
D10*
G36*
X136324505Y-129301204D02*
G01*
X136348773Y-129304804D01*
X136372572Y-129310765D01*
X136395671Y-129319030D01*
X136417850Y-129329520D01*
X136438893Y-129342132D01*
X136458599Y-129356747D01*
X136476777Y-129373223D01*
X136493253Y-129391401D01*
X136507868Y-129411107D01*
X136520480Y-129432150D01*
X136530970Y-129454329D01*
X136539235Y-129477428D01*
X136545196Y-129501227D01*
X136548796Y-129525495D01*
X136550000Y-129549999D01*
X136550000Y-130450001D01*
X136548796Y-130474505D01*
X136545196Y-130498773D01*
X136539235Y-130522572D01*
X136530970Y-130545671D01*
X136520480Y-130567850D01*
X136507868Y-130588893D01*
X136493253Y-130608599D01*
X136476777Y-130626777D01*
X136458599Y-130643253D01*
X136438893Y-130657868D01*
X136417850Y-130670480D01*
X136395671Y-130680970D01*
X136372572Y-130689235D01*
X136348773Y-130695196D01*
X136324505Y-130698796D01*
X136300001Y-130700000D01*
X135649999Y-130700000D01*
X135625495Y-130698796D01*
X135601227Y-130695196D01*
X135577428Y-130689235D01*
X135554329Y-130680970D01*
X135532150Y-130670480D01*
X135511107Y-130657868D01*
X135491401Y-130643253D01*
X135473223Y-130626777D01*
X135456747Y-130608599D01*
X135442132Y-130588893D01*
X135429520Y-130567850D01*
X135419030Y-130545671D01*
X135410765Y-130522572D01*
X135404804Y-130498773D01*
X135401204Y-130474505D01*
X135400000Y-130450001D01*
X135400000Y-129549999D01*
X135401204Y-129525495D01*
X135404804Y-129501227D01*
X135410765Y-129477428D01*
X135419030Y-129454329D01*
X135429520Y-129432150D01*
X135442132Y-129411107D01*
X135456747Y-129391401D01*
X135473223Y-129373223D01*
X135491401Y-129356747D01*
X135511107Y-129342132D01*
X135532150Y-129329520D01*
X135554329Y-129319030D01*
X135577428Y-129310765D01*
X135601227Y-129304804D01*
X135625495Y-129301204D01*
X135649999Y-129300000D01*
X136300001Y-129300000D01*
X136324505Y-129301204D01*
X136324505Y-129301204D01*
G37*
D11*
X135975000Y-130000000D03*
D10*
G36*
X114374505Y-123301204D02*
G01*
X114398773Y-123304804D01*
X114422572Y-123310765D01*
X114445671Y-123319030D01*
X114467850Y-123329520D01*
X114488893Y-123342132D01*
X114508599Y-123356747D01*
X114526777Y-123373223D01*
X114543253Y-123391401D01*
X114557868Y-123411107D01*
X114570480Y-123432150D01*
X114580970Y-123454329D01*
X114589235Y-123477428D01*
X114595196Y-123501227D01*
X114598796Y-123525495D01*
X114600000Y-123549999D01*
X114600000Y-124450001D01*
X114598796Y-124474505D01*
X114595196Y-124498773D01*
X114589235Y-124522572D01*
X114580970Y-124545671D01*
X114570480Y-124567850D01*
X114557868Y-124588893D01*
X114543253Y-124608599D01*
X114526777Y-124626777D01*
X114508599Y-124643253D01*
X114488893Y-124657868D01*
X114467850Y-124670480D01*
X114445671Y-124680970D01*
X114422572Y-124689235D01*
X114398773Y-124695196D01*
X114374505Y-124698796D01*
X114350001Y-124700000D01*
X113699999Y-124700000D01*
X113675495Y-124698796D01*
X113651227Y-124695196D01*
X113627428Y-124689235D01*
X113604329Y-124680970D01*
X113582150Y-124670480D01*
X113561107Y-124657868D01*
X113541401Y-124643253D01*
X113523223Y-124626777D01*
X113506747Y-124608599D01*
X113492132Y-124588893D01*
X113479520Y-124567850D01*
X113469030Y-124545671D01*
X113460765Y-124522572D01*
X113454804Y-124498773D01*
X113451204Y-124474505D01*
X113450000Y-124450001D01*
X113450000Y-123549999D01*
X113451204Y-123525495D01*
X113454804Y-123501227D01*
X113460765Y-123477428D01*
X113469030Y-123454329D01*
X113479520Y-123432150D01*
X113492132Y-123411107D01*
X113506747Y-123391401D01*
X113523223Y-123373223D01*
X113541401Y-123356747D01*
X113561107Y-123342132D01*
X113582150Y-123329520D01*
X113604329Y-123319030D01*
X113627428Y-123310765D01*
X113651227Y-123304804D01*
X113675495Y-123301204D01*
X113699999Y-123300000D01*
X114350001Y-123300000D01*
X114374505Y-123301204D01*
X114374505Y-123301204D01*
G37*
D11*
X114025000Y-124000000D03*
D10*
G36*
X112324505Y-123301204D02*
G01*
X112348773Y-123304804D01*
X112372572Y-123310765D01*
X112395671Y-123319030D01*
X112417850Y-123329520D01*
X112438893Y-123342132D01*
X112458599Y-123356747D01*
X112476777Y-123373223D01*
X112493253Y-123391401D01*
X112507868Y-123411107D01*
X112520480Y-123432150D01*
X112530970Y-123454329D01*
X112539235Y-123477428D01*
X112545196Y-123501227D01*
X112548796Y-123525495D01*
X112550000Y-123549999D01*
X112550000Y-124450001D01*
X112548796Y-124474505D01*
X112545196Y-124498773D01*
X112539235Y-124522572D01*
X112530970Y-124545671D01*
X112520480Y-124567850D01*
X112507868Y-124588893D01*
X112493253Y-124608599D01*
X112476777Y-124626777D01*
X112458599Y-124643253D01*
X112438893Y-124657868D01*
X112417850Y-124670480D01*
X112395671Y-124680970D01*
X112372572Y-124689235D01*
X112348773Y-124695196D01*
X112324505Y-124698796D01*
X112300001Y-124700000D01*
X111649999Y-124700000D01*
X111625495Y-124698796D01*
X111601227Y-124695196D01*
X111577428Y-124689235D01*
X111554329Y-124680970D01*
X111532150Y-124670480D01*
X111511107Y-124657868D01*
X111491401Y-124643253D01*
X111473223Y-124626777D01*
X111456747Y-124608599D01*
X111442132Y-124588893D01*
X111429520Y-124567850D01*
X111419030Y-124545671D01*
X111410765Y-124522572D01*
X111404804Y-124498773D01*
X111401204Y-124474505D01*
X111400000Y-124450001D01*
X111400000Y-123549999D01*
X111401204Y-123525495D01*
X111404804Y-123501227D01*
X111410765Y-123477428D01*
X111419030Y-123454329D01*
X111429520Y-123432150D01*
X111442132Y-123411107D01*
X111456747Y-123391401D01*
X111473223Y-123373223D01*
X111491401Y-123356747D01*
X111511107Y-123342132D01*
X111532150Y-123329520D01*
X111554329Y-123319030D01*
X111577428Y-123310765D01*
X111601227Y-123304804D01*
X111625495Y-123301204D01*
X111649999Y-123300000D01*
X112300001Y-123300000D01*
X112324505Y-123301204D01*
X112324505Y-123301204D01*
G37*
D11*
X111975000Y-124000000D03*
D10*
G36*
X134374505Y-127301204D02*
G01*
X134398773Y-127304804D01*
X134422572Y-127310765D01*
X134445671Y-127319030D01*
X134467850Y-127329520D01*
X134488893Y-127342132D01*
X134508599Y-127356747D01*
X134526777Y-127373223D01*
X134543253Y-127391401D01*
X134557868Y-127411107D01*
X134570480Y-127432150D01*
X134580970Y-127454329D01*
X134589235Y-127477428D01*
X134595196Y-127501227D01*
X134598796Y-127525495D01*
X134600000Y-127549999D01*
X134600000Y-128450001D01*
X134598796Y-128474505D01*
X134595196Y-128498773D01*
X134589235Y-128522572D01*
X134580970Y-128545671D01*
X134570480Y-128567850D01*
X134557868Y-128588893D01*
X134543253Y-128608599D01*
X134526777Y-128626777D01*
X134508599Y-128643253D01*
X134488893Y-128657868D01*
X134467850Y-128670480D01*
X134445671Y-128680970D01*
X134422572Y-128689235D01*
X134398773Y-128695196D01*
X134374505Y-128698796D01*
X134350001Y-128700000D01*
X133699999Y-128700000D01*
X133675495Y-128698796D01*
X133651227Y-128695196D01*
X133627428Y-128689235D01*
X133604329Y-128680970D01*
X133582150Y-128670480D01*
X133561107Y-128657868D01*
X133541401Y-128643253D01*
X133523223Y-128626777D01*
X133506747Y-128608599D01*
X133492132Y-128588893D01*
X133479520Y-128567850D01*
X133469030Y-128545671D01*
X133460765Y-128522572D01*
X133454804Y-128498773D01*
X133451204Y-128474505D01*
X133450000Y-128450001D01*
X133450000Y-127549999D01*
X133451204Y-127525495D01*
X133454804Y-127501227D01*
X133460765Y-127477428D01*
X133469030Y-127454329D01*
X133479520Y-127432150D01*
X133492132Y-127411107D01*
X133506747Y-127391401D01*
X133523223Y-127373223D01*
X133541401Y-127356747D01*
X133561107Y-127342132D01*
X133582150Y-127329520D01*
X133604329Y-127319030D01*
X133627428Y-127310765D01*
X133651227Y-127304804D01*
X133675495Y-127301204D01*
X133699999Y-127300000D01*
X134350001Y-127300000D01*
X134374505Y-127301204D01*
X134374505Y-127301204D01*
G37*
D11*
X134025000Y-128000000D03*
D10*
G36*
X132324505Y-127301204D02*
G01*
X132348773Y-127304804D01*
X132372572Y-127310765D01*
X132395671Y-127319030D01*
X132417850Y-127329520D01*
X132438893Y-127342132D01*
X132458599Y-127356747D01*
X132476777Y-127373223D01*
X132493253Y-127391401D01*
X132507868Y-127411107D01*
X132520480Y-127432150D01*
X132530970Y-127454329D01*
X132539235Y-127477428D01*
X132545196Y-127501227D01*
X132548796Y-127525495D01*
X132550000Y-127549999D01*
X132550000Y-128450001D01*
X132548796Y-128474505D01*
X132545196Y-128498773D01*
X132539235Y-128522572D01*
X132530970Y-128545671D01*
X132520480Y-128567850D01*
X132507868Y-128588893D01*
X132493253Y-128608599D01*
X132476777Y-128626777D01*
X132458599Y-128643253D01*
X132438893Y-128657868D01*
X132417850Y-128670480D01*
X132395671Y-128680970D01*
X132372572Y-128689235D01*
X132348773Y-128695196D01*
X132324505Y-128698796D01*
X132300001Y-128700000D01*
X131649999Y-128700000D01*
X131625495Y-128698796D01*
X131601227Y-128695196D01*
X131577428Y-128689235D01*
X131554329Y-128680970D01*
X131532150Y-128670480D01*
X131511107Y-128657868D01*
X131491401Y-128643253D01*
X131473223Y-128626777D01*
X131456747Y-128608599D01*
X131442132Y-128588893D01*
X131429520Y-128567850D01*
X131419030Y-128545671D01*
X131410765Y-128522572D01*
X131404804Y-128498773D01*
X131401204Y-128474505D01*
X131400000Y-128450001D01*
X131400000Y-127549999D01*
X131401204Y-127525495D01*
X131404804Y-127501227D01*
X131410765Y-127477428D01*
X131419030Y-127454329D01*
X131429520Y-127432150D01*
X131442132Y-127411107D01*
X131456747Y-127391401D01*
X131473223Y-127373223D01*
X131491401Y-127356747D01*
X131511107Y-127342132D01*
X131532150Y-127329520D01*
X131554329Y-127319030D01*
X131577428Y-127310765D01*
X131601227Y-127304804D01*
X131625495Y-127301204D01*
X131649999Y-127300000D01*
X132300001Y-127300000D01*
X132324505Y-127301204D01*
X132324505Y-127301204D01*
G37*
D11*
X131975000Y-128000000D03*
D10*
G36*
X132324505Y-125301204D02*
G01*
X132348773Y-125304804D01*
X132372572Y-125310765D01*
X132395671Y-125319030D01*
X132417850Y-125329520D01*
X132438893Y-125342132D01*
X132458599Y-125356747D01*
X132476777Y-125373223D01*
X132493253Y-125391401D01*
X132507868Y-125411107D01*
X132520480Y-125432150D01*
X132530970Y-125454329D01*
X132539235Y-125477428D01*
X132545196Y-125501227D01*
X132548796Y-125525495D01*
X132550000Y-125549999D01*
X132550000Y-126450001D01*
X132548796Y-126474505D01*
X132545196Y-126498773D01*
X132539235Y-126522572D01*
X132530970Y-126545671D01*
X132520480Y-126567850D01*
X132507868Y-126588893D01*
X132493253Y-126608599D01*
X132476777Y-126626777D01*
X132458599Y-126643253D01*
X132438893Y-126657868D01*
X132417850Y-126670480D01*
X132395671Y-126680970D01*
X132372572Y-126689235D01*
X132348773Y-126695196D01*
X132324505Y-126698796D01*
X132300001Y-126700000D01*
X131649999Y-126700000D01*
X131625495Y-126698796D01*
X131601227Y-126695196D01*
X131577428Y-126689235D01*
X131554329Y-126680970D01*
X131532150Y-126670480D01*
X131511107Y-126657868D01*
X131491401Y-126643253D01*
X131473223Y-126626777D01*
X131456747Y-126608599D01*
X131442132Y-126588893D01*
X131429520Y-126567850D01*
X131419030Y-126545671D01*
X131410765Y-126522572D01*
X131404804Y-126498773D01*
X131401204Y-126474505D01*
X131400000Y-126450001D01*
X131400000Y-125549999D01*
X131401204Y-125525495D01*
X131404804Y-125501227D01*
X131410765Y-125477428D01*
X131419030Y-125454329D01*
X131429520Y-125432150D01*
X131442132Y-125411107D01*
X131456747Y-125391401D01*
X131473223Y-125373223D01*
X131491401Y-125356747D01*
X131511107Y-125342132D01*
X131532150Y-125329520D01*
X131554329Y-125319030D01*
X131577428Y-125310765D01*
X131601227Y-125304804D01*
X131625495Y-125301204D01*
X131649999Y-125300000D01*
X132300001Y-125300000D01*
X132324505Y-125301204D01*
X132324505Y-125301204D01*
G37*
D11*
X131975000Y-126000000D03*
D10*
G36*
X134374505Y-125301204D02*
G01*
X134398773Y-125304804D01*
X134422572Y-125310765D01*
X134445671Y-125319030D01*
X134467850Y-125329520D01*
X134488893Y-125342132D01*
X134508599Y-125356747D01*
X134526777Y-125373223D01*
X134543253Y-125391401D01*
X134557868Y-125411107D01*
X134570480Y-125432150D01*
X134580970Y-125454329D01*
X134589235Y-125477428D01*
X134595196Y-125501227D01*
X134598796Y-125525495D01*
X134600000Y-125549999D01*
X134600000Y-126450001D01*
X134598796Y-126474505D01*
X134595196Y-126498773D01*
X134589235Y-126522572D01*
X134580970Y-126545671D01*
X134570480Y-126567850D01*
X134557868Y-126588893D01*
X134543253Y-126608599D01*
X134526777Y-126626777D01*
X134508599Y-126643253D01*
X134488893Y-126657868D01*
X134467850Y-126670480D01*
X134445671Y-126680970D01*
X134422572Y-126689235D01*
X134398773Y-126695196D01*
X134374505Y-126698796D01*
X134350001Y-126700000D01*
X133699999Y-126700000D01*
X133675495Y-126698796D01*
X133651227Y-126695196D01*
X133627428Y-126689235D01*
X133604329Y-126680970D01*
X133582150Y-126670480D01*
X133561107Y-126657868D01*
X133541401Y-126643253D01*
X133523223Y-126626777D01*
X133506747Y-126608599D01*
X133492132Y-126588893D01*
X133479520Y-126567850D01*
X133469030Y-126545671D01*
X133460765Y-126522572D01*
X133454804Y-126498773D01*
X133451204Y-126474505D01*
X133450000Y-126450001D01*
X133450000Y-125549999D01*
X133451204Y-125525495D01*
X133454804Y-125501227D01*
X133460765Y-125477428D01*
X133469030Y-125454329D01*
X133479520Y-125432150D01*
X133492132Y-125411107D01*
X133506747Y-125391401D01*
X133523223Y-125373223D01*
X133541401Y-125356747D01*
X133561107Y-125342132D01*
X133582150Y-125329520D01*
X133604329Y-125319030D01*
X133627428Y-125310765D01*
X133651227Y-125304804D01*
X133675495Y-125301204D01*
X133699999Y-125300000D01*
X134350001Y-125300000D01*
X134374505Y-125301204D01*
X134374505Y-125301204D01*
G37*
D11*
X134025000Y-126000000D03*
D10*
G36*
X134374505Y-129301204D02*
G01*
X134398773Y-129304804D01*
X134422572Y-129310765D01*
X134445671Y-129319030D01*
X134467850Y-129329520D01*
X134488893Y-129342132D01*
X134508599Y-129356747D01*
X134526777Y-129373223D01*
X134543253Y-129391401D01*
X134557868Y-129411107D01*
X134570480Y-129432150D01*
X134580970Y-129454329D01*
X134589235Y-129477428D01*
X134595196Y-129501227D01*
X134598796Y-129525495D01*
X134600000Y-129549999D01*
X134600000Y-130450001D01*
X134598796Y-130474505D01*
X134595196Y-130498773D01*
X134589235Y-130522572D01*
X134580970Y-130545671D01*
X134570480Y-130567850D01*
X134557868Y-130588893D01*
X134543253Y-130608599D01*
X134526777Y-130626777D01*
X134508599Y-130643253D01*
X134488893Y-130657868D01*
X134467850Y-130670480D01*
X134445671Y-130680970D01*
X134422572Y-130689235D01*
X134398773Y-130695196D01*
X134374505Y-130698796D01*
X134350001Y-130700000D01*
X133699999Y-130700000D01*
X133675495Y-130698796D01*
X133651227Y-130695196D01*
X133627428Y-130689235D01*
X133604329Y-130680970D01*
X133582150Y-130670480D01*
X133561107Y-130657868D01*
X133541401Y-130643253D01*
X133523223Y-130626777D01*
X133506747Y-130608599D01*
X133492132Y-130588893D01*
X133479520Y-130567850D01*
X133469030Y-130545671D01*
X133460765Y-130522572D01*
X133454804Y-130498773D01*
X133451204Y-130474505D01*
X133450000Y-130450001D01*
X133450000Y-129549999D01*
X133451204Y-129525495D01*
X133454804Y-129501227D01*
X133460765Y-129477428D01*
X133469030Y-129454329D01*
X133479520Y-129432150D01*
X133492132Y-129411107D01*
X133506747Y-129391401D01*
X133523223Y-129373223D01*
X133541401Y-129356747D01*
X133561107Y-129342132D01*
X133582150Y-129329520D01*
X133604329Y-129319030D01*
X133627428Y-129310765D01*
X133651227Y-129304804D01*
X133675495Y-129301204D01*
X133699999Y-129300000D01*
X134350001Y-129300000D01*
X134374505Y-129301204D01*
X134374505Y-129301204D01*
G37*
D11*
X134025000Y-130000000D03*
D10*
G36*
X132324505Y-129301204D02*
G01*
X132348773Y-129304804D01*
X132372572Y-129310765D01*
X132395671Y-129319030D01*
X132417850Y-129329520D01*
X132438893Y-129342132D01*
X132458599Y-129356747D01*
X132476777Y-129373223D01*
X132493253Y-129391401D01*
X132507868Y-129411107D01*
X132520480Y-129432150D01*
X132530970Y-129454329D01*
X132539235Y-129477428D01*
X132545196Y-129501227D01*
X132548796Y-129525495D01*
X132550000Y-129549999D01*
X132550000Y-130450001D01*
X132548796Y-130474505D01*
X132545196Y-130498773D01*
X132539235Y-130522572D01*
X132530970Y-130545671D01*
X132520480Y-130567850D01*
X132507868Y-130588893D01*
X132493253Y-130608599D01*
X132476777Y-130626777D01*
X132458599Y-130643253D01*
X132438893Y-130657868D01*
X132417850Y-130670480D01*
X132395671Y-130680970D01*
X132372572Y-130689235D01*
X132348773Y-130695196D01*
X132324505Y-130698796D01*
X132300001Y-130700000D01*
X131649999Y-130700000D01*
X131625495Y-130698796D01*
X131601227Y-130695196D01*
X131577428Y-130689235D01*
X131554329Y-130680970D01*
X131532150Y-130670480D01*
X131511107Y-130657868D01*
X131491401Y-130643253D01*
X131473223Y-130626777D01*
X131456747Y-130608599D01*
X131442132Y-130588893D01*
X131429520Y-130567850D01*
X131419030Y-130545671D01*
X131410765Y-130522572D01*
X131404804Y-130498773D01*
X131401204Y-130474505D01*
X131400000Y-130450001D01*
X131400000Y-129549999D01*
X131401204Y-129525495D01*
X131404804Y-129501227D01*
X131410765Y-129477428D01*
X131419030Y-129454329D01*
X131429520Y-129432150D01*
X131442132Y-129411107D01*
X131456747Y-129391401D01*
X131473223Y-129373223D01*
X131491401Y-129356747D01*
X131511107Y-129342132D01*
X131532150Y-129329520D01*
X131554329Y-129319030D01*
X131577428Y-129310765D01*
X131601227Y-129304804D01*
X131625495Y-129301204D01*
X131649999Y-129300000D01*
X132300001Y-129300000D01*
X132324505Y-129301204D01*
X132324505Y-129301204D01*
G37*
D11*
X131975000Y-130000000D03*
D10*
G36*
X127324505Y-134301204D02*
G01*
X127348773Y-134304804D01*
X127372572Y-134310765D01*
X127395671Y-134319030D01*
X127417850Y-134329520D01*
X127438893Y-134342132D01*
X127458599Y-134356747D01*
X127476777Y-134373223D01*
X127493253Y-134391401D01*
X127507868Y-134411107D01*
X127520480Y-134432150D01*
X127530970Y-134454329D01*
X127539235Y-134477428D01*
X127545196Y-134501227D01*
X127548796Y-134525495D01*
X127550000Y-134549999D01*
X127550000Y-135450001D01*
X127548796Y-135474505D01*
X127545196Y-135498773D01*
X127539235Y-135522572D01*
X127530970Y-135545671D01*
X127520480Y-135567850D01*
X127507868Y-135588893D01*
X127493253Y-135608599D01*
X127476777Y-135626777D01*
X127458599Y-135643253D01*
X127438893Y-135657868D01*
X127417850Y-135670480D01*
X127395671Y-135680970D01*
X127372572Y-135689235D01*
X127348773Y-135695196D01*
X127324505Y-135698796D01*
X127300001Y-135700000D01*
X126649999Y-135700000D01*
X126625495Y-135698796D01*
X126601227Y-135695196D01*
X126577428Y-135689235D01*
X126554329Y-135680970D01*
X126532150Y-135670480D01*
X126511107Y-135657868D01*
X126491401Y-135643253D01*
X126473223Y-135626777D01*
X126456747Y-135608599D01*
X126442132Y-135588893D01*
X126429520Y-135567850D01*
X126419030Y-135545671D01*
X126410765Y-135522572D01*
X126404804Y-135498773D01*
X126401204Y-135474505D01*
X126400000Y-135450001D01*
X126400000Y-134549999D01*
X126401204Y-134525495D01*
X126404804Y-134501227D01*
X126410765Y-134477428D01*
X126419030Y-134454329D01*
X126429520Y-134432150D01*
X126442132Y-134411107D01*
X126456747Y-134391401D01*
X126473223Y-134373223D01*
X126491401Y-134356747D01*
X126511107Y-134342132D01*
X126532150Y-134329520D01*
X126554329Y-134319030D01*
X126577428Y-134310765D01*
X126601227Y-134304804D01*
X126625495Y-134301204D01*
X126649999Y-134300000D01*
X127300001Y-134300000D01*
X127324505Y-134301204D01*
X127324505Y-134301204D01*
G37*
D11*
X126975000Y-135000000D03*
D10*
G36*
X129374505Y-134301204D02*
G01*
X129398773Y-134304804D01*
X129422572Y-134310765D01*
X129445671Y-134319030D01*
X129467850Y-134329520D01*
X129488893Y-134342132D01*
X129508599Y-134356747D01*
X129526777Y-134373223D01*
X129543253Y-134391401D01*
X129557868Y-134411107D01*
X129570480Y-134432150D01*
X129580970Y-134454329D01*
X129589235Y-134477428D01*
X129595196Y-134501227D01*
X129598796Y-134525495D01*
X129600000Y-134549999D01*
X129600000Y-135450001D01*
X129598796Y-135474505D01*
X129595196Y-135498773D01*
X129589235Y-135522572D01*
X129580970Y-135545671D01*
X129570480Y-135567850D01*
X129557868Y-135588893D01*
X129543253Y-135608599D01*
X129526777Y-135626777D01*
X129508599Y-135643253D01*
X129488893Y-135657868D01*
X129467850Y-135670480D01*
X129445671Y-135680970D01*
X129422572Y-135689235D01*
X129398773Y-135695196D01*
X129374505Y-135698796D01*
X129350001Y-135700000D01*
X128699999Y-135700000D01*
X128675495Y-135698796D01*
X128651227Y-135695196D01*
X128627428Y-135689235D01*
X128604329Y-135680970D01*
X128582150Y-135670480D01*
X128561107Y-135657868D01*
X128541401Y-135643253D01*
X128523223Y-135626777D01*
X128506747Y-135608599D01*
X128492132Y-135588893D01*
X128479520Y-135567850D01*
X128469030Y-135545671D01*
X128460765Y-135522572D01*
X128454804Y-135498773D01*
X128451204Y-135474505D01*
X128450000Y-135450001D01*
X128450000Y-134549999D01*
X128451204Y-134525495D01*
X128454804Y-134501227D01*
X128460765Y-134477428D01*
X128469030Y-134454329D01*
X128479520Y-134432150D01*
X128492132Y-134411107D01*
X128506747Y-134391401D01*
X128523223Y-134373223D01*
X128541401Y-134356747D01*
X128561107Y-134342132D01*
X128582150Y-134329520D01*
X128604329Y-134319030D01*
X128627428Y-134310765D01*
X128651227Y-134304804D01*
X128675495Y-134301204D01*
X128699999Y-134300000D01*
X129350001Y-134300000D01*
X129374505Y-134301204D01*
X129374505Y-134301204D01*
G37*
D11*
X129025000Y-135000000D03*
D10*
G36*
X129374505Y-119301204D02*
G01*
X129398773Y-119304804D01*
X129422572Y-119310765D01*
X129445671Y-119319030D01*
X129467850Y-119329520D01*
X129488893Y-119342132D01*
X129508599Y-119356747D01*
X129526777Y-119373223D01*
X129543253Y-119391401D01*
X129557868Y-119411107D01*
X129570480Y-119432150D01*
X129580970Y-119454329D01*
X129589235Y-119477428D01*
X129595196Y-119501227D01*
X129598796Y-119525495D01*
X129600000Y-119549999D01*
X129600000Y-120450001D01*
X129598796Y-120474505D01*
X129595196Y-120498773D01*
X129589235Y-120522572D01*
X129580970Y-120545671D01*
X129570480Y-120567850D01*
X129557868Y-120588893D01*
X129543253Y-120608599D01*
X129526777Y-120626777D01*
X129508599Y-120643253D01*
X129488893Y-120657868D01*
X129467850Y-120670480D01*
X129445671Y-120680970D01*
X129422572Y-120689235D01*
X129398773Y-120695196D01*
X129374505Y-120698796D01*
X129350001Y-120700000D01*
X128699999Y-120700000D01*
X128675495Y-120698796D01*
X128651227Y-120695196D01*
X128627428Y-120689235D01*
X128604329Y-120680970D01*
X128582150Y-120670480D01*
X128561107Y-120657868D01*
X128541401Y-120643253D01*
X128523223Y-120626777D01*
X128506747Y-120608599D01*
X128492132Y-120588893D01*
X128479520Y-120567850D01*
X128469030Y-120545671D01*
X128460765Y-120522572D01*
X128454804Y-120498773D01*
X128451204Y-120474505D01*
X128450000Y-120450001D01*
X128450000Y-119549999D01*
X128451204Y-119525495D01*
X128454804Y-119501227D01*
X128460765Y-119477428D01*
X128469030Y-119454329D01*
X128479520Y-119432150D01*
X128492132Y-119411107D01*
X128506747Y-119391401D01*
X128523223Y-119373223D01*
X128541401Y-119356747D01*
X128561107Y-119342132D01*
X128582150Y-119329520D01*
X128604329Y-119319030D01*
X128627428Y-119310765D01*
X128651227Y-119304804D01*
X128675495Y-119301204D01*
X128699999Y-119300000D01*
X129350001Y-119300000D01*
X129374505Y-119301204D01*
X129374505Y-119301204D01*
G37*
D11*
X129025000Y-120000000D03*
D10*
G36*
X127324505Y-119301204D02*
G01*
X127348773Y-119304804D01*
X127372572Y-119310765D01*
X127395671Y-119319030D01*
X127417850Y-119329520D01*
X127438893Y-119342132D01*
X127458599Y-119356747D01*
X127476777Y-119373223D01*
X127493253Y-119391401D01*
X127507868Y-119411107D01*
X127520480Y-119432150D01*
X127530970Y-119454329D01*
X127539235Y-119477428D01*
X127545196Y-119501227D01*
X127548796Y-119525495D01*
X127550000Y-119549999D01*
X127550000Y-120450001D01*
X127548796Y-120474505D01*
X127545196Y-120498773D01*
X127539235Y-120522572D01*
X127530970Y-120545671D01*
X127520480Y-120567850D01*
X127507868Y-120588893D01*
X127493253Y-120608599D01*
X127476777Y-120626777D01*
X127458599Y-120643253D01*
X127438893Y-120657868D01*
X127417850Y-120670480D01*
X127395671Y-120680970D01*
X127372572Y-120689235D01*
X127348773Y-120695196D01*
X127324505Y-120698796D01*
X127300001Y-120700000D01*
X126649999Y-120700000D01*
X126625495Y-120698796D01*
X126601227Y-120695196D01*
X126577428Y-120689235D01*
X126554329Y-120680970D01*
X126532150Y-120670480D01*
X126511107Y-120657868D01*
X126491401Y-120643253D01*
X126473223Y-120626777D01*
X126456747Y-120608599D01*
X126442132Y-120588893D01*
X126429520Y-120567850D01*
X126419030Y-120545671D01*
X126410765Y-120522572D01*
X126404804Y-120498773D01*
X126401204Y-120474505D01*
X126400000Y-120450001D01*
X126400000Y-119549999D01*
X126401204Y-119525495D01*
X126404804Y-119501227D01*
X126410765Y-119477428D01*
X126419030Y-119454329D01*
X126429520Y-119432150D01*
X126442132Y-119411107D01*
X126456747Y-119391401D01*
X126473223Y-119373223D01*
X126491401Y-119356747D01*
X126511107Y-119342132D01*
X126532150Y-119329520D01*
X126554329Y-119319030D01*
X126577428Y-119310765D01*
X126601227Y-119304804D01*
X126625495Y-119301204D01*
X126649999Y-119300000D01*
X127300001Y-119300000D01*
X127324505Y-119301204D01*
X127324505Y-119301204D01*
G37*
D11*
X126975000Y-120000000D03*
D12*
X125225000Y-124400000D03*
X124575000Y-124400000D03*
X123925000Y-124400000D03*
X123275000Y-124400000D03*
X122625000Y-124400000D03*
X121975000Y-124400000D03*
X121325000Y-124400000D03*
X120675000Y-124400000D03*
X120025000Y-124400000D03*
X119375000Y-124400000D03*
X118725000Y-124400000D03*
X118075000Y-124400000D03*
X117425000Y-124400000D03*
X116775000Y-124400000D03*
X116775000Y-131600000D03*
X117425000Y-131600000D03*
X118075000Y-131600000D03*
X118725000Y-131600000D03*
X119375000Y-131600000D03*
X120025000Y-131600000D03*
X120675000Y-131600000D03*
X121325000Y-131600000D03*
X121975000Y-131600000D03*
X122625000Y-131600000D03*
X123275000Y-131600000D03*
X123925000Y-131600000D03*
X124575000Y-131600000D03*
X125225000Y-131600000D03*
D13*
X131850000Y-132730000D03*
X138150000Y-135270000D03*
X131850000Y-135270000D03*
X138150000Y-132730000D03*
X138150000Y-119730000D03*
X131850000Y-122270000D03*
X138150000Y-122270000D03*
X131850000Y-119730000D03*
M02*
