G04 #@! TF.GenerationSoftware,KiCad,Pcbnew,5.1.4-e60b266~84~ubuntu19.04.1*
G04 #@! TF.CreationDate,2019-09-06T13:47:56+02:00*
G04 #@! TF.ProjectId,keyer,6b657965-722e-46b6-9963-61645f706362,rev?*
G04 #@! TF.SameCoordinates,Original*
G04 #@! TF.FileFunction,Soldermask,Top*
G04 #@! TF.FilePolarity,Negative*
%FSLAX46Y46*%
G04 Gerber Fmt 4.6, Leading zero omitted, Abs format (unit mm)*
G04 Created by KiCad (PCBNEW 5.1.4-e60b266~84~ubuntu19.04.1) date 2019-09-06 13:47:56*
%MOMM*%
%LPD*%
G04 APERTURE LIST*
%ADD10C,0.100000*%
G04 APERTURE END LIST*
D10*
G36*
X119488674Y-135253465D02*
G01*
X119526367Y-135264899D01*
X119561103Y-135283466D01*
X119591548Y-135308452D01*
X119616534Y-135338897D01*
X119635101Y-135373633D01*
X119646535Y-135411326D01*
X119651000Y-135456661D01*
X119651000Y-136543339D01*
X119646535Y-136588674D01*
X119635101Y-136626367D01*
X119616534Y-136661103D01*
X119591548Y-136691548D01*
X119561103Y-136716534D01*
X119526367Y-136735101D01*
X119488674Y-136746535D01*
X119443339Y-136751000D01*
X118606661Y-136751000D01*
X118561326Y-136746535D01*
X118523633Y-136735101D01*
X118488897Y-136716534D01*
X118458452Y-136691548D01*
X118433466Y-136661103D01*
X118414899Y-136626367D01*
X118403465Y-136588674D01*
X118399000Y-136543339D01*
X118399000Y-135456661D01*
X118403465Y-135411326D01*
X118414899Y-135373633D01*
X118433466Y-135338897D01*
X118458452Y-135308452D01*
X118488897Y-135283466D01*
X118523633Y-135264899D01*
X118561326Y-135253465D01*
X118606661Y-135249000D01*
X119443339Y-135249000D01*
X119488674Y-135253465D01*
X119488674Y-135253465D01*
G37*
G36*
X117438674Y-135253465D02*
G01*
X117476367Y-135264899D01*
X117511103Y-135283466D01*
X117541548Y-135308452D01*
X117566534Y-135338897D01*
X117585101Y-135373633D01*
X117596535Y-135411326D01*
X117601000Y-135456661D01*
X117601000Y-136543339D01*
X117596535Y-136588674D01*
X117585101Y-136626367D01*
X117566534Y-136661103D01*
X117541548Y-136691548D01*
X117511103Y-136716534D01*
X117476367Y-136735101D01*
X117438674Y-136746535D01*
X117393339Y-136751000D01*
X116556661Y-136751000D01*
X116511326Y-136746535D01*
X116473633Y-136735101D01*
X116438897Y-136716534D01*
X116408452Y-136691548D01*
X116383466Y-136661103D01*
X116364899Y-136626367D01*
X116353465Y-136588674D01*
X116349000Y-136543339D01*
X116349000Y-135456661D01*
X116353465Y-135411326D01*
X116364899Y-135373633D01*
X116383466Y-135338897D01*
X116408452Y-135308452D01*
X116438897Y-135283466D01*
X116473633Y-135264899D01*
X116511326Y-135253465D01*
X116556661Y-135249000D01*
X117393339Y-135249000D01*
X117438674Y-135253465D01*
X117438674Y-135253465D01*
G37*
G36*
X142110442Y-134645518D02*
G01*
X142176627Y-134652037D01*
X142346466Y-134703557D01*
X142502991Y-134787222D01*
X142538729Y-134816552D01*
X142640186Y-134899814D01*
X142723448Y-135001271D01*
X142752778Y-135037009D01*
X142836443Y-135193534D01*
X142887963Y-135363373D01*
X142905359Y-135540000D01*
X142887963Y-135716627D01*
X142836443Y-135886466D01*
X142752778Y-136042991D01*
X142723448Y-136078729D01*
X142640186Y-136180186D01*
X142538729Y-136263448D01*
X142502991Y-136292778D01*
X142346466Y-136376443D01*
X142176627Y-136427963D01*
X142110443Y-136434481D01*
X142044260Y-136441000D01*
X141955740Y-136441000D01*
X141889557Y-136434481D01*
X141823373Y-136427963D01*
X141653534Y-136376443D01*
X141497009Y-136292778D01*
X141461271Y-136263448D01*
X141359814Y-136180186D01*
X141276552Y-136078729D01*
X141247222Y-136042991D01*
X141163557Y-135886466D01*
X141112037Y-135716627D01*
X141094641Y-135540000D01*
X141112037Y-135363373D01*
X141163557Y-135193534D01*
X141247222Y-135037009D01*
X141276552Y-135001271D01*
X141359814Y-134899814D01*
X141461271Y-134816552D01*
X141497009Y-134787222D01*
X141653534Y-134703557D01*
X141823373Y-134652037D01*
X141889558Y-134645518D01*
X141955740Y-134639000D01*
X142044260Y-134639000D01*
X142110442Y-134645518D01*
X142110442Y-134645518D01*
G37*
G36*
X127438674Y-134253465D02*
G01*
X127476367Y-134264899D01*
X127511103Y-134283466D01*
X127541548Y-134308452D01*
X127566534Y-134338897D01*
X127585101Y-134373633D01*
X127596535Y-134411326D01*
X127601000Y-134456661D01*
X127601000Y-135543339D01*
X127596535Y-135588674D01*
X127585101Y-135626367D01*
X127566534Y-135661103D01*
X127541548Y-135691548D01*
X127511103Y-135716534D01*
X127476367Y-135735101D01*
X127438674Y-135746535D01*
X127393339Y-135751000D01*
X126556661Y-135751000D01*
X126511326Y-135746535D01*
X126473633Y-135735101D01*
X126438897Y-135716534D01*
X126408452Y-135691548D01*
X126383466Y-135661103D01*
X126364899Y-135626367D01*
X126353465Y-135588674D01*
X126349000Y-135543339D01*
X126349000Y-134456661D01*
X126353465Y-134411326D01*
X126364899Y-134373633D01*
X126383466Y-134338897D01*
X126408452Y-134308452D01*
X126438897Y-134283466D01*
X126473633Y-134264899D01*
X126511326Y-134253465D01*
X126556661Y-134249000D01*
X127393339Y-134249000D01*
X127438674Y-134253465D01*
X127438674Y-134253465D01*
G37*
G36*
X129488674Y-134253465D02*
G01*
X129526367Y-134264899D01*
X129561103Y-134283466D01*
X129591548Y-134308452D01*
X129616534Y-134338897D01*
X129635101Y-134373633D01*
X129646535Y-134411326D01*
X129651000Y-134456661D01*
X129651000Y-135543339D01*
X129646535Y-135588674D01*
X129635101Y-135626367D01*
X129616534Y-135661103D01*
X129591548Y-135691548D01*
X129561103Y-135716534D01*
X129526367Y-135735101D01*
X129488674Y-135746535D01*
X129443339Y-135751000D01*
X128606661Y-135751000D01*
X128561326Y-135746535D01*
X128523633Y-135735101D01*
X128488897Y-135716534D01*
X128458452Y-135691548D01*
X128433466Y-135661103D01*
X128414899Y-135626367D01*
X128403465Y-135588674D01*
X128399000Y-135543339D01*
X128399000Y-134456661D01*
X128403465Y-134411326D01*
X128414899Y-134373633D01*
X128433466Y-134338897D01*
X128458452Y-134308452D01*
X128488897Y-134283466D01*
X128523633Y-134264899D01*
X128561326Y-134253465D01*
X128606661Y-134249000D01*
X129443339Y-134249000D01*
X129488674Y-134253465D01*
X129488674Y-134253465D01*
G37*
G36*
X138801000Y-135721000D02*
G01*
X137499000Y-135721000D01*
X137499000Y-134819000D01*
X138801000Y-134819000D01*
X138801000Y-135721000D01*
X138801000Y-135721000D01*
G37*
G36*
X132501000Y-135721000D02*
G01*
X131199000Y-135721000D01*
X131199000Y-134819000D01*
X132501000Y-134819000D01*
X132501000Y-135721000D01*
X132501000Y-135721000D01*
G37*
G36*
X107518039Y-131792250D02*
G01*
X107707372Y-131870675D01*
X107841251Y-131926129D01*
X108132134Y-132120491D01*
X108379509Y-132367866D01*
X108573871Y-132658749D01*
X108573871Y-132658750D01*
X108707750Y-132981961D01*
X108776000Y-133325078D01*
X108776000Y-133674922D01*
X108707750Y-134018039D01*
X108629325Y-134207372D01*
X108573871Y-134341251D01*
X108379509Y-134632134D01*
X108132134Y-134879509D01*
X107841251Y-135073871D01*
X107707372Y-135129325D01*
X107518039Y-135207750D01*
X107174922Y-135276000D01*
X106825078Y-135276000D01*
X106481961Y-135207750D01*
X106292628Y-135129325D01*
X106158749Y-135073871D01*
X105867866Y-134879509D01*
X105620491Y-134632134D01*
X105426129Y-134341251D01*
X105370675Y-134207372D01*
X105292250Y-134018039D01*
X105224000Y-133674922D01*
X105224000Y-133325078D01*
X105292250Y-132981961D01*
X105426129Y-132658750D01*
X105426129Y-132658749D01*
X105620491Y-132367866D01*
X105867866Y-132120491D01*
X106158749Y-131926129D01*
X106292628Y-131870675D01*
X106481961Y-131792250D01*
X106825078Y-131724000D01*
X107174922Y-131724000D01*
X107518039Y-131792250D01*
X107518039Y-131792250D01*
G37*
G36*
X142901000Y-133901000D02*
G01*
X141099000Y-133901000D01*
X141099000Y-132099000D01*
X142901000Y-132099000D01*
X142901000Y-133901000D01*
X142901000Y-133901000D01*
G37*
G36*
X138801000Y-133181000D02*
G01*
X137499000Y-133181000D01*
X137499000Y-132279000D01*
X138801000Y-132279000D01*
X138801000Y-133181000D01*
X138801000Y-133181000D01*
G37*
G36*
X132501000Y-133181000D02*
G01*
X131199000Y-133181000D01*
X131199000Y-132279000D01*
X132501000Y-132279000D01*
X132501000Y-133181000D01*
X132501000Y-133181000D01*
G37*
G36*
X125501000Y-132526000D02*
G01*
X116499000Y-132526000D01*
X116499000Y-130674000D01*
X125501000Y-130674000D01*
X125501000Y-132526000D01*
X125501000Y-132526000D01*
G37*
G36*
X109223579Y-130262955D02*
G01*
X109363072Y-130320735D01*
X109363074Y-130320736D01*
X109488615Y-130404620D01*
X109595380Y-130511385D01*
X109674662Y-130630038D01*
X109679265Y-130636928D01*
X109737045Y-130776421D01*
X109766500Y-130924504D01*
X109766500Y-131075496D01*
X109737045Y-131223579D01*
X109679265Y-131363072D01*
X109679264Y-131363074D01*
X109595380Y-131488615D01*
X109488615Y-131595380D01*
X109363074Y-131679264D01*
X109363073Y-131679265D01*
X109363072Y-131679265D01*
X109223579Y-131737045D01*
X109075496Y-131766500D01*
X108924504Y-131766500D01*
X108776421Y-131737045D01*
X108636928Y-131679265D01*
X108636927Y-131679265D01*
X108636926Y-131679264D01*
X108511385Y-131595380D01*
X108404620Y-131488615D01*
X108320736Y-131363074D01*
X108320735Y-131363072D01*
X108262955Y-131223579D01*
X108233500Y-131075496D01*
X108233500Y-130924504D01*
X108262955Y-130776421D01*
X108320735Y-130636928D01*
X108325339Y-130630038D01*
X108404620Y-130511385D01*
X108511385Y-130404620D01*
X108636926Y-130320736D01*
X108636928Y-130320735D01*
X108776421Y-130262955D01*
X108924504Y-130233500D01*
X109075496Y-130233500D01*
X109223579Y-130262955D01*
X109223579Y-130262955D01*
G37*
G36*
X132438674Y-129253465D02*
G01*
X132476367Y-129264899D01*
X132511103Y-129283466D01*
X132541548Y-129308452D01*
X132566534Y-129338897D01*
X132585101Y-129373633D01*
X132596535Y-129411326D01*
X132601000Y-129456661D01*
X132601000Y-130543339D01*
X132596535Y-130588674D01*
X132585101Y-130626367D01*
X132566534Y-130661103D01*
X132541548Y-130691548D01*
X132511103Y-130716534D01*
X132476367Y-130735101D01*
X132438674Y-130746535D01*
X132393339Y-130751000D01*
X131556661Y-130751000D01*
X131511326Y-130746535D01*
X131473633Y-130735101D01*
X131438897Y-130716534D01*
X131408452Y-130691548D01*
X131383466Y-130661103D01*
X131364899Y-130626367D01*
X131353465Y-130588674D01*
X131349000Y-130543339D01*
X131349000Y-129456661D01*
X131353465Y-129411326D01*
X131364899Y-129373633D01*
X131383466Y-129338897D01*
X131408452Y-129308452D01*
X131438897Y-129283466D01*
X131473633Y-129264899D01*
X131511326Y-129253465D01*
X131556661Y-129249000D01*
X132393339Y-129249000D01*
X132438674Y-129253465D01*
X132438674Y-129253465D01*
G37*
G36*
X134488674Y-129253465D02*
G01*
X134526367Y-129264899D01*
X134561103Y-129283466D01*
X134591548Y-129308452D01*
X134616534Y-129338897D01*
X134635101Y-129373633D01*
X134646535Y-129411326D01*
X134651000Y-129456661D01*
X134651000Y-130543339D01*
X134646535Y-130588674D01*
X134635101Y-130626367D01*
X134616534Y-130661103D01*
X134591548Y-130691548D01*
X134561103Y-130716534D01*
X134526367Y-130735101D01*
X134488674Y-130746535D01*
X134443339Y-130751000D01*
X133606661Y-130751000D01*
X133561326Y-130746535D01*
X133523633Y-130735101D01*
X133488897Y-130716534D01*
X133458452Y-130691548D01*
X133433466Y-130661103D01*
X133414899Y-130626367D01*
X133403465Y-130588674D01*
X133399000Y-130543339D01*
X133399000Y-129456661D01*
X133403465Y-129411326D01*
X133414899Y-129373633D01*
X133433466Y-129338897D01*
X133458452Y-129308452D01*
X133488897Y-129283466D01*
X133523633Y-129264899D01*
X133561326Y-129253465D01*
X133606661Y-129249000D01*
X134443339Y-129249000D01*
X134488674Y-129253465D01*
X134488674Y-129253465D01*
G37*
G36*
X136438674Y-129253465D02*
G01*
X136476367Y-129264899D01*
X136511103Y-129283466D01*
X136541548Y-129308452D01*
X136566534Y-129338897D01*
X136585101Y-129373633D01*
X136596535Y-129411326D01*
X136601000Y-129456661D01*
X136601000Y-130543339D01*
X136596535Y-130588674D01*
X136585101Y-130626367D01*
X136566534Y-130661103D01*
X136541548Y-130691548D01*
X136511103Y-130716534D01*
X136476367Y-130735101D01*
X136438674Y-130746535D01*
X136393339Y-130751000D01*
X135556661Y-130751000D01*
X135511326Y-130746535D01*
X135473633Y-130735101D01*
X135438897Y-130716534D01*
X135408452Y-130691548D01*
X135383466Y-130661103D01*
X135364899Y-130626367D01*
X135353465Y-130588674D01*
X135349000Y-130543339D01*
X135349000Y-129456661D01*
X135353465Y-129411326D01*
X135364899Y-129373633D01*
X135383466Y-129338897D01*
X135408452Y-129308452D01*
X135438897Y-129283466D01*
X135473633Y-129264899D01*
X135511326Y-129253465D01*
X135556661Y-129249000D01*
X136393339Y-129249000D01*
X136438674Y-129253465D01*
X136438674Y-129253465D01*
G37*
G36*
X138488674Y-129253465D02*
G01*
X138526367Y-129264899D01*
X138561103Y-129283466D01*
X138591548Y-129308452D01*
X138616534Y-129338897D01*
X138635101Y-129373633D01*
X138646535Y-129411326D01*
X138651000Y-129456661D01*
X138651000Y-130543339D01*
X138646535Y-130588674D01*
X138635101Y-130626367D01*
X138616534Y-130661103D01*
X138591548Y-130691548D01*
X138561103Y-130716534D01*
X138526367Y-130735101D01*
X138488674Y-130746535D01*
X138443339Y-130751000D01*
X137606661Y-130751000D01*
X137561326Y-130746535D01*
X137523633Y-130735101D01*
X137488897Y-130716534D01*
X137458452Y-130691548D01*
X137433466Y-130661103D01*
X137414899Y-130626367D01*
X137403465Y-130588674D01*
X137399000Y-130543339D01*
X137399000Y-129456661D01*
X137403465Y-129411326D01*
X137414899Y-129373633D01*
X137433466Y-129338897D01*
X137458452Y-129308452D01*
X137488897Y-129283466D01*
X137523633Y-129264899D01*
X137561326Y-129253465D01*
X137606661Y-129249000D01*
X138443339Y-129249000D01*
X138488674Y-129253465D01*
X138488674Y-129253465D01*
G37*
G36*
X107233642Y-128979781D02*
G01*
X107379414Y-129040162D01*
X107379416Y-129040163D01*
X107510608Y-129127822D01*
X107622178Y-129239392D01*
X107709421Y-129369962D01*
X107709838Y-129370586D01*
X107770219Y-129516358D01*
X107801000Y-129671107D01*
X107801000Y-129828893D01*
X107770219Y-129983642D01*
X107709838Y-130129414D01*
X107709837Y-130129416D01*
X107622178Y-130260608D01*
X107510608Y-130372178D01*
X107379416Y-130459837D01*
X107379415Y-130459838D01*
X107379414Y-130459838D01*
X107233642Y-130520219D01*
X107078893Y-130551000D01*
X106921107Y-130551000D01*
X106766358Y-130520219D01*
X106620586Y-130459838D01*
X106620585Y-130459838D01*
X106620584Y-130459837D01*
X106489392Y-130372178D01*
X106377822Y-130260608D01*
X106290163Y-130129416D01*
X106290162Y-130129414D01*
X106229781Y-129983642D01*
X106199000Y-129828893D01*
X106199000Y-129671107D01*
X106229781Y-129516358D01*
X106290162Y-129370586D01*
X106290579Y-129369962D01*
X106377822Y-129239392D01*
X106489392Y-129127822D01*
X106620584Y-129040163D01*
X106620586Y-129040162D01*
X106766358Y-128979781D01*
X106921107Y-128949000D01*
X107078893Y-128949000D01*
X107233642Y-128979781D01*
X107233642Y-128979781D01*
G37*
G36*
X109223579Y-127762955D02*
G01*
X109363072Y-127820735D01*
X109363074Y-127820736D01*
X109488615Y-127904620D01*
X109595380Y-128011385D01*
X109679265Y-128136928D01*
X109737045Y-128276421D01*
X109766500Y-128424504D01*
X109766500Y-128575496D01*
X109737045Y-128723579D01*
X109679265Y-128863072D01*
X109679264Y-128863074D01*
X109595380Y-128988615D01*
X109488615Y-129095380D01*
X109363074Y-129179264D01*
X109363073Y-129179265D01*
X109363072Y-129179265D01*
X109223579Y-129237045D01*
X109075496Y-129266500D01*
X108924504Y-129266500D01*
X108776421Y-129237045D01*
X108636928Y-129179265D01*
X108636927Y-129179265D01*
X108636926Y-129179264D01*
X108511385Y-129095380D01*
X108404620Y-128988615D01*
X108320736Y-128863074D01*
X108320735Y-128863072D01*
X108262955Y-128723579D01*
X108233500Y-128575496D01*
X108233500Y-128424504D01*
X108262955Y-128276421D01*
X108320735Y-128136928D01*
X108404620Y-128011385D01*
X108511385Y-127904620D01*
X108636926Y-127820736D01*
X108636928Y-127820735D01*
X108776421Y-127762955D01*
X108924504Y-127733500D01*
X109075496Y-127733500D01*
X109223579Y-127762955D01*
X109223579Y-127762955D01*
G37*
G36*
X138488674Y-127253465D02*
G01*
X138526367Y-127264899D01*
X138561103Y-127283466D01*
X138591548Y-127308452D01*
X138616534Y-127338897D01*
X138635101Y-127373633D01*
X138646535Y-127411326D01*
X138651000Y-127456661D01*
X138651000Y-128543339D01*
X138646535Y-128588674D01*
X138635101Y-128626367D01*
X138616534Y-128661103D01*
X138591548Y-128691548D01*
X138561103Y-128716534D01*
X138526367Y-128735101D01*
X138488674Y-128746535D01*
X138443339Y-128751000D01*
X137606661Y-128751000D01*
X137561326Y-128746535D01*
X137523633Y-128735101D01*
X137488897Y-128716534D01*
X137458452Y-128691548D01*
X137433466Y-128661103D01*
X137414899Y-128626367D01*
X137403465Y-128588674D01*
X137399000Y-128543339D01*
X137399000Y-127456661D01*
X137403465Y-127411326D01*
X137414899Y-127373633D01*
X137433466Y-127338897D01*
X137458452Y-127308452D01*
X137488897Y-127283466D01*
X137523633Y-127264899D01*
X137561326Y-127253465D01*
X137606661Y-127249000D01*
X138443339Y-127249000D01*
X138488674Y-127253465D01*
X138488674Y-127253465D01*
G37*
G36*
X136438674Y-127253465D02*
G01*
X136476367Y-127264899D01*
X136511103Y-127283466D01*
X136541548Y-127308452D01*
X136566534Y-127338897D01*
X136585101Y-127373633D01*
X136596535Y-127411326D01*
X136601000Y-127456661D01*
X136601000Y-128543339D01*
X136596535Y-128588674D01*
X136585101Y-128626367D01*
X136566534Y-128661103D01*
X136541548Y-128691548D01*
X136511103Y-128716534D01*
X136476367Y-128735101D01*
X136438674Y-128746535D01*
X136393339Y-128751000D01*
X135556661Y-128751000D01*
X135511326Y-128746535D01*
X135473633Y-128735101D01*
X135438897Y-128716534D01*
X135408452Y-128691548D01*
X135383466Y-128661103D01*
X135364899Y-128626367D01*
X135353465Y-128588674D01*
X135349000Y-128543339D01*
X135349000Y-127456661D01*
X135353465Y-127411326D01*
X135364899Y-127373633D01*
X135383466Y-127338897D01*
X135408452Y-127308452D01*
X135438897Y-127283466D01*
X135473633Y-127264899D01*
X135511326Y-127253465D01*
X135556661Y-127249000D01*
X136393339Y-127249000D01*
X136438674Y-127253465D01*
X136438674Y-127253465D01*
G37*
G36*
X134488674Y-127253465D02*
G01*
X134526367Y-127264899D01*
X134561103Y-127283466D01*
X134591548Y-127308452D01*
X134616534Y-127338897D01*
X134635101Y-127373633D01*
X134646535Y-127411326D01*
X134651000Y-127456661D01*
X134651000Y-128543339D01*
X134646535Y-128588674D01*
X134635101Y-128626367D01*
X134616534Y-128661103D01*
X134591548Y-128691548D01*
X134561103Y-128716534D01*
X134526367Y-128735101D01*
X134488674Y-128746535D01*
X134443339Y-128751000D01*
X133606661Y-128751000D01*
X133561326Y-128746535D01*
X133523633Y-128735101D01*
X133488897Y-128716534D01*
X133458452Y-128691548D01*
X133433466Y-128661103D01*
X133414899Y-128626367D01*
X133403465Y-128588674D01*
X133399000Y-128543339D01*
X133399000Y-127456661D01*
X133403465Y-127411326D01*
X133414899Y-127373633D01*
X133433466Y-127338897D01*
X133458452Y-127308452D01*
X133488897Y-127283466D01*
X133523633Y-127264899D01*
X133561326Y-127253465D01*
X133606661Y-127249000D01*
X134443339Y-127249000D01*
X134488674Y-127253465D01*
X134488674Y-127253465D01*
G37*
G36*
X132438674Y-127253465D02*
G01*
X132476367Y-127264899D01*
X132511103Y-127283466D01*
X132541548Y-127308452D01*
X132566534Y-127338897D01*
X132585101Y-127373633D01*
X132596535Y-127411326D01*
X132601000Y-127456661D01*
X132601000Y-128543339D01*
X132596535Y-128588674D01*
X132585101Y-128626367D01*
X132566534Y-128661103D01*
X132541548Y-128691548D01*
X132511103Y-128716534D01*
X132476367Y-128735101D01*
X132438674Y-128746535D01*
X132393339Y-128751000D01*
X131556661Y-128751000D01*
X131511326Y-128746535D01*
X131473633Y-128735101D01*
X131438897Y-128716534D01*
X131408452Y-128691548D01*
X131383466Y-128661103D01*
X131364899Y-128626367D01*
X131353465Y-128588674D01*
X131349000Y-128543339D01*
X131349000Y-127456661D01*
X131353465Y-127411326D01*
X131364899Y-127373633D01*
X131383466Y-127338897D01*
X131408452Y-127308452D01*
X131438897Y-127283466D01*
X131473633Y-127264899D01*
X131511326Y-127253465D01*
X131556661Y-127249000D01*
X132393339Y-127249000D01*
X132438674Y-127253465D01*
X132438674Y-127253465D01*
G37*
G36*
X109223579Y-125762955D02*
G01*
X109363072Y-125820735D01*
X109363074Y-125820736D01*
X109440062Y-125872178D01*
X109488615Y-125904620D01*
X109595380Y-126011385D01*
X109679265Y-126136928D01*
X109737045Y-126276421D01*
X109766500Y-126424504D01*
X109766500Y-126575496D01*
X109737045Y-126723579D01*
X109679265Y-126863072D01*
X109679264Y-126863074D01*
X109595380Y-126988615D01*
X109488615Y-127095380D01*
X109363074Y-127179264D01*
X109363073Y-127179265D01*
X109363072Y-127179265D01*
X109223579Y-127237045D01*
X109075496Y-127266500D01*
X108924504Y-127266500D01*
X108776421Y-127237045D01*
X108636928Y-127179265D01*
X108636927Y-127179265D01*
X108636926Y-127179264D01*
X108511385Y-127095380D01*
X108404620Y-126988615D01*
X108320736Y-126863074D01*
X108320735Y-126863072D01*
X108262955Y-126723579D01*
X108233500Y-126575496D01*
X108233500Y-126424504D01*
X108262955Y-126276421D01*
X108320735Y-126136928D01*
X108404620Y-126011385D01*
X108511385Y-125904620D01*
X108559938Y-125872178D01*
X108636926Y-125820736D01*
X108636928Y-125820735D01*
X108776421Y-125762955D01*
X108924504Y-125733500D01*
X109075496Y-125733500D01*
X109223579Y-125762955D01*
X109223579Y-125762955D01*
G37*
G36*
X134488674Y-125253465D02*
G01*
X134526367Y-125264899D01*
X134561103Y-125283466D01*
X134591548Y-125308452D01*
X134616534Y-125338897D01*
X134635101Y-125373633D01*
X134646535Y-125411326D01*
X134651000Y-125456661D01*
X134651000Y-126543339D01*
X134646535Y-126588674D01*
X134635101Y-126626367D01*
X134616534Y-126661103D01*
X134591548Y-126691548D01*
X134561103Y-126716534D01*
X134526367Y-126735101D01*
X134488674Y-126746535D01*
X134443339Y-126751000D01*
X133606661Y-126751000D01*
X133561326Y-126746535D01*
X133523633Y-126735101D01*
X133488897Y-126716534D01*
X133458452Y-126691548D01*
X133433466Y-126661103D01*
X133414899Y-126626367D01*
X133403465Y-126588674D01*
X133399000Y-126543339D01*
X133399000Y-125456661D01*
X133403465Y-125411326D01*
X133414899Y-125373633D01*
X133433466Y-125338897D01*
X133458452Y-125308452D01*
X133488897Y-125283466D01*
X133523633Y-125264899D01*
X133561326Y-125253465D01*
X133606661Y-125249000D01*
X134443339Y-125249000D01*
X134488674Y-125253465D01*
X134488674Y-125253465D01*
G37*
G36*
X136438674Y-125253465D02*
G01*
X136476367Y-125264899D01*
X136511103Y-125283466D01*
X136541548Y-125308452D01*
X136566534Y-125338897D01*
X136585101Y-125373633D01*
X136596535Y-125411326D01*
X136601000Y-125456661D01*
X136601000Y-126543339D01*
X136596535Y-126588674D01*
X136585101Y-126626367D01*
X136566534Y-126661103D01*
X136541548Y-126691548D01*
X136511103Y-126716534D01*
X136476367Y-126735101D01*
X136438674Y-126746535D01*
X136393339Y-126751000D01*
X135556661Y-126751000D01*
X135511326Y-126746535D01*
X135473633Y-126735101D01*
X135438897Y-126716534D01*
X135408452Y-126691548D01*
X135383466Y-126661103D01*
X135364899Y-126626367D01*
X135353465Y-126588674D01*
X135349000Y-126543339D01*
X135349000Y-125456661D01*
X135353465Y-125411326D01*
X135364899Y-125373633D01*
X135383466Y-125338897D01*
X135408452Y-125308452D01*
X135438897Y-125283466D01*
X135473633Y-125264899D01*
X135511326Y-125253465D01*
X135556661Y-125249000D01*
X136393339Y-125249000D01*
X136438674Y-125253465D01*
X136438674Y-125253465D01*
G37*
G36*
X138488674Y-125253465D02*
G01*
X138526367Y-125264899D01*
X138561103Y-125283466D01*
X138591548Y-125308452D01*
X138616534Y-125338897D01*
X138635101Y-125373633D01*
X138646535Y-125411326D01*
X138651000Y-125456661D01*
X138651000Y-126543339D01*
X138646535Y-126588674D01*
X138635101Y-126626367D01*
X138616534Y-126661103D01*
X138591548Y-126691548D01*
X138561103Y-126716534D01*
X138526367Y-126735101D01*
X138488674Y-126746535D01*
X138443339Y-126751000D01*
X137606661Y-126751000D01*
X137561326Y-126746535D01*
X137523633Y-126735101D01*
X137488897Y-126716534D01*
X137458452Y-126691548D01*
X137433466Y-126661103D01*
X137414899Y-126626367D01*
X137403465Y-126588674D01*
X137399000Y-126543339D01*
X137399000Y-125456661D01*
X137403465Y-125411326D01*
X137414899Y-125373633D01*
X137433466Y-125338897D01*
X137458452Y-125308452D01*
X137488897Y-125283466D01*
X137523633Y-125264899D01*
X137561326Y-125253465D01*
X137606661Y-125249000D01*
X138443339Y-125249000D01*
X138488674Y-125253465D01*
X138488674Y-125253465D01*
G37*
G36*
X132438674Y-125253465D02*
G01*
X132476367Y-125264899D01*
X132511103Y-125283466D01*
X132541548Y-125308452D01*
X132566534Y-125338897D01*
X132585101Y-125373633D01*
X132596535Y-125411326D01*
X132601000Y-125456661D01*
X132601000Y-126543339D01*
X132596535Y-126588674D01*
X132585101Y-126626367D01*
X132566534Y-126661103D01*
X132541548Y-126691548D01*
X132511103Y-126716534D01*
X132476367Y-126735101D01*
X132438674Y-126746535D01*
X132393339Y-126751000D01*
X131556661Y-126751000D01*
X131511326Y-126746535D01*
X131473633Y-126735101D01*
X131438897Y-126716534D01*
X131408452Y-126691548D01*
X131383466Y-126661103D01*
X131364899Y-126626367D01*
X131353465Y-126588674D01*
X131349000Y-126543339D01*
X131349000Y-125456661D01*
X131353465Y-125411326D01*
X131364899Y-125373633D01*
X131383466Y-125338897D01*
X131408452Y-125308452D01*
X131438897Y-125283466D01*
X131473633Y-125264899D01*
X131511326Y-125253465D01*
X131556661Y-125249000D01*
X132393339Y-125249000D01*
X132438674Y-125253465D01*
X132438674Y-125253465D01*
G37*
G36*
X107233642Y-124479781D02*
G01*
X107359528Y-124531925D01*
X107379416Y-124540163D01*
X107510608Y-124627822D01*
X107622178Y-124739392D01*
X107709837Y-124870584D01*
X107709838Y-124870586D01*
X107770219Y-125016358D01*
X107801000Y-125171107D01*
X107801000Y-125328893D01*
X107770219Y-125483642D01*
X107754673Y-125521173D01*
X107709837Y-125629416D01*
X107622178Y-125760608D01*
X107510608Y-125872178D01*
X107379416Y-125959837D01*
X107379415Y-125959838D01*
X107379414Y-125959838D01*
X107233642Y-126020219D01*
X107078893Y-126051000D01*
X106921107Y-126051000D01*
X106766358Y-126020219D01*
X106620586Y-125959838D01*
X106620585Y-125959838D01*
X106620584Y-125959837D01*
X106489392Y-125872178D01*
X106377822Y-125760608D01*
X106290163Y-125629416D01*
X106245327Y-125521173D01*
X106229781Y-125483642D01*
X106199000Y-125328893D01*
X106199000Y-125171107D01*
X106229781Y-125016358D01*
X106290162Y-124870586D01*
X106290163Y-124870584D01*
X106377822Y-124739392D01*
X106489392Y-124627822D01*
X106620584Y-124540163D01*
X106640472Y-124531925D01*
X106766358Y-124479781D01*
X106921107Y-124449000D01*
X107078893Y-124449000D01*
X107233642Y-124479781D01*
X107233642Y-124479781D01*
G37*
G36*
X125501000Y-125326000D02*
G01*
X116499000Y-125326000D01*
X116499000Y-123474000D01*
X125501000Y-123474000D01*
X125501000Y-125326000D01*
X125501000Y-125326000D01*
G37*
G36*
X109223579Y-123262955D02*
G01*
X109333418Y-123308452D01*
X109363074Y-123320736D01*
X109436746Y-123369962D01*
X109488615Y-123404620D01*
X109595380Y-123511385D01*
X109679265Y-123636928D01*
X109737045Y-123776421D01*
X109766500Y-123924504D01*
X109766500Y-124075496D01*
X109737045Y-124223579D01*
X109679265Y-124363072D01*
X109679264Y-124363074D01*
X109595380Y-124488615D01*
X109488615Y-124595380D01*
X109363074Y-124679264D01*
X109363073Y-124679265D01*
X109363072Y-124679265D01*
X109223579Y-124737045D01*
X109075496Y-124766500D01*
X108924504Y-124766500D01*
X108776421Y-124737045D01*
X108636928Y-124679265D01*
X108636927Y-124679265D01*
X108636926Y-124679264D01*
X108511385Y-124595380D01*
X108404620Y-124488615D01*
X108320736Y-124363074D01*
X108320735Y-124363072D01*
X108262955Y-124223579D01*
X108233500Y-124075496D01*
X108233500Y-123924504D01*
X108262955Y-123776421D01*
X108320735Y-123636928D01*
X108404620Y-123511385D01*
X108511385Y-123404620D01*
X108563254Y-123369962D01*
X108636926Y-123320736D01*
X108666582Y-123308452D01*
X108776421Y-123262955D01*
X108924504Y-123233500D01*
X109075496Y-123233500D01*
X109223579Y-123262955D01*
X109223579Y-123262955D01*
G37*
G36*
X112438674Y-123253465D02*
G01*
X112476367Y-123264899D01*
X112511103Y-123283466D01*
X112541548Y-123308452D01*
X112566534Y-123338897D01*
X112585101Y-123373633D01*
X112596535Y-123411326D01*
X112601000Y-123456661D01*
X112601000Y-124543339D01*
X112596535Y-124588674D01*
X112585101Y-124626367D01*
X112566534Y-124661103D01*
X112541548Y-124691548D01*
X112511103Y-124716534D01*
X112476367Y-124735101D01*
X112438674Y-124746535D01*
X112393339Y-124751000D01*
X111556661Y-124751000D01*
X111511326Y-124746535D01*
X111473633Y-124735101D01*
X111438897Y-124716534D01*
X111408452Y-124691548D01*
X111383466Y-124661103D01*
X111364899Y-124626367D01*
X111353465Y-124588674D01*
X111349000Y-124543339D01*
X111349000Y-123456661D01*
X111353465Y-123411326D01*
X111364899Y-123373633D01*
X111383466Y-123338897D01*
X111408452Y-123308452D01*
X111438897Y-123283466D01*
X111473633Y-123264899D01*
X111511326Y-123253465D01*
X111556661Y-123249000D01*
X112393339Y-123249000D01*
X112438674Y-123253465D01*
X112438674Y-123253465D01*
G37*
G36*
X114488674Y-123253465D02*
G01*
X114526367Y-123264899D01*
X114561103Y-123283466D01*
X114591548Y-123308452D01*
X114616534Y-123338897D01*
X114635101Y-123373633D01*
X114646535Y-123411326D01*
X114651000Y-123456661D01*
X114651000Y-124543339D01*
X114646535Y-124588674D01*
X114635101Y-124626367D01*
X114616534Y-124661103D01*
X114591548Y-124691548D01*
X114561103Y-124716534D01*
X114526367Y-124735101D01*
X114488674Y-124746535D01*
X114443339Y-124751000D01*
X113606661Y-124751000D01*
X113561326Y-124746535D01*
X113523633Y-124735101D01*
X113488897Y-124716534D01*
X113458452Y-124691548D01*
X113433466Y-124661103D01*
X113414899Y-124626367D01*
X113403465Y-124588674D01*
X113399000Y-124543339D01*
X113399000Y-123456661D01*
X113403465Y-123411326D01*
X113414899Y-123373633D01*
X113433466Y-123338897D01*
X113458452Y-123308452D01*
X113488897Y-123283466D01*
X113523633Y-123264899D01*
X113561326Y-123253465D01*
X113606661Y-123249000D01*
X114443339Y-123249000D01*
X114488674Y-123253465D01*
X114488674Y-123253465D01*
G37*
G36*
X142110442Y-121645518D02*
G01*
X142176627Y-121652037D01*
X142346466Y-121703557D01*
X142502991Y-121787222D01*
X142538729Y-121816552D01*
X142640186Y-121899814D01*
X142723448Y-122001271D01*
X142752778Y-122037009D01*
X142836443Y-122193534D01*
X142887963Y-122363373D01*
X142905359Y-122540000D01*
X142887963Y-122716627D01*
X142836443Y-122886466D01*
X142752778Y-123042991D01*
X142727435Y-123073871D01*
X142640186Y-123180186D01*
X142550894Y-123253465D01*
X142502991Y-123292778D01*
X142346466Y-123376443D01*
X142176627Y-123427963D01*
X142110442Y-123434482D01*
X142044260Y-123441000D01*
X141955740Y-123441000D01*
X141889558Y-123434482D01*
X141823373Y-123427963D01*
X141653534Y-123376443D01*
X141497009Y-123292778D01*
X141449106Y-123253465D01*
X141359814Y-123180186D01*
X141272565Y-123073871D01*
X141247222Y-123042991D01*
X141163557Y-122886466D01*
X141112037Y-122716627D01*
X141094641Y-122540000D01*
X141112037Y-122363373D01*
X141163557Y-122193534D01*
X141247222Y-122037009D01*
X141276552Y-122001271D01*
X141359814Y-121899814D01*
X141461271Y-121816552D01*
X141497009Y-121787222D01*
X141653534Y-121703557D01*
X141823373Y-121652037D01*
X141889558Y-121645518D01*
X141955740Y-121639000D01*
X142044260Y-121639000D01*
X142110442Y-121645518D01*
X142110442Y-121645518D01*
G37*
G36*
X107518039Y-119792250D02*
G01*
X107707372Y-119870675D01*
X107841251Y-119926129D01*
X108132134Y-120120491D01*
X108379509Y-120367866D01*
X108573871Y-120658749D01*
X108629325Y-120792628D01*
X108707750Y-120981961D01*
X108776000Y-121325078D01*
X108776000Y-121674922D01*
X108707750Y-122018039D01*
X108635058Y-122193532D01*
X108573871Y-122341251D01*
X108379509Y-122632134D01*
X108132134Y-122879509D01*
X107841251Y-123073871D01*
X107707372Y-123129325D01*
X107518039Y-123207750D01*
X107174922Y-123276000D01*
X106825078Y-123276000D01*
X106481961Y-123207750D01*
X106292628Y-123129325D01*
X106158749Y-123073871D01*
X105867866Y-122879509D01*
X105620491Y-122632134D01*
X105426129Y-122341251D01*
X105364942Y-122193532D01*
X105292250Y-122018039D01*
X105224000Y-121674922D01*
X105224000Y-121325078D01*
X105292250Y-120981961D01*
X105370675Y-120792628D01*
X105426129Y-120658749D01*
X105620491Y-120367866D01*
X105867866Y-120120491D01*
X106158749Y-119926129D01*
X106292628Y-119870675D01*
X106481961Y-119792250D01*
X106825078Y-119724000D01*
X107174922Y-119724000D01*
X107518039Y-119792250D01*
X107518039Y-119792250D01*
G37*
G36*
X132501000Y-122721000D02*
G01*
X131199000Y-122721000D01*
X131199000Y-121819000D01*
X132501000Y-121819000D01*
X132501000Y-122721000D01*
X132501000Y-122721000D01*
G37*
G36*
X138801000Y-122721000D02*
G01*
X137499000Y-122721000D01*
X137499000Y-121819000D01*
X138801000Y-121819000D01*
X138801000Y-122721000D01*
X138801000Y-122721000D01*
G37*
G36*
X112588674Y-120403465D02*
G01*
X112626367Y-120414899D01*
X112661103Y-120433466D01*
X112691548Y-120458452D01*
X112716534Y-120488897D01*
X112735101Y-120523633D01*
X112746535Y-120561326D01*
X112751000Y-120606661D01*
X112751000Y-121443339D01*
X112746535Y-121488674D01*
X112735101Y-121526367D01*
X112716534Y-121561103D01*
X112691548Y-121591548D01*
X112661103Y-121616534D01*
X112626367Y-121635101D01*
X112588674Y-121646535D01*
X112543339Y-121651000D01*
X111456661Y-121651000D01*
X111411326Y-121646535D01*
X111373633Y-121635101D01*
X111338897Y-121616534D01*
X111308452Y-121591548D01*
X111283466Y-121561103D01*
X111264899Y-121526367D01*
X111253465Y-121488674D01*
X111249000Y-121443339D01*
X111249000Y-120606661D01*
X111253465Y-120561326D01*
X111264899Y-120523633D01*
X111283466Y-120488897D01*
X111308452Y-120458452D01*
X111338897Y-120433466D01*
X111373633Y-120414899D01*
X111411326Y-120403465D01*
X111456661Y-120399000D01*
X112543339Y-120399000D01*
X112588674Y-120403465D01*
X112588674Y-120403465D01*
G37*
G36*
X114588674Y-120403465D02*
G01*
X114626367Y-120414899D01*
X114661103Y-120433466D01*
X114691548Y-120458452D01*
X114716534Y-120488897D01*
X114735101Y-120523633D01*
X114746535Y-120561326D01*
X114751000Y-120606661D01*
X114751000Y-121443339D01*
X114746535Y-121488674D01*
X114735101Y-121526367D01*
X114716534Y-121561103D01*
X114691548Y-121591548D01*
X114661103Y-121616534D01*
X114626367Y-121635101D01*
X114588674Y-121646535D01*
X114543339Y-121651000D01*
X113456661Y-121651000D01*
X113411326Y-121646535D01*
X113373633Y-121635101D01*
X113338897Y-121616534D01*
X113308452Y-121591548D01*
X113283466Y-121561103D01*
X113264899Y-121526367D01*
X113253465Y-121488674D01*
X113249000Y-121443339D01*
X113249000Y-120606661D01*
X113253465Y-120561326D01*
X113264899Y-120523633D01*
X113283466Y-120488897D01*
X113308452Y-120458452D01*
X113338897Y-120433466D01*
X113373633Y-120414899D01*
X113411326Y-120403465D01*
X113456661Y-120399000D01*
X114543339Y-120399000D01*
X114588674Y-120403465D01*
X114588674Y-120403465D01*
G37*
G36*
X142901000Y-120901000D02*
G01*
X141099000Y-120901000D01*
X141099000Y-119099000D01*
X142901000Y-119099000D01*
X142901000Y-120901000D01*
X142901000Y-120901000D01*
G37*
G36*
X129488674Y-119253465D02*
G01*
X129526367Y-119264899D01*
X129561103Y-119283466D01*
X129591548Y-119308452D01*
X129616534Y-119338897D01*
X129635101Y-119373633D01*
X129646535Y-119411326D01*
X129651000Y-119456661D01*
X129651000Y-120543339D01*
X129646535Y-120588674D01*
X129635101Y-120626367D01*
X129616534Y-120661103D01*
X129591548Y-120691548D01*
X129561103Y-120716534D01*
X129526367Y-120735101D01*
X129488674Y-120746535D01*
X129443339Y-120751000D01*
X128606661Y-120751000D01*
X128561326Y-120746535D01*
X128523633Y-120735101D01*
X128488897Y-120716534D01*
X128458452Y-120691548D01*
X128433466Y-120661103D01*
X128414899Y-120626367D01*
X128403465Y-120588674D01*
X128399000Y-120543339D01*
X128399000Y-119456661D01*
X128403465Y-119411326D01*
X128414899Y-119373633D01*
X128433466Y-119338897D01*
X128458452Y-119308452D01*
X128488897Y-119283466D01*
X128523633Y-119264899D01*
X128561326Y-119253465D01*
X128606661Y-119249000D01*
X129443339Y-119249000D01*
X129488674Y-119253465D01*
X129488674Y-119253465D01*
G37*
G36*
X127438674Y-119253465D02*
G01*
X127476367Y-119264899D01*
X127511103Y-119283466D01*
X127541548Y-119308452D01*
X127566534Y-119338897D01*
X127585101Y-119373633D01*
X127596535Y-119411326D01*
X127601000Y-119456661D01*
X127601000Y-120543339D01*
X127596535Y-120588674D01*
X127585101Y-120626367D01*
X127566534Y-120661103D01*
X127541548Y-120691548D01*
X127511103Y-120716534D01*
X127476367Y-120735101D01*
X127438674Y-120746535D01*
X127393339Y-120751000D01*
X126556661Y-120751000D01*
X126511326Y-120746535D01*
X126473633Y-120735101D01*
X126438897Y-120716534D01*
X126408452Y-120691548D01*
X126383466Y-120661103D01*
X126364899Y-120626367D01*
X126353465Y-120588674D01*
X126349000Y-120543339D01*
X126349000Y-119456661D01*
X126353465Y-119411326D01*
X126364899Y-119373633D01*
X126383466Y-119338897D01*
X126408452Y-119308452D01*
X126438897Y-119283466D01*
X126473633Y-119264899D01*
X126511326Y-119253465D01*
X126556661Y-119249000D01*
X127393339Y-119249000D01*
X127438674Y-119253465D01*
X127438674Y-119253465D01*
G37*
G36*
X132501000Y-120181000D02*
G01*
X131199000Y-120181000D01*
X131199000Y-119279000D01*
X132501000Y-119279000D01*
X132501000Y-120181000D01*
X132501000Y-120181000D01*
G37*
G36*
X138801000Y-120181000D02*
G01*
X137499000Y-120181000D01*
X137499000Y-119279000D01*
X138801000Y-119279000D01*
X138801000Y-120181000D01*
X138801000Y-120181000D01*
G37*
G36*
X114588674Y-118353465D02*
G01*
X114626367Y-118364899D01*
X114661103Y-118383466D01*
X114691548Y-118408452D01*
X114716534Y-118438897D01*
X114735101Y-118473633D01*
X114746535Y-118511326D01*
X114751000Y-118556661D01*
X114751000Y-119393339D01*
X114746535Y-119438674D01*
X114735101Y-119476367D01*
X114716534Y-119511103D01*
X114691548Y-119541548D01*
X114661103Y-119566534D01*
X114626367Y-119585101D01*
X114588674Y-119596535D01*
X114543339Y-119601000D01*
X113456661Y-119601000D01*
X113411326Y-119596535D01*
X113373633Y-119585101D01*
X113338897Y-119566534D01*
X113308452Y-119541548D01*
X113283466Y-119511103D01*
X113264899Y-119476367D01*
X113253465Y-119438674D01*
X113249000Y-119393339D01*
X113249000Y-118556661D01*
X113253465Y-118511326D01*
X113264899Y-118473633D01*
X113283466Y-118438897D01*
X113308452Y-118408452D01*
X113338897Y-118383466D01*
X113373633Y-118364899D01*
X113411326Y-118353465D01*
X113456661Y-118349000D01*
X114543339Y-118349000D01*
X114588674Y-118353465D01*
X114588674Y-118353465D01*
G37*
G36*
X112588674Y-118353465D02*
G01*
X112626367Y-118364899D01*
X112661103Y-118383466D01*
X112691548Y-118408452D01*
X112716534Y-118438897D01*
X112735101Y-118473633D01*
X112746535Y-118511326D01*
X112751000Y-118556661D01*
X112751000Y-119393339D01*
X112746535Y-119438674D01*
X112735101Y-119476367D01*
X112716534Y-119511103D01*
X112691548Y-119541548D01*
X112661103Y-119566534D01*
X112626367Y-119585101D01*
X112588674Y-119596535D01*
X112543339Y-119601000D01*
X111456661Y-119601000D01*
X111411326Y-119596535D01*
X111373633Y-119585101D01*
X111338897Y-119566534D01*
X111308452Y-119541548D01*
X111283466Y-119511103D01*
X111264899Y-119476367D01*
X111253465Y-119438674D01*
X111249000Y-119393339D01*
X111249000Y-118556661D01*
X111253465Y-118511326D01*
X111264899Y-118473633D01*
X111283466Y-118438897D01*
X111308452Y-118408452D01*
X111338897Y-118383466D01*
X111373633Y-118364899D01*
X111411326Y-118353465D01*
X111456661Y-118349000D01*
X112543339Y-118349000D01*
X112588674Y-118353465D01*
X112588674Y-118353465D01*
G37*
G36*
X116488015Y-116456973D02*
G01*
X116591879Y-116488479D01*
X116619055Y-116503005D01*
X116687600Y-116539643D01*
X116771501Y-116608499D01*
X116840357Y-116692400D01*
X116851662Y-116713551D01*
X116891521Y-116788121D01*
X116895388Y-116800869D01*
X116904760Y-116823496D01*
X116918374Y-116843870D01*
X116935701Y-116861197D01*
X116956075Y-116874811D01*
X116978714Y-116884188D01*
X117002747Y-116888969D01*
X117027251Y-116888969D01*
X117051285Y-116884189D01*
X117073924Y-116874812D01*
X117094298Y-116861198D01*
X117111625Y-116843871D01*
X117125239Y-116823497D01*
X117134612Y-116800869D01*
X117138479Y-116788121D01*
X117178338Y-116713551D01*
X117189643Y-116692400D01*
X117258499Y-116608499D01*
X117342400Y-116539643D01*
X117410945Y-116503005D01*
X117438121Y-116488479D01*
X117541985Y-116456973D01*
X117622933Y-116449000D01*
X117677067Y-116449000D01*
X117758015Y-116456973D01*
X117861879Y-116488479D01*
X117889055Y-116503005D01*
X117957600Y-116539643D01*
X118041501Y-116608499D01*
X118110357Y-116692400D01*
X118121662Y-116713551D01*
X118161521Y-116788121D01*
X118165388Y-116800869D01*
X118174760Y-116823496D01*
X118188374Y-116843870D01*
X118205701Y-116861197D01*
X118226075Y-116874811D01*
X118248714Y-116884188D01*
X118272747Y-116888969D01*
X118297251Y-116888969D01*
X118321285Y-116884189D01*
X118343924Y-116874812D01*
X118364298Y-116861198D01*
X118381625Y-116843871D01*
X118395239Y-116823497D01*
X118404612Y-116800869D01*
X118408479Y-116788121D01*
X118448338Y-116713551D01*
X118459643Y-116692400D01*
X118528499Y-116608499D01*
X118612400Y-116539643D01*
X118680945Y-116503005D01*
X118708121Y-116488479D01*
X118811985Y-116456973D01*
X118892933Y-116449000D01*
X118947067Y-116449000D01*
X119028015Y-116456973D01*
X119131879Y-116488479D01*
X119159055Y-116503005D01*
X119227600Y-116539643D01*
X119311501Y-116608499D01*
X119380357Y-116692400D01*
X119391662Y-116713551D01*
X119431521Y-116788121D01*
X119435388Y-116800869D01*
X119444760Y-116823496D01*
X119458374Y-116843870D01*
X119475701Y-116861197D01*
X119496075Y-116874811D01*
X119518714Y-116884188D01*
X119542747Y-116888969D01*
X119567251Y-116888969D01*
X119591285Y-116884189D01*
X119613924Y-116874812D01*
X119634298Y-116861198D01*
X119651625Y-116843871D01*
X119665239Y-116823497D01*
X119674612Y-116800869D01*
X119678479Y-116788121D01*
X119718338Y-116713551D01*
X119729643Y-116692400D01*
X119798499Y-116608499D01*
X119882400Y-116539643D01*
X119950945Y-116503005D01*
X119978121Y-116488479D01*
X120081985Y-116456973D01*
X120162933Y-116449000D01*
X120217067Y-116449000D01*
X120298015Y-116456973D01*
X120401879Y-116488479D01*
X120429055Y-116503005D01*
X120497600Y-116539643D01*
X120581501Y-116608499D01*
X120650357Y-116692400D01*
X120661662Y-116713551D01*
X120701521Y-116788121D01*
X120705388Y-116800869D01*
X120714760Y-116823496D01*
X120728374Y-116843870D01*
X120745701Y-116861197D01*
X120766075Y-116874811D01*
X120788714Y-116884188D01*
X120812747Y-116888969D01*
X120837251Y-116888969D01*
X120861285Y-116884189D01*
X120883924Y-116874812D01*
X120904298Y-116861198D01*
X120921625Y-116843871D01*
X120935239Y-116823497D01*
X120944612Y-116800869D01*
X120948479Y-116788121D01*
X120988338Y-116713551D01*
X120999643Y-116692400D01*
X121068499Y-116608499D01*
X121152400Y-116539643D01*
X121220945Y-116503005D01*
X121248121Y-116488479D01*
X121351985Y-116456973D01*
X121432933Y-116449000D01*
X121487067Y-116449000D01*
X121568015Y-116456973D01*
X121671879Y-116488479D01*
X121699055Y-116503005D01*
X121767600Y-116539643D01*
X121851501Y-116608499D01*
X121920357Y-116692400D01*
X121931662Y-116713551D01*
X121971521Y-116788121D01*
X121975388Y-116800869D01*
X121984760Y-116823496D01*
X121998374Y-116843870D01*
X122015701Y-116861197D01*
X122036075Y-116874811D01*
X122058714Y-116884188D01*
X122082747Y-116888969D01*
X122107251Y-116888969D01*
X122131285Y-116884189D01*
X122153924Y-116874812D01*
X122174298Y-116861198D01*
X122191625Y-116843871D01*
X122205239Y-116823497D01*
X122214612Y-116800869D01*
X122218479Y-116788121D01*
X122258338Y-116713551D01*
X122269643Y-116692400D01*
X122338499Y-116608499D01*
X122422400Y-116539643D01*
X122490945Y-116503005D01*
X122518121Y-116488479D01*
X122621985Y-116456973D01*
X122702933Y-116449000D01*
X122757067Y-116449000D01*
X122838015Y-116456973D01*
X122941879Y-116488479D01*
X122969055Y-116503005D01*
X123037600Y-116539643D01*
X123121501Y-116608499D01*
X123190356Y-116692400D01*
X123213764Y-116736193D01*
X123227375Y-116756563D01*
X123244702Y-116773890D01*
X123265076Y-116787504D01*
X123287715Y-116796881D01*
X123311748Y-116801662D01*
X123336252Y-116801662D01*
X123360286Y-116796882D01*
X123382924Y-116787505D01*
X123403299Y-116773891D01*
X123420626Y-116756564D01*
X123434240Y-116736190D01*
X123443617Y-116713551D01*
X123448398Y-116689518D01*
X123449000Y-116677265D01*
X123449000Y-116449000D01*
X124551000Y-116449000D01*
X124551000Y-117551000D01*
X123449000Y-117551000D01*
X123449000Y-117322735D01*
X123446598Y-117298349D01*
X123439485Y-117274900D01*
X123427934Y-117253289D01*
X123412389Y-117234347D01*
X123393447Y-117218802D01*
X123371836Y-117207251D01*
X123348387Y-117200138D01*
X123324001Y-117197736D01*
X123299615Y-117200138D01*
X123276166Y-117207251D01*
X123254555Y-117218802D01*
X123235613Y-117234347D01*
X123220068Y-117253289D01*
X123213767Y-117263802D01*
X123190356Y-117307600D01*
X123190355Y-117307601D01*
X123121501Y-117391501D01*
X123037600Y-117460357D01*
X122969055Y-117496995D01*
X122941879Y-117511521D01*
X122838015Y-117543027D01*
X122757067Y-117551000D01*
X122702933Y-117551000D01*
X122621985Y-117543027D01*
X122518121Y-117511521D01*
X122490945Y-117496995D01*
X122422400Y-117460357D01*
X122338499Y-117391501D01*
X122269643Y-117307600D01*
X122230489Y-117234347D01*
X122218479Y-117211879D01*
X122214612Y-117199131D01*
X122205240Y-117176504D01*
X122191626Y-117156130D01*
X122174299Y-117138803D01*
X122153925Y-117125189D01*
X122131286Y-117115812D01*
X122107253Y-117111031D01*
X122082749Y-117111031D01*
X122058715Y-117115811D01*
X122036076Y-117125188D01*
X122015702Y-117138802D01*
X121998375Y-117156129D01*
X121984761Y-117176503D01*
X121975388Y-117199131D01*
X121971521Y-117211879D01*
X121959511Y-117234347D01*
X121920357Y-117307600D01*
X121851501Y-117391501D01*
X121767600Y-117460357D01*
X121699055Y-117496995D01*
X121671879Y-117511521D01*
X121568015Y-117543027D01*
X121487067Y-117551000D01*
X121432933Y-117551000D01*
X121351985Y-117543027D01*
X121248121Y-117511521D01*
X121220945Y-117496995D01*
X121152400Y-117460357D01*
X121068499Y-117391501D01*
X120999643Y-117307600D01*
X120960489Y-117234347D01*
X120948479Y-117211879D01*
X120944612Y-117199131D01*
X120935240Y-117176504D01*
X120921626Y-117156130D01*
X120904299Y-117138803D01*
X120883925Y-117125189D01*
X120861286Y-117115812D01*
X120837253Y-117111031D01*
X120812749Y-117111031D01*
X120788715Y-117115811D01*
X120766076Y-117125188D01*
X120745702Y-117138802D01*
X120728375Y-117156129D01*
X120714761Y-117176503D01*
X120705388Y-117199131D01*
X120701521Y-117211879D01*
X120689511Y-117234347D01*
X120650357Y-117307600D01*
X120581501Y-117391501D01*
X120497600Y-117460357D01*
X120429055Y-117496995D01*
X120401879Y-117511521D01*
X120298015Y-117543027D01*
X120217067Y-117551000D01*
X120162933Y-117551000D01*
X120081985Y-117543027D01*
X119978121Y-117511521D01*
X119950945Y-117496995D01*
X119882400Y-117460357D01*
X119798499Y-117391501D01*
X119729643Y-117307600D01*
X119690489Y-117234347D01*
X119678479Y-117211879D01*
X119674612Y-117199131D01*
X119665240Y-117176504D01*
X119651626Y-117156130D01*
X119634299Y-117138803D01*
X119613925Y-117125189D01*
X119591286Y-117115812D01*
X119567253Y-117111031D01*
X119542749Y-117111031D01*
X119518715Y-117115811D01*
X119496076Y-117125188D01*
X119475702Y-117138802D01*
X119458375Y-117156129D01*
X119444761Y-117176503D01*
X119435388Y-117199131D01*
X119431521Y-117211879D01*
X119419511Y-117234347D01*
X119380357Y-117307600D01*
X119311501Y-117391501D01*
X119227600Y-117460357D01*
X119159055Y-117496995D01*
X119131879Y-117511521D01*
X119028015Y-117543027D01*
X118947067Y-117551000D01*
X118892933Y-117551000D01*
X118811985Y-117543027D01*
X118708121Y-117511521D01*
X118680945Y-117496995D01*
X118612400Y-117460357D01*
X118528499Y-117391501D01*
X118459643Y-117307600D01*
X118420489Y-117234347D01*
X118408479Y-117211879D01*
X118404612Y-117199131D01*
X118395240Y-117176504D01*
X118381626Y-117156130D01*
X118364299Y-117138803D01*
X118343925Y-117125189D01*
X118321286Y-117115812D01*
X118297253Y-117111031D01*
X118272749Y-117111031D01*
X118248715Y-117115811D01*
X118226076Y-117125188D01*
X118205702Y-117138802D01*
X118188375Y-117156129D01*
X118174761Y-117176503D01*
X118165388Y-117199131D01*
X118161521Y-117211879D01*
X118149511Y-117234347D01*
X118110357Y-117307600D01*
X118041501Y-117391501D01*
X117957600Y-117460357D01*
X117889055Y-117496995D01*
X117861879Y-117511521D01*
X117758015Y-117543027D01*
X117677067Y-117551000D01*
X117622933Y-117551000D01*
X117541985Y-117543027D01*
X117438121Y-117511521D01*
X117410945Y-117496995D01*
X117342400Y-117460357D01*
X117258499Y-117391501D01*
X117189643Y-117307600D01*
X117150489Y-117234347D01*
X117138479Y-117211879D01*
X117134612Y-117199131D01*
X117125240Y-117176504D01*
X117111626Y-117156130D01*
X117094299Y-117138803D01*
X117073925Y-117125189D01*
X117051286Y-117115812D01*
X117027253Y-117111031D01*
X117002749Y-117111031D01*
X116978715Y-117115811D01*
X116956076Y-117125188D01*
X116935702Y-117138802D01*
X116918375Y-117156129D01*
X116904761Y-117176503D01*
X116895388Y-117199131D01*
X116891521Y-117211879D01*
X116879511Y-117234347D01*
X116840357Y-117307600D01*
X116771501Y-117391501D01*
X116687600Y-117460357D01*
X116619055Y-117496995D01*
X116591879Y-117511521D01*
X116488015Y-117543027D01*
X116407067Y-117551000D01*
X116352933Y-117551000D01*
X116271985Y-117543027D01*
X116168121Y-117511521D01*
X116140945Y-117496995D01*
X116072400Y-117460357D01*
X115988499Y-117391501D01*
X115919643Y-117307600D01*
X115880489Y-117234347D01*
X115868479Y-117211879D01*
X115836973Y-117108015D01*
X115826334Y-117000000D01*
X115836973Y-116891985D01*
X115868479Y-116788121D01*
X115908338Y-116713551D01*
X115919643Y-116692400D01*
X115988499Y-116608499D01*
X116072400Y-116539643D01*
X116140945Y-116503005D01*
X116168121Y-116488479D01*
X116271985Y-116456973D01*
X116352933Y-116449000D01*
X116407067Y-116449000D01*
X116488015Y-116456973D01*
X116488015Y-116456973D01*
G37*
M02*
