G04 #@! TF.GenerationSoftware,KiCad,Pcbnew,5.1.4-e60b266~84~ubuntu19.04.1*
G04 #@! TF.CreationDate,2019-09-06T13:47:56+02:00*
G04 #@! TF.ProjectId,keyer,6b657965-722e-46b6-9963-61645f706362,rev?*
G04 #@! TF.SameCoordinates,Original*
G04 #@! TF.FileFunction,Legend,Top*
G04 #@! TF.FilePolarity,Positive*
%FSLAX46Y46*%
G04 Gerber Fmt 4.6, Leading zero omitted, Abs format (unit mm)*
G04 Created by KiCad (PCBNEW 5.1.4-e60b266~84~ubuntu19.04.1) date 2019-09-06 13:47:56*
%MOMM*%
%LPD*%
G04 APERTURE LIST*
%ADD10C,0.030000*%
%ADD11C,0.200000*%
%ADD12C,0.120000*%
%ADD13C,0.100000*%
%ADD14C,0.150000*%
%ADD15C,0.254000*%
G04 APERTURE END LIST*
D10*
X113500984Y-136504754D02*
X113477649Y-136511656D01*
X113477649Y-136511656D02*
X113457532Y-136521559D01*
X113457532Y-136521559D02*
X113452247Y-136523461D01*
X112181655Y-135815543D02*
X112201249Y-135826079D01*
X112201249Y-135826079D02*
X112225105Y-135832358D01*
X112225105Y-135832358D02*
X112253569Y-135834759D01*
X112253569Y-135834759D02*
X112283095Y-135833563D01*
X112283095Y-135833563D02*
X112290943Y-135832772D01*
X112152118Y-135811113D02*
X112179466Y-135813872D01*
X112179466Y-135813872D02*
X112181655Y-135815543D01*
X114589924Y-132081068D02*
X114562392Y-132083561D01*
X114562392Y-132083561D02*
X114531274Y-132083565D01*
X114531274Y-132083565D02*
X114515097Y-132084022D01*
X113401541Y-131731037D02*
X113404329Y-131703683D01*
X113404329Y-131703683D02*
X113407353Y-131676624D01*
X113407353Y-131676624D02*
X113411301Y-131650234D01*
X113411301Y-131650234D02*
X113416226Y-131624655D01*
X113416226Y-131624655D02*
X113422164Y-131599720D01*
X113422164Y-131599720D02*
X113429038Y-131575655D01*
X113429038Y-131575655D02*
X113436609Y-131552997D01*
X113436609Y-131552997D02*
X113444972Y-131531216D01*
X113444972Y-131531216D02*
X113454991Y-131508347D01*
X113454991Y-131508347D02*
X113465220Y-131487684D01*
X113465220Y-131487684D02*
X113476391Y-131467489D01*
X113476391Y-131467489D02*
X113488259Y-131448184D01*
X113488259Y-131448184D02*
X113500703Y-131429853D01*
X113500703Y-131429853D02*
X113513601Y-131412555D01*
X113513601Y-131412555D02*
X113527082Y-131396015D01*
X113527082Y-131396015D02*
X113541651Y-131379639D01*
X113541651Y-131379639D02*
X113556728Y-131364099D01*
X113556728Y-131364099D02*
X113572224Y-131349409D01*
X113572224Y-131349409D02*
X113588757Y-131334988D01*
X113588757Y-131334988D02*
X113606356Y-131320871D01*
X113606356Y-131320871D02*
X113624260Y-131307667D01*
X113624260Y-131307667D02*
X113642363Y-131295365D01*
X113642363Y-131295365D02*
X113661227Y-131283550D01*
X113661227Y-131283550D02*
X113682248Y-131271466D01*
X113682248Y-131271466D02*
X113701941Y-131261076D01*
X113701941Y-131261076D02*
X113722167Y-131251251D01*
X113722167Y-131251251D02*
X113743841Y-131241597D01*
X113743841Y-131241597D02*
X113765510Y-131232761D01*
X113765510Y-131232761D02*
X113788680Y-131224145D01*
X113788680Y-131224145D02*
X113814659Y-131215416D01*
X113814659Y-131215416D02*
X113836723Y-131208721D01*
X113916474Y-136703146D02*
X113916444Y-136673017D01*
X113916444Y-136673017D02*
X113915981Y-136664255D01*
X114453069Y-132099775D02*
X114429727Y-132108106D01*
X114429727Y-132108106D02*
X114407028Y-132116185D01*
X114407028Y-132116185D02*
X114385666Y-132125113D01*
X114385666Y-132125113D02*
X114366179Y-132135783D01*
X114366179Y-132135783D02*
X114349163Y-132149307D01*
X114349163Y-132149307D02*
X114338366Y-132162788D01*
X113038726Y-134927950D02*
X113047820Y-134907002D01*
X113047820Y-134907002D02*
X113055558Y-134883541D01*
X113055558Y-134883541D02*
X113060879Y-134864936D01*
X112642436Y-135827358D02*
X112671917Y-135828486D01*
X112671917Y-135828486D02*
X112700742Y-135830489D01*
X112700742Y-135830489D02*
X112730340Y-135833245D01*
X112730340Y-135833245D02*
X112759255Y-135836404D01*
X112759255Y-135836404D02*
X112789643Y-135839991D01*
X112789643Y-135839991D02*
X112817151Y-135843278D01*
X112817151Y-135843278D02*
X112845385Y-135846500D01*
X112845385Y-135846500D02*
X112874340Y-135849442D01*
X112874340Y-135849442D02*
X112903274Y-135851809D01*
X112903274Y-135851809D02*
X112932177Y-135853396D01*
X112932177Y-135853396D02*
X112962483Y-135853995D01*
X112962483Y-135853995D02*
X112992372Y-135853276D01*
X112992372Y-135853276D02*
X113012143Y-135851973D01*
X112517887Y-135827358D02*
X112546713Y-135825753D01*
X112546713Y-135825753D02*
X112576551Y-135825441D01*
X112576551Y-135825441D02*
X112608057Y-135826418D01*
X112608057Y-135826418D02*
X112637925Y-135827271D01*
X112637925Y-135827271D02*
X112642436Y-135827358D01*
X111911390Y-136097630D02*
X111924766Y-136080925D01*
X111924766Y-136080925D02*
X111910283Y-136064817D01*
X111910283Y-136064817D02*
X111908928Y-136063662D01*
X111941911Y-136116337D02*
X111920611Y-136107430D01*
X111920611Y-136107430D02*
X111911390Y-136097630D01*
X115062520Y-134985068D02*
X115063349Y-135014325D01*
X115063349Y-135014325D02*
X115059513Y-135040768D01*
X115059513Y-135040768D02*
X115054151Y-135056450D01*
X114713489Y-135678208D02*
X114706960Y-135701839D01*
X114706960Y-135701839D02*
X114700797Y-135727509D01*
X114700797Y-135727509D02*
X114695725Y-135752515D01*
X114695725Y-135752515D02*
X114691438Y-135778342D01*
X114691438Y-135778342D02*
X114687844Y-135806124D01*
X114687844Y-135806124D02*
X114685242Y-135833790D01*
X114685242Y-135833790D02*
X114683463Y-135862506D01*
X114683463Y-135862506D02*
X114682967Y-135874631D01*
X113796356Y-136692317D02*
X113809616Y-136675226D01*
X113809616Y-136675226D02*
X113823467Y-136658755D01*
X113823467Y-136658755D02*
X113831713Y-136636618D01*
X113831713Y-136636618D02*
X113831800Y-136630286D01*
X113155890Y-135528540D02*
X113149983Y-135533463D01*
X113133245Y-135567922D02*
X113144363Y-135546583D01*
X113144363Y-135546583D02*
X113155890Y-135528540D01*
X113836726Y-131208736D02*
X113860616Y-131202575D01*
X113860616Y-131202575D02*
X113886712Y-131196546D01*
X113886712Y-131196546D02*
X113912830Y-131190857D01*
X113912830Y-131190857D02*
X113937873Y-131185634D01*
X113937873Y-131185634D02*
X113963098Y-131180571D01*
X113963098Y-131180571D02*
X113991208Y-131175159D01*
X113991208Y-131175159D02*
X114018207Y-131170197D01*
X114018207Y-131170197D02*
X114043852Y-131165740D01*
X114043852Y-131165740D02*
X114072335Y-131161159D01*
X114072335Y-131161159D02*
X114099402Y-131157319D01*
X114099402Y-131157319D02*
X114126528Y-131154372D01*
X114126528Y-131154372D02*
X114144898Y-131153600D01*
X114107974Y-136806527D02*
X114116409Y-136784410D01*
X114116409Y-136784410D02*
X114120015Y-136757349D01*
X114120015Y-136757349D02*
X114119205Y-136727366D01*
X114119205Y-136727366D02*
X114118805Y-136722345D01*
X113401541Y-132502450D02*
X113401413Y-132471162D01*
X113401413Y-132471162D02*
X113401174Y-132439052D01*
X113401174Y-132439052D02*
X113401069Y-132407956D01*
X113401069Y-132407956D02*
X113401317Y-132377792D01*
X113401317Y-132377792D02*
X113402112Y-132348482D01*
X113402112Y-132348482D02*
X113403658Y-132319348D01*
X113403658Y-132319348D02*
X113406029Y-132291623D01*
X113406029Y-132291623D02*
X113409483Y-132263812D01*
X113409483Y-132263812D02*
X113413939Y-132237293D01*
X113413939Y-132237293D02*
X113419404Y-132211953D01*
X113419404Y-132211953D02*
X113425663Y-132188371D01*
X113049556Y-135185908D02*
X113042172Y-135191816D01*
X115000492Y-134380538D02*
X114996800Y-134407304D01*
X114996800Y-134407304D02*
X114994146Y-134435484D01*
X114994146Y-134435484D02*
X114992123Y-134462258D01*
X113225303Y-136405313D02*
X113242999Y-136392416D01*
X113242999Y-136392416D02*
X113257623Y-136376567D01*
X113257623Y-136376567D02*
X113273295Y-136361860D01*
X113273295Y-136361860D02*
X113285854Y-136355100D01*
X114708074Y-131491801D02*
X114724763Y-131506792D01*
X114724763Y-131506792D02*
X114741317Y-131520828D01*
X114741317Y-131520828D02*
X114758164Y-131534323D01*
X114758164Y-131534323D02*
X114775294Y-131547294D01*
X114775294Y-131547294D02*
X114793633Y-131560404D01*
X114793633Y-131560404D02*
X114813220Y-131573594D01*
X114813220Y-131573594D02*
X114832191Y-131585635D01*
X114832191Y-131585635D02*
X114853687Y-131598482D01*
X114853687Y-131598482D02*
X114873023Y-131609375D01*
X114873023Y-131609375D02*
X114892932Y-131619993D01*
X114892932Y-131619993D02*
X114914155Y-131630701D01*
X114914155Y-131630701D02*
X114935703Y-131640985D01*
X114935703Y-131640985D02*
X114950771Y-131647855D01*
X113029373Y-134980625D02*
X113038422Y-134958856D01*
X113038422Y-134958856D02*
X113052694Y-134942232D01*
X113052694Y-134942232D02*
X113061011Y-134920359D01*
X113061011Y-134920359D02*
X113059894Y-134913674D01*
X113056941Y-134954534D02*
X113042222Y-134970225D01*
X113042222Y-134970225D02*
X113029373Y-134980625D01*
X114950771Y-131647855D02*
X114973035Y-131657282D01*
X114973035Y-131657282D02*
X114994556Y-131666255D01*
X114994556Y-131666255D02*
X115016419Y-131676285D01*
X115016419Y-131676285D02*
X115035833Y-131686887D01*
X115035833Y-131686887D02*
X115053470Y-131699365D01*
X115053470Y-131699365D02*
X115068033Y-131714966D01*
X115068033Y-131714966D02*
X115074828Y-131729083D01*
X114950771Y-131915660D02*
X114924337Y-131919452D01*
X114924337Y-131919452D02*
X114902293Y-131928621D01*
X114902293Y-131928621D02*
X114892681Y-131938305D01*
X115090582Y-136873970D02*
X115107443Y-136888340D01*
X115107443Y-136888340D02*
X115123504Y-136902696D01*
X115123504Y-136902696D02*
X115137572Y-136919334D01*
X115137572Y-136919334D02*
X115140794Y-136924184D01*
X113029373Y-135122894D02*
X113041910Y-135104716D01*
X113041910Y-135104716D02*
X113052305Y-135084522D01*
X113052305Y-135084522D02*
X113057349Y-135058866D01*
X113057349Y-135058866D02*
X113057925Y-135047576D01*
X113060879Y-135102219D02*
X113038982Y-135110610D01*
X113038982Y-135110610D02*
X113029373Y-135122894D01*
X115002955Y-136154738D02*
X114996311Y-136178294D01*
X114996311Y-136178294D02*
X114988186Y-136193629D01*
X112285528Y-135821450D02*
X112313963Y-135823486D01*
X112313963Y-135823486D02*
X112338217Y-135829408D01*
X112338217Y-135829408D02*
X112352971Y-135829820D01*
X112290943Y-135832772D02*
X112285528Y-135821450D01*
X113089924Y-135219876D02*
X113078109Y-135211016D01*
X113022973Y-135319317D02*
X113030453Y-135296672D01*
X113030453Y-135296672D02*
X113041077Y-135277013D01*
X113041077Y-135277013D02*
X113054158Y-135259186D01*
X113054158Y-135259186D02*
X113069121Y-135242124D01*
X113069121Y-135242124D02*
X113084906Y-135225274D01*
X113084906Y-135225274D02*
X113089924Y-135219876D01*
X113559566Y-136579583D02*
X113571227Y-136560983D01*
X113571227Y-136560983D02*
X113576304Y-136549061D01*
X114609617Y-136361992D02*
X114603434Y-136386070D01*
X114603434Y-136386070D02*
X114596102Y-136409643D01*
X114596102Y-136409643D02*
X114587667Y-136433056D01*
X114587667Y-136433056D02*
X114579049Y-136454512D01*
X114579049Y-136454512D02*
X114570727Y-136473740D01*
X114349196Y-132516249D02*
X114353494Y-132542453D01*
X114353494Y-132542453D02*
X114360237Y-132566398D01*
X114360237Y-132566398D02*
X114369380Y-132584185D01*
X114985231Y-134540041D02*
X114984716Y-134571330D01*
X114984716Y-134571330D02*
X114984072Y-134601197D01*
X114984072Y-134601197D02*
X114984416Y-134631549D01*
X114984416Y-134631549D02*
X114986736Y-134659811D01*
X114986736Y-134659811D02*
X114991503Y-134685109D01*
X114991503Y-134685109D02*
X114993600Y-134692649D01*
X113968656Y-136673608D02*
X113952390Y-136687372D01*
X113952390Y-136687372D02*
X113941580Y-136690838D01*
X113759434Y-136626842D02*
X113750081Y-136613549D01*
X113798325Y-136645055D02*
X113806694Y-136630779D01*
X114019854Y-136725299D02*
X114026619Y-136700688D01*
X114026619Y-136700688D02*
X114031177Y-136676069D01*
X113059894Y-134913674D02*
X113040791Y-134925051D01*
X113040791Y-134925051D02*
X113038726Y-134927950D01*
X113806694Y-136630779D02*
X113782542Y-136636689D01*
X113782542Y-136636689D02*
X113763024Y-136647369D01*
X113763024Y-136647369D02*
X113745158Y-136654409D01*
X115046274Y-135113062D02*
X115052275Y-135137578D01*
X115052275Y-135137578D02*
X115052345Y-135167661D01*
X115052345Y-135167661D02*
X115047844Y-135193484D01*
X115047844Y-135193484D02*
X115040699Y-135216378D01*
X115040699Y-135216378D02*
X115031328Y-135237201D01*
X115031328Y-135237201D02*
X115022153Y-135252380D01*
X113422710Y-136429926D02*
X113397443Y-136435095D01*
X113397443Y-136435095D02*
X113376907Y-136444572D01*
X113376907Y-136444572D02*
X113356725Y-136454615D01*
X113356725Y-136454615D02*
X113335198Y-136463262D01*
X113335198Y-136463262D02*
X113305166Y-136463291D01*
X113305166Y-136463291D02*
X113302592Y-136461926D01*
X114065637Y-136701177D02*
X114044169Y-136709901D01*
X114044169Y-136709901D02*
X114026533Y-136722469D01*
X114026533Y-136722469D02*
X114019854Y-136725299D01*
X113004266Y-134837860D02*
X113016264Y-134819405D01*
X113016264Y-134819405D02*
X113030246Y-134802801D01*
X113030246Y-134802801D02*
X113044318Y-134786588D01*
X113044318Y-134786588D02*
X113057654Y-134769852D01*
X113057654Y-134769852D02*
X113066905Y-134748951D01*
X113066905Y-134748951D02*
X113066786Y-134748263D01*
X113048080Y-134738909D02*
X113057851Y-134718087D01*
X113057851Y-134718087D02*
X113063151Y-134693118D01*
X113063151Y-134693118D02*
X113063833Y-134686235D01*
X113040695Y-134804875D02*
X113024438Y-134819304D01*
X113024438Y-134819304D02*
X113009229Y-134834223D01*
X113009229Y-134834223D02*
X113004266Y-134837860D01*
X114103544Y-136743020D02*
X114074796Y-136744367D01*
X114074796Y-136744367D02*
X114066622Y-136746960D01*
X114066622Y-136746960D02*
X114066214Y-136717269D01*
X114066214Y-136717269D02*
X114065637Y-136701177D01*
X112129473Y-136184768D02*
X112101056Y-136181371D01*
X112101056Y-136181371D02*
X112068992Y-136176912D01*
X112068992Y-136176912D02*
X112041445Y-136173217D01*
X112041445Y-136173217D02*
X112013389Y-136170203D01*
X112013389Y-136170203D02*
X111984959Y-136168560D01*
X111984959Y-136168560D02*
X111983264Y-136168523D01*
X112271251Y-136191167D02*
X112241096Y-136189784D01*
X112241096Y-136189784D02*
X112208302Y-136188909D01*
X112208302Y-136188909D02*
X112178978Y-136188051D01*
X112178978Y-136188051D02*
X112149778Y-136186528D01*
X112149778Y-136186528D02*
X112129473Y-136184768D01*
X113836723Y-131208721D02*
X113836726Y-131208736D01*
X113025927Y-134268776D02*
X113056941Y-134237760D01*
X113056941Y-135037237D02*
X113058599Y-135008766D01*
X113058599Y-135008766D02*
X113060879Y-135004254D01*
X114570726Y-131275194D02*
X114592148Y-131284179D01*
X114592148Y-131284179D02*
X114608887Y-131297577D01*
X114608887Y-131297577D02*
X114622147Y-131314538D01*
X114622147Y-131314538D02*
X114632885Y-131334535D01*
X114632885Y-131334535D02*
X114641611Y-131356256D01*
X114641611Y-131356256D02*
X114648015Y-131375129D01*
X114840991Y-135896287D02*
X114862365Y-135905022D01*
X114862365Y-135905022D02*
X114882133Y-135915680D01*
X114882133Y-135915680D02*
X114901144Y-135927749D01*
X114901144Y-135927749D02*
X114922179Y-135942401D01*
X114922179Y-135942401D02*
X114940157Y-135955247D01*
X114940157Y-135955247D02*
X114947325Y-135960286D01*
X114683952Y-133663278D02*
X114690640Y-133686941D01*
X114690640Y-133686941D02*
X114700573Y-133708358D01*
X114700573Y-133708358D02*
X114711834Y-133727350D01*
X114711834Y-133727350D02*
X114723911Y-133745662D01*
X114723911Y-133745662D02*
X114735911Y-133763797D01*
X114735911Y-133763797D02*
X114747224Y-133782617D01*
X114747224Y-133782617D02*
X114754348Y-133796687D01*
X111986710Y-136008526D02*
X111961492Y-136003606D01*
X111961492Y-136003606D02*
X111953234Y-135989819D01*
X111921728Y-136029694D02*
X111949660Y-136027519D01*
X111949660Y-136027519D02*
X111972310Y-136020010D01*
X111972310Y-136020010D02*
X111986710Y-136008526D01*
X114850345Y-137002947D02*
X114849360Y-137007870D01*
X114993600Y-134692649D02*
X115002098Y-134714383D01*
X115002098Y-134714383D02*
X115012436Y-134734380D01*
X115012436Y-134734380D02*
X115023094Y-134754412D01*
X115023094Y-134754412D02*
X115026091Y-134760586D01*
X113713159Y-136589919D02*
X113683072Y-136589077D01*
X113683072Y-136589077D02*
X113653780Y-136591095D01*
X113653780Y-136591095D02*
X113627604Y-136595424D01*
X113627604Y-136595424D02*
X113603532Y-136602107D01*
X113603532Y-136602107D02*
X113582315Y-136611213D01*
X113582315Y-136611213D02*
X113577288Y-136614041D01*
X114529866Y-132827375D02*
X114535522Y-132852439D01*
X114535522Y-132852439D02*
X114540221Y-132878319D01*
X114540221Y-132878319D02*
X114544336Y-132905690D01*
X114544336Y-132905690D02*
X114548168Y-132934430D01*
X114548168Y-132934430D02*
X114551724Y-132961294D01*
X114551724Y-132961294D02*
X114555465Y-132986876D01*
X115105350Y-136967503D02*
X115074995Y-136967075D01*
X115074995Y-136967075D02*
X115056121Y-136968493D01*
X113168690Y-135642750D02*
X113157254Y-135661728D01*
X113157254Y-135661728D02*
X113152936Y-135663918D01*
X113158844Y-135720040D02*
X113165955Y-135696522D01*
X113165955Y-135696522D02*
X113174976Y-135674959D01*
X113174976Y-135674959D02*
X113171936Y-135647611D01*
X113171936Y-135647611D02*
X113168690Y-135642750D01*
X113302592Y-136461926D02*
X113324683Y-136453663D01*
X113324683Y-136453663D02*
X113335575Y-136446171D01*
X114602232Y-133277817D02*
X114611463Y-133298817D01*
X114611463Y-133298817D02*
X114622207Y-133318504D01*
X114622207Y-133318504D02*
X114632811Y-133339324D01*
X114632811Y-133339324D02*
X114635707Y-133346245D01*
X113285854Y-136355100D02*
X113259288Y-136360676D01*
X113259288Y-136360676D02*
X113231430Y-136365751D01*
X113231430Y-136365751D02*
X113209058Y-136367898D01*
X113095831Y-135263198D02*
X113076453Y-135274284D01*
X113076453Y-135274284D02*
X113059265Y-135288037D01*
X113059265Y-135288037D02*
X113042472Y-135303219D01*
X113042472Y-135303219D02*
X113026028Y-135317039D01*
X113026028Y-135317039D02*
X113022973Y-135319317D01*
X113149983Y-135444359D02*
X113141168Y-135465729D01*
X113141168Y-135465729D02*
X113128217Y-135482802D01*
X113128217Y-135482802D02*
X113109615Y-135493096D01*
X111930589Y-136116832D02*
X111941911Y-136116337D01*
X111979818Y-136143416D02*
X111955996Y-136136979D01*
X111955996Y-136136979D02*
X111936164Y-136126435D01*
X111936164Y-136126435D02*
X111930589Y-136116832D01*
X113059402Y-135334086D02*
X113064753Y-135308914D01*
X113064753Y-135308914D02*
X113075592Y-135288533D01*
X113075592Y-135288533D02*
X113088557Y-135271097D01*
X113088557Y-135271097D02*
X113095831Y-135263198D01*
X113084509Y-135289289D02*
X113072309Y-135307565D01*
X113072309Y-135307565D02*
X113062700Y-135327960D01*
X113062700Y-135327960D02*
X113059402Y-135334086D01*
X115046767Y-134832950D02*
X115050556Y-134859342D01*
X115050556Y-134859342D02*
X115053728Y-134886487D01*
X115053728Y-134886487D02*
X115056489Y-134914639D01*
X115056489Y-134914639D02*
X115059095Y-134944642D01*
X115059095Y-134944642D02*
X115061519Y-134973550D01*
X115061519Y-134973550D02*
X115062520Y-134985068D01*
X114570727Y-136473740D02*
X114560007Y-136495237D01*
X114560007Y-136495237D02*
X114548536Y-136515629D01*
X114548536Y-136515629D02*
X114547097Y-136518045D01*
X114757796Y-136654901D02*
X114782191Y-136661963D01*
X114782191Y-136661963D02*
X114805819Y-136668655D01*
X114805819Y-136668655D02*
X114829986Y-136675677D01*
X114829986Y-136675677D02*
X114853058Y-136682857D01*
X114853058Y-136682857D02*
X114875635Y-136690636D01*
X114875635Y-136690636D02*
X114898527Y-136699632D01*
X114898527Y-136699632D02*
X114919240Y-136709077D01*
X114919240Y-136709077D02*
X114938896Y-136719553D01*
X114938896Y-136719553D02*
X114957630Y-136731306D01*
X114957630Y-136731306D02*
X114975565Y-136744647D01*
X114975565Y-136744647D02*
X114991529Y-136758741D01*
X114991529Y-136758741D02*
X114995078Y-136762220D01*
X114754842Y-136125692D02*
X114731610Y-136133378D01*
X114731610Y-136133378D02*
X114712013Y-136141940D01*
X113322284Y-136519523D02*
X113342783Y-136509870D01*
X113342783Y-136509870D02*
X113361202Y-136497886D01*
X113361202Y-136497886D02*
X113366097Y-136493923D01*
X113945026Y-136728254D02*
X113958677Y-136711854D01*
X113958677Y-136711854D02*
X113970789Y-136693719D01*
X113970789Y-136693719D02*
X113968656Y-136673608D01*
X113745158Y-136654409D02*
X113756467Y-136635567D01*
X113756467Y-136635567D02*
X113759434Y-136626842D01*
X115054151Y-135056450D02*
X115041205Y-135073947D01*
X115041205Y-135073947D02*
X115038398Y-135078603D01*
X113022973Y-134277144D02*
X113025927Y-134268776D01*
X113065802Y-134244654D02*
X113045835Y-134255125D01*
X113045835Y-134255125D02*
X113031635Y-134271073D01*
X113031635Y-134271073D02*
X113022973Y-134277144D01*
X113323760Y-132813575D02*
X113333875Y-132791059D01*
X113333875Y-132791059D02*
X113343735Y-132767715D01*
X113343735Y-132767715D02*
X113352226Y-132746201D01*
X113352226Y-132746201D02*
X113360350Y-132724048D01*
X113360350Y-132724048D02*
X113368078Y-132701108D01*
X113368078Y-132701108D02*
X113375345Y-132677220D01*
X113375345Y-132677220D02*
X113382034Y-132652384D01*
X113382034Y-132652384D02*
X113387969Y-132626750D01*
X113387969Y-132626750D02*
X113392941Y-132600788D01*
X113392941Y-132600788D02*
X113396844Y-132574664D01*
X113396844Y-132574664D02*
X113399696Y-132547377D01*
X113399696Y-132547377D02*
X113401309Y-132518222D01*
X113401309Y-132518222D02*
X113401541Y-132502450D01*
X113429602Y-132035762D02*
X113424516Y-132010552D01*
X113424516Y-132010552D02*
X113420251Y-131984092D01*
X113420251Y-131984092D02*
X113416477Y-131956552D01*
X113416477Y-131956552D02*
X113413222Y-131929438D01*
X113413222Y-131929438D02*
X113410282Y-131901770D01*
X113410282Y-131901770D02*
X113407689Y-131874218D01*
X113407689Y-131874218D02*
X113405367Y-131846002D01*
X113405367Y-131846002D02*
X113403316Y-131816274D01*
X113403316Y-131816274D02*
X113401778Y-131787049D01*
X113401778Y-131787049D02*
X113400938Y-131757173D01*
X113400938Y-131757173D02*
X113401541Y-131731037D01*
X113425663Y-132188371D02*
X113431663Y-132162735D01*
X113431663Y-132162735D02*
X113435453Y-132135635D01*
X113435453Y-132135635D02*
X113436982Y-132106208D01*
X113436982Y-132106208D02*
X113435920Y-132077008D01*
X113435920Y-132077008D02*
X113432382Y-132049389D01*
X113432382Y-132049389D02*
X113429602Y-132035762D01*
X113161798Y-133706092D02*
X113164895Y-133677414D01*
X113164895Y-133677414D02*
X113167045Y-133649543D01*
X113167045Y-133649543D02*
X113168669Y-133620004D01*
X113168669Y-133620004D02*
X113169906Y-133590416D01*
X113169906Y-133590416D02*
X113171076Y-133559941D01*
X113171076Y-133559941D02*
X113172366Y-133531032D01*
X113172366Y-133531032D02*
X113174165Y-133501204D01*
X113174165Y-133501204D02*
X113174597Y-133495393D01*
X113144075Y-133852301D02*
X113149155Y-133825675D01*
X113149155Y-133825675D02*
X113152947Y-133797330D01*
X113152947Y-133797330D02*
X113155683Y-133769799D01*
X113155683Y-133769799D02*
X113158160Y-133741631D01*
X113158160Y-133741631D02*
X113160949Y-133713341D01*
X113160949Y-133713341D02*
X113161798Y-133706092D01*
X113059402Y-135434020D02*
X113069331Y-135413750D01*
X113069331Y-135413750D02*
X113083526Y-135396956D01*
X113083526Y-135396956D02*
X113095831Y-135380855D01*
X113102231Y-135406946D02*
X113085883Y-135420816D01*
X113085883Y-135420816D02*
X113067692Y-135432913D01*
X113067692Y-135432913D02*
X113059402Y-135434020D01*
X114847391Y-131983595D02*
X114830240Y-131996462D01*
X114830240Y-131996462D02*
X114809973Y-132007869D01*
X114809973Y-132007869D02*
X114788675Y-132016918D01*
X114788675Y-132016918D02*
X114766183Y-132024726D01*
X114766183Y-132024726D02*
X114743599Y-132032148D01*
X114743599Y-132032148D02*
X114722842Y-132039716D01*
X113114046Y-135334579D02*
X113097958Y-135348826D01*
X113097958Y-135348826D02*
X113087955Y-135356240D01*
X113095831Y-135380855D02*
X113102917Y-135357931D01*
X113102917Y-135357931D02*
X113111991Y-135336878D01*
X113111991Y-135336878D02*
X113114046Y-135334579D01*
X113942073Y-136664255D02*
X113930240Y-136683506D01*
X113930240Y-136683506D02*
X113917437Y-136701137D01*
X113917437Y-136701137D02*
X113916474Y-136703146D01*
X113143583Y-136312762D02*
X113157860Y-136308824D01*
X113039218Y-135073667D02*
X113050417Y-135054716D01*
X113050417Y-135054716D02*
X113056941Y-135037237D01*
X113057925Y-135047576D02*
X113046132Y-135065906D01*
X113046132Y-135065906D02*
X113039218Y-135073667D01*
X113039711Y-134860506D02*
X113050111Y-134838671D01*
X113050111Y-134838671D02*
X113060908Y-134819413D01*
X113060908Y-134819413D02*
X113065802Y-134810293D01*
X113127338Y-135849019D02*
X113151750Y-135843075D01*
X113151750Y-135843075D02*
X113176339Y-135836499D01*
X113176339Y-135836499D02*
X113201722Y-135831174D01*
X113201722Y-135831174D02*
X113219396Y-135830310D01*
X113012143Y-135851973D02*
X113043719Y-135851112D01*
X113043719Y-135851112D02*
X113073983Y-135851673D01*
X113073983Y-135851673D02*
X113103677Y-135851349D01*
X113103677Y-135851349D02*
X113127338Y-135849019D01*
X114988186Y-136193629D02*
X114979772Y-136171791D01*
X114979772Y-136171791D02*
X114967510Y-136159661D01*
X113203150Y-133281248D02*
X113207473Y-133254097D01*
X113207473Y-133254097D02*
X113211993Y-133227519D01*
X113211993Y-133227519D02*
X113217312Y-133198386D01*
X113217312Y-133198386D02*
X113222341Y-133172734D01*
X113222341Y-133172734D02*
X113228019Y-133145706D01*
X113228019Y-133145706D02*
X113233871Y-133119733D01*
X113233871Y-133119733D02*
X113240003Y-133094289D01*
X113240003Y-133094289D02*
X113247598Y-133064940D01*
X113247598Y-133064940D02*
X113254102Y-133041444D01*
X113254102Y-133041444D02*
X113257794Y-133028705D01*
X113026911Y-134896936D02*
X113035680Y-134872709D01*
X113035680Y-134872709D02*
X113039711Y-134860506D01*
X113099770Y-133979803D02*
X113106568Y-133955636D01*
X113106568Y-133955636D02*
X113114710Y-133933667D01*
X113114710Y-133933667D02*
X113123564Y-133911977D01*
X113123564Y-133911977D02*
X113132269Y-133890169D01*
X113132269Y-133890169D02*
X113140108Y-133867333D01*
X113140108Y-133867333D02*
X113144075Y-133852301D01*
X113072694Y-134113704D02*
X113078162Y-134083500D01*
X113078162Y-134083500D02*
X113083270Y-134057446D01*
X113083270Y-134057446D02*
X113088514Y-134032071D01*
X113088514Y-134032071D02*
X113093837Y-134007139D01*
X113093837Y-134007139D02*
X113099770Y-133979803D01*
X113063833Y-134175732D02*
X113067513Y-134147825D01*
X113067513Y-134147825D02*
X113071383Y-134120989D01*
X113071383Y-134120989D02*
X113072694Y-134113704D01*
X115056121Y-136968493D02*
X115057513Y-136997274D01*
X115057513Y-136997274D02*
X115051691Y-137020675D01*
X114435839Y-136809971D02*
X114416193Y-136799069D01*
X114416193Y-136799069D02*
X114392369Y-136792114D01*
X114392369Y-136792114D02*
X114377749Y-136787327D01*
X114992123Y-134462258D02*
X114989290Y-134489515D01*
X114989290Y-134489515D02*
X114986293Y-134517029D01*
X114986293Y-134517029D02*
X114985231Y-134540041D01*
X114456515Y-132689534D02*
X114471471Y-132707327D01*
X114471471Y-132707327D02*
X114485081Y-132725718D01*
X114485081Y-132725718D02*
X114497155Y-132744760D01*
X114497155Y-132744760D02*
X114507633Y-132764560D01*
X114507633Y-132764560D02*
X114516831Y-132785919D01*
X114516831Y-132785919D02*
X114524760Y-132809042D01*
X114524760Y-132809042D02*
X114529866Y-132827375D01*
X114031177Y-136676069D02*
X114017744Y-136692933D01*
X114017744Y-136692933D02*
X114001877Y-136707264D01*
X114001877Y-136707264D02*
X113983759Y-136719213D01*
X113983759Y-136719213D02*
X113961860Y-136727590D01*
X113961860Y-136727590D02*
X113945026Y-136728254D01*
X114377749Y-136787327D02*
X114356299Y-136778022D01*
X114356299Y-136778022D02*
X114334973Y-136769122D01*
X114334973Y-136769122D02*
X114318675Y-136764681D01*
X113039218Y-135167201D02*
X113046455Y-135143904D01*
X113046455Y-135143904D02*
X113057664Y-135124961D01*
X113057664Y-135124961D02*
X113060879Y-135102219D01*
X115057105Y-131860523D02*
X115041875Y-131875706D01*
X115041875Y-131875706D02*
X115024429Y-131888656D01*
X115024429Y-131888656D02*
X115003271Y-131900101D01*
X115003271Y-131900101D02*
X114981417Y-131908424D01*
X114981417Y-131908424D02*
X114955784Y-131914777D01*
X114955784Y-131914777D02*
X114950771Y-131915660D01*
X114984739Y-135116509D02*
X114983847Y-135146322D01*
X114983847Y-135146322D02*
X114977847Y-135167705D01*
X115103381Y-136952736D02*
X115105350Y-136967503D01*
X115038398Y-135078603D02*
X115042314Y-135104909D01*
X115042314Y-135104909D02*
X115046274Y-135113062D01*
X114922711Y-136999010D02*
X114934507Y-137017887D01*
X114934507Y-137017887D02*
X114936988Y-137035439D01*
X114929602Y-135078603D02*
X114909818Y-135089640D01*
X114909818Y-135089640D02*
X114881372Y-135091367D01*
X114881372Y-135091367D02*
X114861667Y-135090418D01*
X114636693Y-136256150D02*
X114629924Y-136280877D01*
X114629924Y-136280877D02*
X114622810Y-136307881D01*
X114622810Y-136307881D02*
X114616439Y-136333223D01*
X114616439Y-136333223D02*
X114610598Y-136357732D01*
X114610598Y-136357732D02*
X114609617Y-136361992D01*
X113174597Y-133495393D02*
X113177014Y-133467498D01*
X113177014Y-133467498D02*
X113180310Y-133437246D01*
X113180310Y-133437246D02*
X113183706Y-133410476D01*
X113183706Y-133410476D02*
X113187563Y-133382948D01*
X113187563Y-133382948D02*
X113191540Y-133356293D01*
X113191540Y-133356293D02*
X113196435Y-133324648D01*
X113196435Y-133324648D02*
X113202385Y-133286263D01*
X113202385Y-133286263D02*
X113203150Y-133281248D01*
X114720381Y-135877088D02*
X114749834Y-135878187D01*
X114749834Y-135878187D02*
X114777343Y-135881263D01*
X114777343Y-135881263D02*
X114803463Y-135886072D01*
X114803463Y-135886072D02*
X114828029Y-135892313D01*
X114828029Y-135892313D02*
X114840991Y-135896287D01*
X113915981Y-136664255D02*
X113894765Y-136673146D01*
X113894765Y-136673146D02*
X113879385Y-136687900D01*
X113879385Y-136687900D02*
X113859124Y-136697721D01*
X113859124Y-136697721D02*
X113857892Y-136697730D01*
X113081063Y-136293070D02*
X113050437Y-136291449D01*
X113050437Y-136291449D02*
X113021795Y-136289587D01*
X113021795Y-136289587D02*
X113003282Y-136287164D01*
X113301115Y-136383160D02*
X113276676Y-136390146D01*
X113276676Y-136390146D02*
X113253198Y-136397575D01*
X113253198Y-136397575D02*
X113229791Y-136404233D01*
X113229791Y-136404233D02*
X113225303Y-136405313D01*
X114312767Y-132298659D02*
X114314690Y-132327201D01*
X114314690Y-132327201D02*
X114318346Y-132354522D01*
X114318346Y-132354522D02*
X114322825Y-132381816D01*
X114322825Y-132381816D02*
X114327890Y-132409531D01*
X114327890Y-132409531D02*
X114333149Y-132436484D01*
X114333149Y-132436484D02*
X114338846Y-132464532D01*
X114338846Y-132464532D02*
X114344260Y-132490755D01*
X114344260Y-132490755D02*
X114349175Y-132516111D01*
X114349175Y-132516111D02*
X114349196Y-132516249D01*
X113366097Y-136493923D02*
X113381228Y-136478918D01*
X113381228Y-136478918D02*
X113395578Y-136460470D01*
X113395578Y-136460470D02*
X113408818Y-136443563D01*
X113408818Y-136443563D02*
X113422710Y-136429926D01*
X113068755Y-135339995D02*
X113075305Y-135315431D01*
X113075305Y-135315431D02*
X113083603Y-135293312D01*
X113083603Y-135293312D02*
X113084509Y-135289289D01*
X113102723Y-135319810D02*
X113080653Y-135327880D01*
X113080653Y-135327880D02*
X113068755Y-135339995D01*
X113008204Y-134635529D02*
X113014522Y-134609675D01*
X113014522Y-134609675D02*
X113021218Y-134583531D01*
X113021218Y-134583531D02*
X113028202Y-134559178D01*
X113028202Y-134559178D02*
X113032326Y-134546424D01*
X115041352Y-136041020D02*
X115054231Y-136059074D01*
X115054231Y-136059074D02*
X115066276Y-136078052D01*
X115066276Y-136078052D02*
X115076757Y-136097968D01*
X115076757Y-136097968D02*
X115084733Y-136120379D01*
X115084733Y-136120379D02*
X115085165Y-136144401D01*
X113863307Y-136661303D02*
X113840860Y-136669441D01*
X113840860Y-136669441D02*
X113823747Y-136682632D01*
X113823747Y-136682632D02*
X113803068Y-136692055D01*
X113803068Y-136692055D02*
X113796356Y-136692317D01*
X114118805Y-136722345D02*
X114106393Y-136740222D01*
X114106393Y-136740222D02*
X114103544Y-136743020D01*
X113444371Y-136583027D02*
X113456441Y-136564522D01*
X113456441Y-136564522D02*
X113468022Y-136545608D01*
X113468022Y-136545608D02*
X113480386Y-136527216D01*
X113480386Y-136527216D02*
X113494198Y-136510983D01*
X113494198Y-136510983D02*
X113500984Y-136504754D01*
X113857892Y-136697730D02*
X113863670Y-136673402D01*
X113863670Y-136673402D02*
X113863307Y-136661303D01*
X113065802Y-134810293D02*
X113046991Y-134821510D01*
X113046991Y-134821510D02*
X113031753Y-134837142D01*
X113031753Y-134837142D02*
X113018534Y-134854623D01*
X113018534Y-134854623D02*
X113008204Y-134869367D01*
X113056941Y-134237760D02*
X113058797Y-134208575D01*
X113058797Y-134208575D02*
X113062865Y-134181511D01*
X113062865Y-134181511D02*
X113063833Y-134175732D01*
X113066786Y-134748263D02*
X113048080Y-134738909D01*
X112047261Y-136134555D02*
X112023755Y-136141749D01*
X112023755Y-136141749D02*
X111996532Y-136144659D01*
X111996532Y-136144659D02*
X111979818Y-136143416D01*
X111983264Y-136168523D02*
X112007100Y-136159905D01*
X112007100Y-136159905D02*
X112027640Y-136149902D01*
X112027640Y-136149902D02*
X112044787Y-136136988D01*
X112044787Y-136136988D02*
X112047261Y-136134555D01*
X113057433Y-134452892D02*
X113062280Y-134427424D01*
X113062280Y-134427424D02*
X113063766Y-134398018D01*
X113063766Y-134398018D02*
X113063363Y-134367140D01*
X113063363Y-134367140D02*
X113063340Y-134365756D01*
X113689037Y-136629303D02*
X113703897Y-136613815D01*
X113703897Y-136613815D02*
X113713666Y-136593470D01*
X113713666Y-136593470D02*
X113713159Y-136589919D01*
X112437152Y-135827358D02*
X112468159Y-135828967D01*
X112468159Y-135828967D02*
X112498388Y-135828515D01*
X112498388Y-135828515D02*
X112517887Y-135827358D01*
X112386939Y-135820959D02*
X112413044Y-135825206D01*
X112413044Y-135825206D02*
X112437152Y-135827358D01*
X113750081Y-136613549D02*
X113726852Y-136621693D01*
X113726852Y-136621693D02*
X113704320Y-136629330D01*
X113704320Y-136629330D02*
X113689037Y-136629303D01*
X113008697Y-134841797D02*
X113022094Y-134824887D01*
X113022094Y-134824887D02*
X113037078Y-134809287D01*
X113037078Y-134809287D02*
X113040695Y-134804875D01*
X111992617Y-135980466D02*
X111972905Y-135969536D01*
X111972905Y-135969536D02*
X111954840Y-135956603D01*
X111954840Y-135956603D02*
X111939145Y-135941992D01*
X111939145Y-135941992D02*
X111929374Y-135921738D01*
X111929374Y-135921738D02*
X111930589Y-135917453D01*
X111953234Y-135989819D02*
X111980405Y-135986690D01*
X111980405Y-135986690D02*
X111992617Y-135980466D01*
X113563996Y-136511646D02*
X113542715Y-136521327D01*
X113542715Y-136521327D02*
X113521466Y-136531049D01*
X113521466Y-136531049D02*
X113501349Y-136541053D01*
X113501349Y-136541053D02*
X113481854Y-136552328D01*
X113481854Y-136552328D02*
X113464158Y-136564836D01*
X113464158Y-136564836D02*
X113448082Y-136579157D01*
X113448082Y-136579157D02*
X113444371Y-136583027D01*
X114861667Y-135090418D02*
X114874521Y-135107657D01*
X114874521Y-135107657D02*
X114884524Y-135127766D01*
X114884524Y-135127766D02*
X114891069Y-135152905D01*
X114891069Y-135152905D02*
X114892276Y-135181956D01*
X114892276Y-135181956D02*
X114888754Y-135209096D01*
X114888754Y-135209096D02*
X114882739Y-135233414D01*
X114882739Y-135233414D02*
X114875131Y-135256622D01*
X114875131Y-135256622D02*
X114866763Y-135278574D01*
X114866763Y-135278574D02*
X114857607Y-135300776D01*
X114857607Y-135300776D02*
X114848647Y-135322008D01*
X114848647Y-135322008D02*
X114839595Y-135344199D01*
X114839595Y-135344199D02*
X114833114Y-135361667D01*
X115044799Y-136814894D02*
X115057656Y-136833322D01*
X115057656Y-136833322D02*
X115070026Y-136850967D01*
X115070026Y-136850967D02*
X115084262Y-136867885D01*
X115084262Y-136867885D02*
X115090582Y-136873970D01*
X113154906Y-135493586D02*
X113144501Y-135513466D01*
X113144501Y-135513466D02*
X113131377Y-135530442D01*
X113131377Y-135530442D02*
X113131276Y-135530509D01*
X113149983Y-135533463D02*
X113155537Y-135508845D01*
X113155537Y-135508845D02*
X113154906Y-135493586D01*
X114250247Y-136762712D02*
X114249261Y-136768128D01*
X114981293Y-135223334D02*
X114991387Y-135203330D01*
X114991387Y-135203330D02*
X114997046Y-135178721D01*
X114997046Y-135178721D02*
X114996182Y-135149193D01*
X114996182Y-135149193D02*
X114989368Y-135125845D01*
X114989368Y-135125845D02*
X114984739Y-135116509D01*
X114712013Y-136141940D02*
X114685604Y-136145968D01*
X114685604Y-136145968D02*
X114661799Y-136147846D01*
X115022153Y-135252380D02*
X115007162Y-135268846D01*
X115007162Y-135268846D02*
X115006399Y-135269610D01*
X114928619Y-136159661D02*
X114911842Y-136172983D01*
X114911842Y-136172983D02*
X114888744Y-136178860D01*
X115026091Y-134760586D02*
X115034795Y-134782163D01*
X115034795Y-134782163D02*
X115041685Y-134806646D01*
X115041685Y-134806646D02*
X115046673Y-134832372D01*
X115046673Y-134832372D02*
X115046767Y-134832950D01*
X115150148Y-136995565D02*
X115137698Y-136976604D01*
X115137698Y-136976604D02*
X115121571Y-136962504D01*
X115121571Y-136962504D02*
X115103381Y-136952736D01*
X113060879Y-134864936D02*
X113045753Y-134880210D01*
X113045753Y-134880210D02*
X113029633Y-134894109D01*
X113029633Y-134894109D02*
X113026911Y-134896936D01*
X115051691Y-137020675D02*
X115036528Y-137005131D01*
X115036528Y-137005131D02*
X115017926Y-136993553D01*
X115017926Y-136993553D02*
X115000000Y-137000000D01*
X114338366Y-132162788D02*
X114328034Y-132182871D01*
X114328034Y-132182871D02*
X114320426Y-132205366D01*
X114320426Y-132205366D02*
X114315604Y-132230602D01*
X114315604Y-132230602D02*
X114313311Y-132258686D01*
X114313311Y-132258686D02*
X114312773Y-132288623D01*
X114312773Y-132288623D02*
X114312767Y-132298659D01*
X113258286Y-136469310D02*
X113273066Y-136453265D01*
X113273066Y-136453265D02*
X113291724Y-136439776D01*
X113291724Y-136439776D02*
X113302100Y-136432388D01*
X113063340Y-134365756D02*
X113066874Y-134337824D01*
X113066874Y-134337824D02*
X113073182Y-134312381D01*
X113073182Y-134312381D02*
X113077836Y-134286925D01*
X113077836Y-134286925D02*
X113078109Y-134272714D01*
X114144898Y-131153600D02*
X114174134Y-131154997D01*
X114174134Y-131154997D02*
X114204454Y-131158017D01*
X114204454Y-131158017D02*
X114231130Y-131161848D01*
X114231130Y-131161848D02*
X114257419Y-131166636D01*
X114257419Y-131166636D02*
X114282966Y-131172247D01*
X114282966Y-131172247D02*
X114297014Y-131175753D01*
X115085165Y-136144401D02*
X115070971Y-136128203D01*
X115070971Y-136128203D02*
X115059566Y-136117817D01*
X112112735Y-135861817D02*
X112120957Y-135838779D01*
X112120957Y-135838779D02*
X112133411Y-135834250D01*
X111977356Y-135863302D02*
X111998906Y-135854244D01*
X111998906Y-135854244D02*
X112024778Y-135849484D01*
X112024778Y-135849484D02*
X112054695Y-135848790D01*
X112054695Y-135848790D02*
X112085087Y-135852672D01*
X112085087Y-135852672D02*
X112108298Y-135859785D01*
X112108298Y-135859785D02*
X112112735Y-135861817D01*
X114249261Y-136768128D02*
X114224381Y-136773424D01*
X114224381Y-136773424D02*
X114207502Y-136787475D01*
X114207502Y-136787475D02*
X114200525Y-136793234D01*
X113116015Y-135440421D02*
X113125635Y-135419389D01*
X113125635Y-135419389D02*
X113136547Y-135400276D01*
X113136547Y-135400276D02*
X113136691Y-135391191D01*
X113151460Y-135415313D02*
X113136030Y-135431083D01*
X113136030Y-135431083D02*
X113116015Y-135440421D01*
X112347556Y-135812096D02*
X112373275Y-135817011D01*
X112373275Y-135817011D02*
X112386939Y-135820959D01*
X112352971Y-135829820D02*
X112347556Y-135812096D01*
X113577288Y-136614041D02*
X113591123Y-136597865D01*
X113591123Y-136597865D02*
X113604300Y-136580858D01*
X113604300Y-136580858D02*
X113613745Y-136560112D01*
X113613745Y-136560112D02*
X113613717Y-136552506D01*
X113032819Y-135030838D02*
X113042595Y-135009653D01*
X113042595Y-135009653D02*
X113052768Y-134989539D01*
X113052768Y-134989539D02*
X113058218Y-134964771D01*
X113058218Y-134964771D02*
X113056941Y-134954534D01*
X113257794Y-133028705D02*
X113264737Y-133004258D01*
X113264737Y-133004258D02*
X113271328Y-132979529D01*
X113271328Y-132979529D02*
X113278448Y-132952072D01*
X113278448Y-132952072D02*
X113284997Y-132927180D01*
X113284997Y-132927180D02*
X113291612Y-132903269D01*
X113291612Y-132903269D02*
X113299111Y-132878339D01*
X113299111Y-132878339D02*
X113307078Y-132854638D01*
X113307078Y-132854638D02*
X113315509Y-132832549D01*
X113315509Y-132832549D02*
X113323760Y-132813575D01*
X113024942Y-135257289D02*
X113026272Y-135228323D01*
X113026272Y-135228323D02*
X113034618Y-135206267D01*
X113034618Y-135206267D02*
X113046998Y-135188582D01*
X113046998Y-135188582D02*
X113049556Y-135185908D01*
X114617000Y-136920244D02*
X114594661Y-136909523D01*
X114594661Y-136909523D02*
X114571867Y-136899628D01*
X114571867Y-136899628D02*
X114549052Y-136889791D01*
X114549052Y-136889791D02*
X114528007Y-136879922D01*
X114528007Y-136879922D02*
X114508486Y-136869269D01*
X114508486Y-136869269D02*
X114495898Y-136861170D01*
X114947325Y-135960286D02*
X114967681Y-135974626D01*
X114967681Y-135974626D02*
X114985258Y-135987358D01*
X114985258Y-135987358D02*
X115002535Y-136000953D01*
X115002535Y-136000953D02*
X115018452Y-136015248D01*
X115018452Y-136015248D02*
X115033892Y-136031738D01*
X115033892Y-136031738D02*
X115041352Y-136041020D01*
X113347883Y-136401866D02*
X113322034Y-136406284D01*
X113322034Y-136406284D02*
X113296939Y-136411284D01*
X113296939Y-136411284D02*
X113273691Y-136418369D01*
X113273691Y-136418369D02*
X113254350Y-136429485D01*
X113254350Y-136429485D02*
X113251887Y-136431895D01*
X115072366Y-131798003D02*
X115068910Y-131825090D01*
X115068910Y-131825090D02*
X115063701Y-131850048D01*
X115063701Y-131850048D02*
X115057105Y-131860523D01*
X115006399Y-135269610D02*
X115013305Y-135245659D01*
X115013305Y-135245659D02*
X115013952Y-135215570D01*
X115013952Y-135215570D02*
X115012804Y-135186474D01*
X115012804Y-135186474D02*
X115012799Y-135184936D01*
X113461108Y-136480139D02*
X113438888Y-136489695D01*
X113438888Y-136489695D02*
X113417923Y-136499003D01*
X113417923Y-136499003D02*
X113396333Y-136507796D01*
X113396333Y-136507796D02*
X113373480Y-136515147D01*
X113373480Y-136515147D02*
X113347822Y-136519792D01*
X113347822Y-136519792D02*
X113322284Y-136519523D01*
X114555465Y-132986876D02*
X114559858Y-133015581D01*
X114559858Y-133015581D02*
X114564045Y-133043355D01*
X114564045Y-133043355D02*
X114567962Y-133071241D01*
X114567962Y-133071241D02*
X114571376Y-133099146D01*
X114571376Y-133099146D02*
X114574099Y-133127544D01*
X114574099Y-133127544D02*
X114574664Y-133135054D01*
X114574664Y-133135054D02*
X114577420Y-133163254D01*
X114577420Y-133163254D02*
X114581468Y-133191937D01*
X114581468Y-133191937D02*
X114586113Y-133217322D01*
X114586113Y-133217322D02*
X114591756Y-133242214D01*
X114591756Y-133242214D02*
X114598340Y-133265879D01*
X114598340Y-133265879D02*
X114602232Y-133277817D01*
X113042172Y-135191816D02*
X113054044Y-135172718D01*
X113054044Y-135172718D02*
X113059894Y-135152432D01*
X113078109Y-135211016D02*
X113060483Y-135224188D01*
X113060483Y-135224188D02*
X113043784Y-135237524D01*
X113043784Y-135237524D02*
X113028680Y-135252507D01*
X113028680Y-135252507D02*
X113024942Y-135257289D01*
X112536594Y-136203475D02*
X112506364Y-136203220D01*
X112506364Y-136203220D02*
X112475190Y-136202476D01*
X112475190Y-136202476D02*
X112446162Y-136201413D01*
X112446162Y-136201413D02*
X112417180Y-136200059D01*
X112417180Y-136200059D02*
X112388225Y-136198480D01*
X112388225Y-136198480D02*
X112356176Y-136196548D01*
X112356176Y-136196548D02*
X112325146Y-136194577D01*
X112325146Y-136194577D02*
X112295111Y-136192655D01*
X112295111Y-136192655D02*
X112271251Y-136191167D01*
X112620775Y-136203475D02*
X112536594Y-136203475D01*
X113335575Y-136446171D02*
X113306229Y-136446840D01*
X113306229Y-136446840D02*
X113282089Y-136453319D01*
X113282089Y-136453319D02*
X113262532Y-136464063D01*
X113262532Y-136464063D02*
X113258286Y-136469310D01*
X111872991Y-136019848D02*
X111899630Y-136024984D01*
X111899630Y-136024984D02*
X111921728Y-136029694D01*
X111908928Y-136063662D02*
X111892322Y-136049912D01*
X111892322Y-136049912D02*
X111878017Y-136033518D01*
X111878017Y-136033518D02*
X111872991Y-136019848D01*
X114369380Y-132584185D02*
X114381798Y-132601970D01*
X114381798Y-132601970D02*
X114395554Y-132619813D01*
X114395554Y-132619813D02*
X114410045Y-132637284D01*
X114410045Y-132637284D02*
X114424238Y-132653589D01*
X114424238Y-132653589D02*
X114438899Y-132669977D01*
X114438899Y-132669977D02*
X114454431Y-132687210D01*
X114454431Y-132687210D02*
X114456515Y-132689534D01*
X114686413Y-135874136D02*
X114720381Y-135877088D01*
X114892681Y-131938305D02*
X114877984Y-131955119D01*
X114877984Y-131955119D02*
X114862479Y-131970255D01*
X114862479Y-131970255D02*
X114847391Y-131983595D01*
X115012799Y-135184936D02*
X115001915Y-135204316D01*
X115001915Y-135204316D02*
X114986582Y-135220146D01*
X114986582Y-135220146D02*
X114981293Y-135223334D01*
X113576304Y-136549061D02*
X113554341Y-136557752D01*
X113554341Y-136557752D02*
X113535213Y-136568792D01*
X113535213Y-136568792D02*
X113521167Y-136582537D01*
X115059566Y-136117817D02*
X115040363Y-136128818D01*
X115040363Y-136128818D02*
X115013929Y-136125031D01*
X115013929Y-136125031D02*
X115001476Y-136120279D01*
X114547097Y-136518045D02*
X114534100Y-136535496D01*
X114534100Y-136535496D02*
X114524944Y-136553982D01*
X113452247Y-136523461D02*
X113430171Y-136531625D01*
X113430171Y-136531625D02*
X113406082Y-136538036D01*
X113406082Y-136538036D02*
X113396619Y-136536754D01*
X113008204Y-134869367D02*
X113017932Y-134848906D01*
X113017932Y-134848906D02*
X113019527Y-134842292D01*
X114799147Y-136146863D02*
X114780145Y-136135373D01*
X114780145Y-136135373D02*
X114759425Y-136126091D01*
X114759425Y-136126091D02*
X114754842Y-136125692D01*
X113941580Y-136690838D02*
X113942073Y-136664255D01*
X113521167Y-136582537D02*
X113535428Y-136566455D01*
X113535428Y-136566455D02*
X113546796Y-136547344D01*
X113546796Y-136547344D02*
X113556925Y-136527131D01*
X113556925Y-136527131D02*
X113563996Y-136511646D01*
X114200525Y-136793234D02*
X114199540Y-136766159D01*
X113831800Y-136630286D02*
X113813593Y-136642407D01*
X113813593Y-136642407D02*
X113798325Y-136645055D01*
X114931572Y-134064984D02*
X114943278Y-134084591D01*
X114943278Y-134084591D02*
X114954152Y-134105037D01*
X114954152Y-134105037D02*
X114964077Y-134126068D01*
X114964077Y-134126068D02*
X114972961Y-134147429D01*
X114972961Y-134147429D02*
X114980996Y-134169618D01*
X114980996Y-134169618D02*
X114988276Y-134193197D01*
X114988276Y-134193197D02*
X114994421Y-134217306D01*
X114994421Y-134217306D02*
X114999484Y-134242642D01*
X114999484Y-134242642D02*
X115003351Y-134270084D01*
X115003351Y-134270084D02*
X115005546Y-134298533D01*
X115005546Y-134298533D02*
X115005759Y-134328447D01*
X115005759Y-134328447D02*
X115003774Y-134357383D01*
X115003774Y-134357383D02*
X115000492Y-134380538D01*
X112698556Y-136212828D02*
X112671530Y-136208642D01*
X112671530Y-136208642D02*
X112645165Y-136204881D01*
X112645165Y-136204881D02*
X112620775Y-136203475D01*
X112857073Y-136250243D02*
X112833668Y-136242994D01*
X112833668Y-136242994D02*
X112807256Y-136235363D01*
X112807256Y-136235363D02*
X112782905Y-136228957D01*
X112782905Y-136228957D02*
X112757302Y-136222992D01*
X112757302Y-136222992D02*
X112731901Y-136217957D01*
X112731901Y-136217957D02*
X112705521Y-136213751D01*
X112705521Y-136213751D02*
X112698556Y-136212828D01*
X113087955Y-135356240D02*
X113096008Y-135333848D01*
X113096008Y-135333848D02*
X113102723Y-135319810D01*
X114888744Y-136178860D02*
X114864149Y-136173287D01*
X114864149Y-136173287D02*
X114841976Y-136165569D01*
X114728258Y-136987195D02*
X114709952Y-136973164D01*
X114709952Y-136973164D02*
X114689830Y-136959770D01*
X114689830Y-136959770D02*
X114670517Y-136948322D01*
X114670517Y-136948322D02*
X114650280Y-136937301D01*
X114650280Y-136937301D02*
X114628827Y-136926237D01*
X114628827Y-136926237D02*
X114617000Y-136920244D01*
X113188873Y-135690502D02*
X113176465Y-135708190D01*
X113176465Y-135708190D02*
X113158844Y-135720040D01*
X113189366Y-135744655D02*
X113190047Y-135713733D01*
X113190047Y-135713733D02*
X113188873Y-135690502D01*
X115001476Y-136120279D02*
X115002183Y-136149823D01*
X115002183Y-136149823D02*
X115002955Y-136154738D01*
X114754348Y-133796687D02*
X114764248Y-133817393D01*
X114764248Y-133817393D02*
X114775397Y-133838261D01*
X114775397Y-133838261D02*
X114787405Y-133858773D01*
X114787405Y-133858773D02*
X114799963Y-133878708D01*
X114799963Y-133878708D02*
X114812744Y-133897874D01*
X114812744Y-133897874D02*
X114825584Y-133916323D01*
X114825584Y-133916323D02*
X114840213Y-133936686D01*
X114840213Y-133936686D02*
X114854490Y-133956157D01*
X114854490Y-133956157D02*
X114869585Y-133976583D01*
X114869585Y-133976583D02*
X114882355Y-133993932D01*
X114882355Y-133993932D02*
X114895336Y-134011818D01*
X114895336Y-134011818D02*
X114908405Y-134030285D01*
X114908405Y-134030285D02*
X114921071Y-134048864D01*
X114921071Y-134048864D02*
X114931572Y-134064984D01*
X113613717Y-136552506D02*
X113589575Y-136558413D01*
X113589575Y-136558413D02*
X113571381Y-136561859D01*
X114648015Y-131375129D02*
X114655378Y-131398268D01*
X114655378Y-131398268D02*
X114663118Y-131421162D01*
X114663118Y-131421162D02*
X114671943Y-131442364D01*
X114671943Y-131442364D02*
X114683253Y-131462614D01*
X114683253Y-131462614D02*
X114696373Y-131479860D01*
X114696373Y-131479860D02*
X114708074Y-131491801D01*
X113003282Y-136287164D02*
X112976115Y-136282073D01*
X112976115Y-136282073D02*
X112950990Y-136276502D01*
X112950990Y-136276502D02*
X112926590Y-136270396D01*
X112926590Y-136270396D02*
X112901645Y-136263556D01*
X112901645Y-136263556D02*
X112877162Y-136256381D01*
X112877162Y-136256381D02*
X112857073Y-136250243D01*
X113164751Y-135547247D02*
X113151463Y-135564302D01*
X113151463Y-135564302D02*
X113133245Y-135567922D01*
X113142599Y-135644719D02*
X113148524Y-135619888D01*
X113148524Y-135619888D02*
X113159000Y-135598813D01*
X113159000Y-135598813D02*
X113167991Y-135577634D01*
X113167991Y-135577634D02*
X113166147Y-135549355D01*
X113166147Y-135549355D02*
X113164751Y-135547247D01*
X114833114Y-135361667D02*
X114824432Y-135385923D01*
X114824432Y-135385923D02*
X114815333Y-135410108D01*
X114815333Y-135410108D02*
X114806643Y-135432380D01*
X114806643Y-135432380D02*
X114796751Y-135457078D01*
X114796751Y-135457078D02*
X114786205Y-135482976D01*
X114786205Y-135482976D02*
X114776114Y-135507617D01*
X114776114Y-135507617D02*
X114764586Y-135535946D01*
X114764586Y-135535946D02*
X114755718Y-135558126D01*
X114755718Y-135558126D02*
X114746827Y-135580937D01*
X114746827Y-135580937D02*
X114737791Y-135605018D01*
X114737791Y-135605018D02*
X114729833Y-135627284D01*
X114729833Y-135627284D02*
X114720520Y-135655190D01*
X114720520Y-135655190D02*
X114713489Y-135678208D01*
X113571381Y-136561859D02*
X113559566Y-136579583D01*
X112184609Y-135836711D02*
X112164350Y-135826738D01*
X112164350Y-135826738D02*
X112152118Y-135811113D01*
X112133411Y-135834250D02*
X112163141Y-135835021D01*
X112163141Y-135835021D02*
X112184609Y-135836711D01*
X113090908Y-135431068D02*
X113100497Y-135410452D01*
X113100497Y-135410452D02*
X113102231Y-135406946D01*
X113136691Y-135391191D02*
X113123004Y-135407967D01*
X113123004Y-135407967D02*
X113108869Y-135423947D01*
X113108869Y-135423947D02*
X113090908Y-135431068D01*
X114199540Y-136766159D02*
X114177893Y-136775546D01*
X114177893Y-136775546D02*
X114157003Y-136786252D01*
X114157003Y-136786252D02*
X114136660Y-136796251D01*
X114136660Y-136796251D02*
X114114976Y-136804602D01*
X114114976Y-136804602D02*
X114107974Y-136806527D01*
X113154906Y-135444359D02*
X113149983Y-135444359D01*
X113131276Y-135530509D02*
X113134851Y-135503741D01*
X113134851Y-135503741D02*
X113145369Y-135483881D01*
X113145369Y-135483881D02*
X113154563Y-135463073D01*
X113154563Y-135463073D02*
X113154906Y-135444359D01*
X114284215Y-136768621D02*
X114258406Y-136764358D01*
X114258406Y-136764358D02*
X114250247Y-136762712D01*
X114722842Y-132039716D02*
X114701062Y-132048242D01*
X114701062Y-132048242D02*
X114678436Y-132056535D01*
X114678436Y-132056535D02*
X114655552Y-132064212D01*
X114655552Y-132064212D02*
X114631448Y-132071382D01*
X114631448Y-132071382D02*
X114606212Y-132077711D01*
X114606212Y-132077711D02*
X114589924Y-132081068D01*
X114936988Y-137035439D02*
X114920870Y-137021517D01*
X114920870Y-137021517D02*
X114901096Y-137011137D01*
X114901096Y-137011137D02*
X114877913Y-137004059D01*
X114877913Y-137004059D02*
X114850345Y-137002947D01*
X114947325Y-135207582D02*
X114954431Y-135183117D01*
X114954431Y-135183117D02*
X114960185Y-135158578D01*
X114960185Y-135158578D02*
X114961672Y-135129847D01*
X114961672Y-135129847D02*
X114954914Y-135106398D01*
X114954914Y-135106398D02*
X114942058Y-135088974D01*
X114942058Y-135088974D02*
X114929602Y-135078603D01*
X113019527Y-134842292D02*
X113008697Y-134841797D01*
X115140794Y-136924184D02*
X115150627Y-136944727D01*
X115150627Y-136944727D02*
X115156665Y-136969021D01*
X115156665Y-136969021D02*
X115151594Y-136994031D01*
X115151594Y-136994031D02*
X115150148Y-136995565D01*
X114661799Y-136147846D02*
X114659229Y-136175824D01*
X114659229Y-136175824D02*
X114653373Y-136200349D01*
X114653373Y-136200349D02*
X114645883Y-136225188D01*
X114645883Y-136225188D02*
X114638697Y-136248766D01*
X114638697Y-136248766D02*
X114636693Y-136256150D01*
X114524944Y-136553982D02*
X114546494Y-136562866D01*
X114546494Y-136562866D02*
X114567362Y-136572122D01*
X114567362Y-136572122D02*
X114589642Y-136582521D01*
X114589642Y-136582521D02*
X114609911Y-136592259D01*
X114609911Y-136592259D02*
X114631493Y-136602713D01*
X114631493Y-136602713D02*
X114652098Y-136612579D01*
X114652098Y-136612579D02*
X114673703Y-136622598D01*
X114673703Y-136622598D02*
X114695482Y-136632162D01*
X114695482Y-136632162D02*
X114717272Y-136640992D01*
X114717272Y-136640992D02*
X114739370Y-136649025D01*
X114739370Y-136649025D02*
X114757796Y-136654901D01*
X114297014Y-131175753D02*
X114320023Y-131182772D01*
X114320023Y-131182772D02*
X114343034Y-131190810D01*
X114343034Y-131190810D02*
X114365397Y-131199017D01*
X114365397Y-131199017D02*
X114388357Y-131207657D01*
X114388357Y-131207657D02*
X114412401Y-131216841D01*
X114412401Y-131216841D02*
X114441580Y-131228074D01*
X114441580Y-131228074D02*
X114465252Y-131237193D01*
X114465252Y-131237193D02*
X114489391Y-131246439D01*
X114489391Y-131246439D02*
X114513161Y-131255418D01*
X114513161Y-131255418D02*
X114536465Y-131263975D01*
X114536465Y-131263975D02*
X114559196Y-131271782D01*
X114559196Y-131271782D02*
X114570726Y-131275194D01*
X113032326Y-134546424D02*
X113039543Y-134523339D01*
X113039543Y-134523339D02*
X113046116Y-134497561D01*
X113046116Y-134497561D02*
X113052191Y-134472324D01*
X113052191Y-134472324D02*
X113057433Y-134452892D01*
X113021496Y-134658175D02*
X113029901Y-134636489D01*
X113029901Y-134636489D02*
X113035365Y-134611830D01*
X113035365Y-134611830D02*
X113038234Y-134590238D01*
X112069414Y-135880040D02*
X112046451Y-135872212D01*
X112046451Y-135872212D02*
X112025060Y-135862390D01*
X112025060Y-135862390D02*
X112001603Y-135855802D01*
X112001603Y-135855802D02*
X111978253Y-135862542D01*
X111978253Y-135862542D02*
X111977356Y-135863302D01*
X112024616Y-135876593D02*
X112054749Y-135878519D01*
X112054749Y-135878519D02*
X112069414Y-135880040D01*
X113302100Y-136432388D02*
X113320723Y-136419159D01*
X113320723Y-136419159D02*
X113339939Y-136406771D01*
X113339939Y-136406771D02*
X113347883Y-136401866D01*
X113140629Y-135446820D02*
X113148024Y-135423950D01*
X113148024Y-135423950D02*
X113151460Y-135415313D01*
X113109615Y-135493096D02*
X113118732Y-135471953D01*
X113118732Y-135471953D02*
X113133834Y-135456214D01*
X113133834Y-135456214D02*
X113140629Y-135446820D01*
X114967510Y-136159661D02*
X114945248Y-136151848D01*
X114945248Y-136151848D02*
X114928619Y-136159661D01*
X113209058Y-136367898D02*
X113179191Y-136367044D01*
X113179191Y-136367044D02*
X113152779Y-136363220D01*
X113152779Y-136363220D02*
X113131968Y-136353881D01*
X113131968Y-136353881D02*
X113131276Y-136353129D01*
X113053987Y-134627651D02*
X113035638Y-134640035D01*
X113035638Y-134640035D02*
X113022400Y-134656799D01*
X113022400Y-134656799D02*
X113021496Y-134658175D01*
X113063833Y-134686235D02*
X113059537Y-134660440D01*
X113059537Y-134660440D02*
X113054051Y-134635894D01*
X113054051Y-134635894D02*
X113053987Y-134627651D01*
X114977847Y-135167705D02*
X114966564Y-135186986D01*
X114966564Y-135186986D02*
X114951838Y-135202716D01*
X114951838Y-135202716D02*
X114947325Y-135207582D01*
X113053002Y-134315543D02*
X113055281Y-134287236D01*
X113055281Y-134287236D02*
X113062758Y-134264432D01*
X113062758Y-134264432D02*
X113065802Y-134244654D01*
X113059894Y-135152432D02*
X113042720Y-135165409D01*
X113042720Y-135165409D02*
X113039218Y-135167201D01*
X113038234Y-134590238D02*
X113022178Y-134604286D01*
X113022178Y-134604286D02*
X113012374Y-134624641D01*
X113012374Y-134624641D02*
X113008204Y-134635529D01*
X113248933Y-136319163D02*
X113218545Y-136319186D01*
X113218545Y-136319186D02*
X113189627Y-136320764D01*
X113189627Y-136320764D02*
X113161189Y-136318866D01*
X113161189Y-136318866D02*
X113143583Y-136312762D01*
X114682967Y-135874631D02*
X114686413Y-135874136D01*
X114495898Y-136861170D02*
X114478772Y-136847993D01*
X114478772Y-136847993D02*
X114462147Y-136833229D01*
X114462147Y-136833229D02*
X114446002Y-136818581D01*
X114446002Y-136818581D02*
X114435839Y-136809971D01*
X114318675Y-136764681D02*
X114291238Y-136767286D01*
X114291238Y-136767286D02*
X114284215Y-136768621D01*
X112078767Y-135911054D02*
X112056792Y-135902810D01*
X112056792Y-135902810D02*
X112040363Y-135888685D01*
X112040363Y-135888685D02*
X112024616Y-135876593D01*
X111930589Y-135917453D02*
X111954280Y-135911134D01*
X111954280Y-135911134D02*
X111983421Y-135909995D01*
X111983421Y-135909995D02*
X112013278Y-135910161D01*
X112013278Y-135910161D02*
X112045890Y-135910911D01*
X112045890Y-135910911D02*
X112075781Y-135911262D01*
X112075781Y-135911262D02*
X112078767Y-135911054D01*
X114818839Y-137020670D02*
X114793163Y-137015996D01*
X114793163Y-137015996D02*
X114784870Y-137014271D01*
X113078109Y-134272714D02*
X113064798Y-134289588D01*
X113064798Y-134289588D02*
X113055161Y-134310793D01*
X113055161Y-134310793D02*
X113053002Y-134315543D01*
X114841976Y-136165569D02*
X114820024Y-136156692D01*
X114820024Y-136156692D02*
X114799469Y-136147012D01*
X114799469Y-136147012D02*
X114799147Y-136146863D01*
X115074828Y-131729083D02*
X115078287Y-131756222D01*
X115078287Y-131756222D02*
X115075502Y-131784070D01*
X115075502Y-131784070D02*
X115072366Y-131798003D01*
X113157860Y-136308824D02*
X113130653Y-136305623D01*
X113130653Y-136305623D02*
X113107052Y-136298616D01*
X113107052Y-136298616D02*
X113082092Y-136293156D01*
X113082092Y-136293156D02*
X113081063Y-136293070D01*
X114849360Y-137007870D02*
X114829711Y-137018300D01*
X114829711Y-137018300D02*
X114818839Y-137020670D01*
X114515097Y-132084022D02*
X114488272Y-132088049D01*
X114488272Y-132088049D02*
X114464196Y-132095510D01*
X114464196Y-132095510D02*
X114453069Y-132099775D01*
X114995078Y-136762220D02*
X115010273Y-136777048D01*
X115010273Y-136777048D02*
X115026335Y-136793066D01*
X115026335Y-136793066D02*
X115040489Y-136809238D01*
X115040489Y-136809238D02*
X115044799Y-136814894D01*
X113060879Y-135004254D02*
X113049062Y-135022750D01*
X113049062Y-135022750D02*
X113032819Y-135030838D01*
X113164259Y-135627488D02*
X113147241Y-135640815D01*
X113147241Y-135640815D02*
X113142599Y-135644719D01*
X113152936Y-135663918D02*
X113160055Y-135640333D01*
X113160055Y-135640333D02*
X113164259Y-135627488D01*
X113251887Y-136431895D02*
X113267469Y-136416621D01*
X113267469Y-136416621D02*
X113281957Y-136400541D01*
X113281957Y-136400541D02*
X113297483Y-136385899D01*
X113297483Y-136385899D02*
X113301115Y-136383160D01*
X114784870Y-137014271D02*
X114760470Y-137008602D01*
X114760470Y-137008602D02*
X114741149Y-136997426D01*
X114741149Y-136997426D02*
X114728258Y-136987195D01*
X113131276Y-136353129D02*
X113160439Y-136354865D01*
X113160439Y-136354865D02*
X113187635Y-136351568D01*
X113187635Y-136351568D02*
X113211602Y-136344543D01*
X113211602Y-136344543D02*
X113231605Y-136334377D01*
X113231605Y-136334377D02*
X113247808Y-136320487D01*
X113247808Y-136320487D02*
X113248933Y-136319163D01*
X113201181Y-135728408D02*
X113189366Y-135744655D01*
X113219396Y-135830310D02*
X113214493Y-135805176D01*
X113214493Y-135805176D02*
X113212845Y-135776755D01*
X113212845Y-135776755D02*
X113210023Y-135747609D01*
X113210023Y-135747609D02*
X113201181Y-135728408D01*
X114635707Y-133346245D02*
X114641127Y-133371009D01*
X114641127Y-133371009D02*
X114645511Y-133397563D01*
X114645511Y-133397563D02*
X114649685Y-133425172D01*
X114649685Y-133425172D02*
X114653581Y-133452117D01*
X114653581Y-133452117D02*
X114657606Y-133480701D01*
X114657606Y-133480701D02*
X114661905Y-133511719D01*
X114661905Y-133511719D02*
X114665942Y-133541026D01*
X114665942Y-133541026D02*
X114669857Y-133569380D01*
X114669857Y-133569380D02*
X114673772Y-133597356D01*
X114673772Y-133597356D02*
X114677636Y-133624162D01*
X114677636Y-133624162D02*
X114681673Y-133650342D01*
X114681673Y-133650342D02*
X114683952Y-133663278D01*
X113396619Y-136536754D02*
X113415780Y-136525718D01*
X113415780Y-136525718D02*
X113433911Y-136513475D01*
X113433911Y-136513475D02*
X113449845Y-136499310D01*
X113449845Y-136499310D02*
X113461075Y-136480277D01*
X113461075Y-136480277D02*
X113461108Y-136480139D01*
X115000000Y-137000000D02*
X114976607Y-137006955D01*
X114976607Y-137006955D02*
X114946744Y-137006613D01*
X114946744Y-137006613D02*
X114923546Y-136999466D01*
X114923546Y-136999466D02*
X114922711Y-136999010D01*
D11*
X111357142Y-139452380D02*
X111357142Y-138452380D01*
X111738095Y-138452380D01*
X111833333Y-138500000D01*
X111880952Y-138547619D01*
X111928571Y-138642857D01*
X111928571Y-138785714D01*
X111880952Y-138880952D01*
X111833333Y-138928571D01*
X111738095Y-138976190D01*
X111357142Y-138976190D01*
X112928571Y-139357142D02*
X112880952Y-139404761D01*
X112738095Y-139452380D01*
X112642857Y-139452380D01*
X112500000Y-139404761D01*
X112404761Y-139309523D01*
X112357142Y-139214285D01*
X112309523Y-139023809D01*
X112309523Y-138880952D01*
X112357142Y-138690476D01*
X112404761Y-138595238D01*
X112500000Y-138500000D01*
X112642857Y-138452380D01*
X112738095Y-138452380D01*
X112880952Y-138500000D01*
X112928571Y-138547619D01*
X113690476Y-138928571D02*
X113833333Y-138976190D01*
X113880952Y-139023809D01*
X113928571Y-139119047D01*
X113928571Y-139261904D01*
X113880952Y-139357142D01*
X113833333Y-139404761D01*
X113738095Y-139452380D01*
X113357142Y-139452380D01*
X113357142Y-138452380D01*
X113690476Y-138452380D01*
X113785714Y-138500000D01*
X113833333Y-138547619D01*
X113880952Y-138642857D01*
X113880952Y-138738095D01*
X113833333Y-138833333D01*
X113785714Y-138880952D01*
X113690476Y-138928571D01*
X113357142Y-138928571D01*
X115119047Y-139452380D02*
X115119047Y-138452380D01*
X115119047Y-138833333D02*
X115214285Y-138785714D01*
X115404761Y-138785714D01*
X115500000Y-138833333D01*
X115547619Y-138880952D01*
X115595238Y-138976190D01*
X115595238Y-139261904D01*
X115547619Y-139357142D01*
X115500000Y-139404761D01*
X115404761Y-139452380D01*
X115214285Y-139452380D01*
X115119047Y-139404761D01*
X115928571Y-138785714D02*
X116166666Y-139452380D01*
X116404761Y-138785714D02*
X116166666Y-139452380D01*
X116071428Y-139690476D01*
X116023809Y-139738095D01*
X115928571Y-139785714D01*
X117547619Y-139452380D02*
X117547619Y-138452380D01*
X117785714Y-138452380D01*
X117928571Y-138500000D01*
X118023809Y-138595238D01*
X118071428Y-138690476D01*
X118119047Y-138880952D01*
X118119047Y-139023809D01*
X118071428Y-139214285D01*
X118023809Y-139309523D01*
X117928571Y-139404761D01*
X117785714Y-139452380D01*
X117547619Y-139452380D01*
X118833333Y-138452380D02*
X118833333Y-139166666D01*
X118785714Y-139309523D01*
X118690476Y-139404761D01*
X118547619Y-139452380D01*
X118452380Y-139452380D01*
X119785714Y-138452380D02*
X119309523Y-138452380D01*
X119261904Y-138928571D01*
X119309523Y-138880952D01*
X119404761Y-138833333D01*
X119642857Y-138833333D01*
X119738095Y-138880952D01*
X119785714Y-138928571D01*
X119833333Y-139023809D01*
X119833333Y-139261904D01*
X119785714Y-139357142D01*
X119738095Y-139404761D01*
X119642857Y-139452380D01*
X119404761Y-139452380D01*
X119309523Y-139404761D01*
X119261904Y-139357142D01*
X120119047Y-138452380D02*
X120690476Y-138452380D01*
X120404761Y-139452380D02*
X120404761Y-138452380D01*
X121023809Y-139452380D02*
X121023809Y-138452380D01*
X121261904Y-138452380D01*
X121404761Y-138500000D01*
X121500000Y-138595238D01*
X121547619Y-138690476D01*
X121595238Y-138880952D01*
X121595238Y-139023809D01*
X121547619Y-139214285D01*
X121500000Y-139309523D01*
X121404761Y-139404761D01*
X121261904Y-139452380D01*
X121023809Y-139452380D01*
X122642857Y-138452380D02*
X123214285Y-138452380D01*
X122928571Y-139452380D02*
X122928571Y-138452380D01*
X123690476Y-139452380D02*
X123595238Y-139404761D01*
X123547619Y-139357142D01*
X123499999Y-139261904D01*
X123499999Y-138976190D01*
X123547619Y-138880952D01*
X123595238Y-138833333D01*
X123690476Y-138785714D01*
X123833333Y-138785714D01*
X123928571Y-138833333D01*
X123976190Y-138880952D01*
X124023809Y-138976190D01*
X124023809Y-139261904D01*
X123976190Y-139357142D01*
X123928571Y-139404761D01*
X123833333Y-139452380D01*
X123690476Y-139452380D01*
X124452380Y-139452380D02*
X124452380Y-138452380D01*
X124452380Y-138833333D02*
X124547619Y-138785714D01*
X124738095Y-138785714D01*
X124833333Y-138833333D01*
X124880952Y-138880952D01*
X124928571Y-138976190D01*
X124928571Y-139261904D01*
X124880952Y-139357142D01*
X124833333Y-139404761D01*
X124738095Y-139452380D01*
X124547619Y-139452380D01*
X124452380Y-139404761D01*
X125357142Y-139452380D02*
X125357142Y-138785714D01*
X125357142Y-138452380D02*
X125309523Y-138500000D01*
X125357142Y-138547619D01*
X125404761Y-138500000D01*
X125357142Y-138452380D01*
X125357142Y-138547619D01*
X126261904Y-139452380D02*
X126261904Y-138928571D01*
X126214285Y-138833333D01*
X126119047Y-138785714D01*
X125928571Y-138785714D01*
X125833333Y-138833333D01*
X126261904Y-139404761D02*
X126166666Y-139452380D01*
X125928571Y-139452380D01*
X125833333Y-139404761D01*
X125785714Y-139309523D01*
X125785714Y-139214285D01*
X125833333Y-139119047D01*
X125928571Y-139071428D01*
X126166666Y-139071428D01*
X126261904Y-139023809D01*
X126690476Y-139404761D02*
X126785714Y-139452380D01*
X126976190Y-139452380D01*
X127071428Y-139404761D01*
X127119047Y-139309523D01*
X127119047Y-139261904D01*
X127071428Y-139166666D01*
X126976190Y-139119047D01*
X126833333Y-139119047D01*
X126738095Y-139071428D01*
X126690476Y-138976190D01*
X126690476Y-138928571D01*
X126738095Y-138833333D01*
X126833333Y-138785714D01*
X126976190Y-138785714D01*
X127071428Y-138833333D01*
X128309523Y-139452380D02*
X128309523Y-138452380D01*
X128309523Y-138928571D02*
X128880952Y-138928571D01*
X128880952Y-139452380D02*
X128880952Y-138452380D01*
X129785714Y-139452380D02*
X129785714Y-138928571D01*
X129738095Y-138833333D01*
X129642857Y-138785714D01*
X129452380Y-138785714D01*
X129357142Y-138833333D01*
X129785714Y-139404761D02*
X129690476Y-139452380D01*
X129452380Y-139452380D01*
X129357142Y-139404761D01*
X129309523Y-139309523D01*
X129309523Y-139214285D01*
X129357142Y-139119047D01*
X129452380Y-139071428D01*
X129690476Y-139071428D01*
X129785714Y-139023809D01*
X129357142Y-138452380D02*
X129404761Y-138500000D01*
X129357142Y-138547619D01*
X129309523Y-138500000D01*
X129357142Y-138452380D01*
X129357142Y-138547619D01*
X129738095Y-138452380D02*
X129785714Y-138500000D01*
X129738095Y-138547619D01*
X129690476Y-138500000D01*
X129738095Y-138452380D01*
X129738095Y-138547619D01*
X130261904Y-138785714D02*
X130261904Y-139452380D01*
X130261904Y-138880952D02*
X130309523Y-138833333D01*
X130404761Y-138785714D01*
X130547619Y-138785714D01*
X130642857Y-138833333D01*
X130690476Y-138928571D01*
X130690476Y-139452380D01*
X131547619Y-139404761D02*
X131452380Y-139452380D01*
X131261904Y-139452380D01*
X131166666Y-139404761D01*
X131119047Y-139309523D01*
X131119047Y-138928571D01*
X131166666Y-138833333D01*
X131261904Y-138785714D01*
X131452380Y-138785714D01*
X131547619Y-138833333D01*
X131595238Y-138928571D01*
X131595238Y-139023809D01*
X131119047Y-139119047D01*
X132166666Y-139452380D02*
X132071428Y-139404761D01*
X132023809Y-139309523D01*
X132023809Y-138452380D01*
X133261904Y-138547619D02*
X133309523Y-138500000D01*
X133404761Y-138452380D01*
X133642857Y-138452380D01*
X133738095Y-138500000D01*
X133785714Y-138547619D01*
X133833333Y-138642857D01*
X133833333Y-138738095D01*
X133785714Y-138880952D01*
X133214285Y-139452380D01*
X133833333Y-139452380D01*
X134452380Y-138452380D02*
X134547619Y-138452380D01*
X134642857Y-138500000D01*
X134690476Y-138547619D01*
X134738095Y-138642857D01*
X134785714Y-138833333D01*
X134785714Y-139071428D01*
X134738095Y-139261904D01*
X134690476Y-139357142D01*
X134642857Y-139404761D01*
X134547619Y-139452380D01*
X134452380Y-139452380D01*
X134357142Y-139404761D01*
X134309523Y-139357142D01*
X134261904Y-139261904D01*
X134214285Y-139071428D01*
X134214285Y-138833333D01*
X134261904Y-138642857D01*
X134309523Y-138547619D01*
X134357142Y-138500000D01*
X134452380Y-138452380D01*
X135738095Y-139452380D02*
X135166666Y-139452380D01*
X135452380Y-139452380D02*
X135452380Y-138452380D01*
X135357142Y-138595238D01*
X135261904Y-138690476D01*
X135166666Y-138738095D01*
X136214285Y-139452380D02*
X136404761Y-139452380D01*
X136500000Y-139404761D01*
X136547619Y-139357142D01*
X136642857Y-139214285D01*
X136690476Y-139023809D01*
X136690476Y-138642857D01*
X136642857Y-138547619D01*
X136595238Y-138500000D01*
X136500000Y-138452380D01*
X136309523Y-138452380D01*
X136214285Y-138500000D01*
X136166666Y-138547619D01*
X136119047Y-138642857D01*
X136119047Y-138880952D01*
X136166666Y-138976190D01*
X136214285Y-139023809D01*
X136309523Y-139071428D01*
X136500000Y-139071428D01*
X136595238Y-139023809D01*
X136642857Y-138976190D01*
X136690476Y-138880952D01*
D12*
X124760000Y-115890000D02*
X124760000Y-117000000D01*
X124000000Y-115890000D02*
X124760000Y-115890000D01*
X123240000Y-117563471D02*
X123240000Y-118110000D01*
X123240000Y-115890000D02*
X123240000Y-116436529D01*
X123240000Y-118110000D02*
X115685000Y-118110000D01*
X123240000Y-115890000D02*
X115685000Y-115890000D01*
X115685000Y-117307530D02*
X115685000Y-118110000D01*
X115685000Y-115890000D02*
X115685000Y-116692470D01*
X118261252Y-136710000D02*
X117738748Y-136710000D01*
X118261252Y-135290000D02*
X117738748Y-135290000D01*
X112710000Y-120261252D02*
X112710000Y-119738748D01*
X111290000Y-120261252D02*
X111290000Y-119738748D01*
X113290000Y-120261252D02*
X113290000Y-119738748D01*
X114710000Y-120261252D02*
X114710000Y-119738748D01*
X136000000Y-128960000D02*
X138860000Y-128960000D01*
X138860000Y-128960000D02*
X138860000Y-127040000D01*
X138860000Y-127040000D02*
X136000000Y-127040000D01*
X138860000Y-125040000D02*
X136000000Y-125040000D01*
X138860000Y-126960000D02*
X138860000Y-125040000D01*
X136000000Y-126960000D02*
X138860000Y-126960000D01*
X136000000Y-130960000D02*
X138860000Y-130960000D01*
X138860000Y-130960000D02*
X138860000Y-129040000D01*
X138860000Y-129040000D02*
X136000000Y-129040000D01*
X113261252Y-124710000D02*
X112738748Y-124710000D01*
X113261252Y-123290000D02*
X112738748Y-123290000D01*
D13*
X89400000Y-133500000D02*
X104460000Y-133500000D01*
X89400000Y-121500000D02*
X89400000Y-133500000D01*
X104460000Y-121500000D02*
X89400000Y-121500000D01*
D12*
X140670000Y-131670000D02*
X142000000Y-131670000D01*
X140670000Y-133000000D02*
X140670000Y-131670000D01*
X140670000Y-134270000D02*
X143330000Y-134270000D01*
X143330000Y-134270000D02*
X143330000Y-136870000D01*
X140670000Y-134270000D02*
X140670000Y-136870000D01*
X140670000Y-136870000D02*
X143330000Y-136870000D01*
X140670000Y-123870000D02*
X143330000Y-123870000D01*
X140670000Y-121270000D02*
X140670000Y-123870000D01*
X143330000Y-121270000D02*
X143330000Y-123870000D01*
X140670000Y-121270000D02*
X143330000Y-121270000D01*
X140670000Y-120000000D02*
X140670000Y-118670000D01*
X140670000Y-118670000D02*
X142000000Y-118670000D01*
X132738748Y-128710000D02*
X133261252Y-128710000D01*
X132738748Y-127290000D02*
X133261252Y-127290000D01*
X132738748Y-125290000D02*
X133261252Y-125290000D01*
X132738748Y-126710000D02*
X133261252Y-126710000D01*
X132738748Y-130710000D02*
X133261252Y-130710000D01*
X132738748Y-129290000D02*
X133261252Y-129290000D01*
X128261252Y-134290000D02*
X127738748Y-134290000D01*
X128261252Y-135710000D02*
X127738748Y-135710000D01*
X128261252Y-120710000D02*
X127738748Y-120710000D01*
X128261252Y-119290000D02*
X127738748Y-119290000D01*
D14*
X126325000Y-125125000D02*
X125750000Y-125125000D01*
X126325000Y-130875000D02*
X125675000Y-130875000D01*
X115675000Y-130875000D02*
X116325000Y-130875000D01*
X115675000Y-125125000D02*
X116325000Y-125125000D01*
X126325000Y-125125000D02*
X126325000Y-130875000D01*
X115675000Y-125125000D02*
X115675000Y-130875000D01*
X125750000Y-125125000D02*
X125750000Y-123525000D01*
D12*
X132000000Y-132080000D02*
X137000000Y-132080000D01*
X136500000Y-135920000D02*
X133500000Y-135920000D01*
X136500000Y-122920000D02*
X133500000Y-122920000D01*
X132000000Y-119080000D02*
X137000000Y-119080000D01*
D14*
X116666666Y-118452380D02*
X116666666Y-119166666D01*
X116619047Y-119309523D01*
X116523809Y-119404761D01*
X116380952Y-119452380D01*
X116285714Y-119452380D01*
X117571428Y-118785714D02*
X117571428Y-119452380D01*
X117333333Y-118404761D02*
X117095238Y-119119047D01*
X117714285Y-119119047D01*
X120833333Y-137357142D02*
X120785714Y-137404761D01*
X120642857Y-137452380D01*
X120547619Y-137452380D01*
X120404761Y-137404761D01*
X120309523Y-137309523D01*
X120261904Y-137214285D01*
X120214285Y-137023809D01*
X120214285Y-136880952D01*
X120261904Y-136690476D01*
X120309523Y-136595238D01*
X120404761Y-136500000D01*
X120547619Y-136452380D01*
X120642857Y-136452380D01*
X120785714Y-136500000D01*
X120833333Y-136547619D01*
X121785714Y-137452380D02*
X121214285Y-137452380D01*
X121500000Y-137452380D02*
X121500000Y-136452380D01*
X121404761Y-136595238D01*
X121309523Y-136690476D01*
X121214285Y-136738095D01*
X111833333Y-117357142D02*
X111785714Y-117404761D01*
X111642857Y-117452380D01*
X111547619Y-117452380D01*
X111404761Y-117404761D01*
X111309523Y-117309523D01*
X111261904Y-117214285D01*
X111214285Y-117023809D01*
X111214285Y-116880952D01*
X111261904Y-116690476D01*
X111309523Y-116595238D01*
X111404761Y-116500000D01*
X111547619Y-116452380D01*
X111642857Y-116452380D01*
X111785714Y-116500000D01*
X111833333Y-116547619D01*
X112214285Y-116547619D02*
X112261904Y-116500000D01*
X112357142Y-116452380D01*
X112595238Y-116452380D01*
X112690476Y-116500000D01*
X112738095Y-116547619D01*
X112785714Y-116642857D01*
X112785714Y-116738095D01*
X112738095Y-116880952D01*
X112166666Y-117452380D01*
X112785714Y-117452380D01*
X113833333Y-117357142D02*
X113785714Y-117404761D01*
X113642857Y-117452380D01*
X113547619Y-117452380D01*
X113404761Y-117404761D01*
X113309523Y-117309523D01*
X113261904Y-117214285D01*
X113214285Y-117023809D01*
X113214285Y-116880952D01*
X113261904Y-116690476D01*
X113309523Y-116595238D01*
X113404761Y-116500000D01*
X113547619Y-116452380D01*
X113642857Y-116452380D01*
X113785714Y-116500000D01*
X113833333Y-116547619D01*
X114166666Y-116452380D02*
X114785714Y-116452380D01*
X114452380Y-116833333D01*
X114595238Y-116833333D01*
X114690476Y-116880952D01*
X114738095Y-116928571D01*
X114785714Y-117023809D01*
X114785714Y-117261904D01*
X114738095Y-117357142D01*
X114690476Y-117404761D01*
X114595238Y-117452380D01*
X114309523Y-117452380D01*
X114214285Y-117404761D01*
X114166666Y-117357142D01*
X140666666Y-128452380D02*
X140666666Y-127452380D01*
X141047619Y-127452380D01*
X141142857Y-127500000D01*
X141190476Y-127547619D01*
X141238095Y-127642857D01*
X141238095Y-127785714D01*
X141190476Y-127880952D01*
X141142857Y-127928571D01*
X141047619Y-127976190D01*
X140666666Y-127976190D01*
X141571428Y-127452380D02*
X141809523Y-128452380D01*
X142000000Y-127738095D01*
X142190476Y-128452380D01*
X142428571Y-127452380D01*
X143380952Y-128452380D02*
X143047619Y-127976190D01*
X142809523Y-128452380D02*
X142809523Y-127452380D01*
X143190476Y-127452380D01*
X143285714Y-127500000D01*
X143333333Y-127547619D01*
X143380952Y-127642857D01*
X143380952Y-127785714D01*
X143333333Y-127880952D01*
X143285714Y-127928571D01*
X143190476Y-127976190D01*
X142809523Y-127976190D01*
X140857142Y-126452380D02*
X140857142Y-125452380D01*
X141095238Y-125452380D01*
X141238095Y-125500000D01*
X141333333Y-125595238D01*
X141380952Y-125690476D01*
X141428571Y-125880952D01*
X141428571Y-126023809D01*
X141380952Y-126214285D01*
X141333333Y-126309523D01*
X141238095Y-126404761D01*
X141095238Y-126452380D01*
X140857142Y-126452380D01*
X141714285Y-125452380D02*
X142285714Y-125452380D01*
X142000000Y-126452380D02*
X142000000Y-125452380D01*
X143190476Y-126452380D02*
X142857142Y-125976190D01*
X142619047Y-126452380D02*
X142619047Y-125452380D01*
X143000000Y-125452380D01*
X143095238Y-125500000D01*
X143142857Y-125547619D01*
X143190476Y-125642857D01*
X143190476Y-125785714D01*
X143142857Y-125880952D01*
X143095238Y-125928571D01*
X143000000Y-125976190D01*
X142619047Y-125976190D01*
X141452380Y-130452380D02*
X141119047Y-129976190D01*
X140880952Y-130452380D02*
X140880952Y-129452380D01*
X141261904Y-129452380D01*
X141357142Y-129500000D01*
X141404761Y-129547619D01*
X141452380Y-129642857D01*
X141452380Y-129785714D01*
X141404761Y-129880952D01*
X141357142Y-129928571D01*
X141261904Y-129976190D01*
X140880952Y-129976190D01*
X141738095Y-129452380D02*
X142309523Y-129452380D01*
X142023809Y-130452380D02*
X142023809Y-129452380D01*
X142595238Y-130404761D02*
X142738095Y-130452380D01*
X142976190Y-130452380D01*
X143071428Y-130404761D01*
X143119047Y-130357142D01*
X143166666Y-130261904D01*
X143166666Y-130166666D01*
X143119047Y-130071428D01*
X143071428Y-130023809D01*
X142976190Y-129976190D01*
X142785714Y-129928571D01*
X142690476Y-129880952D01*
X142642857Y-129833333D01*
X142595238Y-129738095D01*
X142595238Y-129642857D01*
X142642857Y-129547619D01*
X142690476Y-129500000D01*
X142785714Y-129452380D01*
X143023809Y-129452380D01*
X143166666Y-129500000D01*
X112166666Y-125578571D02*
X111833333Y-125578571D01*
X111833333Y-126102380D02*
X111833333Y-125102380D01*
X112309523Y-125102380D01*
X113023809Y-125578571D02*
X113166666Y-125626190D01*
X113214285Y-125673809D01*
X113261904Y-125769047D01*
X113261904Y-125911904D01*
X113214285Y-126007142D01*
X113166666Y-126054761D01*
X113071428Y-126102380D01*
X112690476Y-126102380D01*
X112690476Y-125102380D01*
X113023809Y-125102380D01*
X113119047Y-125150000D01*
X113166666Y-125197619D01*
X113214285Y-125292857D01*
X113214285Y-125388095D01*
X113166666Y-125483333D01*
X113119047Y-125530952D01*
X113023809Y-125578571D01*
X112690476Y-125578571D01*
X114214285Y-126102380D02*
X113642857Y-126102380D01*
X113928571Y-126102380D02*
X113928571Y-125102380D01*
X113833333Y-125245238D01*
X113738095Y-125340476D01*
X113642857Y-125388095D01*
D15*
X98862523Y-127923333D02*
X99769666Y-127923333D01*
X99951095Y-127983809D01*
X100072047Y-128104761D01*
X100132523Y-128286190D01*
X100132523Y-128407142D01*
X100132523Y-126653333D02*
X100132523Y-127379047D01*
X100132523Y-127016190D02*
X98862523Y-127016190D01*
X99043952Y-127137142D01*
X99164904Y-127258095D01*
X99225380Y-127379047D01*
D14*
X141452380Y-138452380D02*
X141119047Y-137976190D01*
X140880952Y-138452380D02*
X140880952Y-137452380D01*
X141261904Y-137452380D01*
X141357142Y-137500000D01*
X141404761Y-137547619D01*
X141452380Y-137642857D01*
X141452380Y-137785714D01*
X141404761Y-137880952D01*
X141357142Y-137928571D01*
X141261904Y-137976190D01*
X140880952Y-137976190D01*
X141738095Y-137452380D02*
X142309523Y-137452380D01*
X142023809Y-138452380D02*
X142023809Y-137452380D01*
X142595238Y-138404761D02*
X142738095Y-138452380D01*
X142976190Y-138452380D01*
X143071428Y-138404761D01*
X143119047Y-138357142D01*
X143166666Y-138261904D01*
X143166666Y-138166666D01*
X143119047Y-138071428D01*
X143071428Y-138023809D01*
X142976190Y-137976190D01*
X142785714Y-137928571D01*
X142690476Y-137880952D01*
X142642857Y-137833333D01*
X142595238Y-137738095D01*
X142595238Y-137642857D01*
X142642857Y-137547619D01*
X142690476Y-137500000D01*
X142785714Y-137452380D01*
X143023809Y-137452380D01*
X143166666Y-137500000D01*
X140857142Y-118122380D02*
X140857142Y-117122380D01*
X141095238Y-117122380D01*
X141238095Y-117170000D01*
X141333333Y-117265238D01*
X141380952Y-117360476D01*
X141428571Y-117550952D01*
X141428571Y-117693809D01*
X141380952Y-117884285D01*
X141333333Y-117979523D01*
X141238095Y-118074761D01*
X141095238Y-118122380D01*
X140857142Y-118122380D01*
X141714285Y-117122380D02*
X142285714Y-117122380D01*
X142000000Y-118122380D02*
X142000000Y-117122380D01*
X143190476Y-118122380D02*
X142857142Y-117646190D01*
X142619047Y-118122380D02*
X142619047Y-117122380D01*
X143000000Y-117122380D01*
X143095238Y-117170000D01*
X143142857Y-117217619D01*
X143190476Y-117312857D01*
X143190476Y-117455714D01*
X143142857Y-117550952D01*
X143095238Y-117598571D01*
X143000000Y-117646190D01*
X142619047Y-117646190D01*
X128833333Y-128452380D02*
X128500000Y-127976190D01*
X128261904Y-128452380D02*
X128261904Y-127452380D01*
X128642857Y-127452380D01*
X128738095Y-127500000D01*
X128785714Y-127547619D01*
X128833333Y-127642857D01*
X128833333Y-127785714D01*
X128785714Y-127880952D01*
X128738095Y-127928571D01*
X128642857Y-127976190D01*
X128261904Y-127976190D01*
X129785714Y-128452380D02*
X129214285Y-128452380D01*
X129500000Y-128452380D02*
X129500000Y-127452380D01*
X129404761Y-127595238D01*
X129309523Y-127690476D01*
X129214285Y-127738095D01*
X128833333Y-126452380D02*
X128500000Y-125976190D01*
X128261904Y-126452380D02*
X128261904Y-125452380D01*
X128642857Y-125452380D01*
X128738095Y-125500000D01*
X128785714Y-125547619D01*
X128833333Y-125642857D01*
X128833333Y-125785714D01*
X128785714Y-125880952D01*
X128738095Y-125928571D01*
X128642857Y-125976190D01*
X128261904Y-125976190D01*
X129214285Y-125547619D02*
X129261904Y-125500000D01*
X129357142Y-125452380D01*
X129595238Y-125452380D01*
X129690476Y-125500000D01*
X129738095Y-125547619D01*
X129785714Y-125642857D01*
X129785714Y-125738095D01*
X129738095Y-125880952D01*
X129166666Y-126452380D01*
X129785714Y-126452380D01*
X128833333Y-130452380D02*
X128500000Y-129976190D01*
X128261904Y-130452380D02*
X128261904Y-129452380D01*
X128642857Y-129452380D01*
X128738095Y-129500000D01*
X128785714Y-129547619D01*
X128833333Y-129642857D01*
X128833333Y-129785714D01*
X128785714Y-129880952D01*
X128738095Y-129928571D01*
X128642857Y-129976190D01*
X128261904Y-129976190D01*
X129166666Y-129452380D02*
X129785714Y-129452380D01*
X129452380Y-129833333D01*
X129595238Y-129833333D01*
X129690476Y-129880952D01*
X129738095Y-129928571D01*
X129785714Y-130023809D01*
X129785714Y-130261904D01*
X129738095Y-130357142D01*
X129690476Y-130404761D01*
X129595238Y-130452380D01*
X129309523Y-130452380D01*
X129214285Y-130404761D01*
X129166666Y-130357142D01*
X124833333Y-135452380D02*
X124500000Y-134976190D01*
X124261904Y-135452380D02*
X124261904Y-134452380D01*
X124642857Y-134452380D01*
X124738095Y-134500000D01*
X124785714Y-134547619D01*
X124833333Y-134642857D01*
X124833333Y-134785714D01*
X124785714Y-134880952D01*
X124738095Y-134928571D01*
X124642857Y-134976190D01*
X124261904Y-134976190D01*
X125690476Y-134785714D02*
X125690476Y-135452380D01*
X125452380Y-134404761D02*
X125214285Y-135119047D01*
X125833333Y-135119047D01*
X124833333Y-120452380D02*
X124500000Y-119976190D01*
X124261904Y-120452380D02*
X124261904Y-119452380D01*
X124642857Y-119452380D01*
X124738095Y-119500000D01*
X124785714Y-119547619D01*
X124833333Y-119642857D01*
X124833333Y-119785714D01*
X124785714Y-119880952D01*
X124738095Y-119928571D01*
X124642857Y-119976190D01*
X124261904Y-119976190D01*
X125738095Y-119452380D02*
X125261904Y-119452380D01*
X125214285Y-119928571D01*
X125261904Y-119880952D01*
X125357142Y-119833333D01*
X125595238Y-119833333D01*
X125690476Y-119880952D01*
X125738095Y-119928571D01*
X125785714Y-120023809D01*
X125785714Y-120261904D01*
X125738095Y-120357142D01*
X125690476Y-120404761D01*
X125595238Y-120452380D01*
X125357142Y-120452380D01*
X125261904Y-120404761D01*
X125214285Y-120357142D01*
X126238095Y-131452380D02*
X126238095Y-132261904D01*
X126285714Y-132357142D01*
X126333333Y-132404761D01*
X126428571Y-132452380D01*
X126619047Y-132452380D01*
X126714285Y-132404761D01*
X126761904Y-132357142D01*
X126809523Y-132261904D01*
X126809523Y-131452380D01*
X127809523Y-132452380D02*
X127238095Y-132452380D01*
X127523809Y-132452380D02*
X127523809Y-131452380D01*
X127428571Y-131595238D01*
X127333333Y-131690476D01*
X127238095Y-131738095D01*
X129238095Y-132452380D02*
X129238095Y-133261904D01*
X129285714Y-133357142D01*
X129333333Y-133404761D01*
X129428571Y-133452380D01*
X129619047Y-133452380D01*
X129714285Y-133404761D01*
X129761904Y-133357142D01*
X129809523Y-133261904D01*
X129809523Y-132452380D01*
X130238095Y-132547619D02*
X130285714Y-132500000D01*
X130380952Y-132452380D01*
X130619047Y-132452380D01*
X130714285Y-132500000D01*
X130761904Y-132547619D01*
X130809523Y-132642857D01*
X130809523Y-132738095D01*
X130761904Y-132880952D01*
X130190476Y-133452380D01*
X130809523Y-133452380D01*
X131238095Y-117652380D02*
X131238095Y-118461904D01*
X131285714Y-118557142D01*
X131333333Y-118604761D01*
X131428571Y-118652380D01*
X131619047Y-118652380D01*
X131714285Y-118604761D01*
X131761904Y-118557142D01*
X131809523Y-118461904D01*
X131809523Y-117652380D01*
X132190476Y-117652380D02*
X132809523Y-117652380D01*
X132476190Y-118033333D01*
X132619047Y-118033333D01*
X132714285Y-118080952D01*
X132761904Y-118128571D01*
X132809523Y-118223809D01*
X132809523Y-118461904D01*
X132761904Y-118557142D01*
X132714285Y-118604761D01*
X132619047Y-118652380D01*
X132333333Y-118652380D01*
X132238095Y-118604761D01*
X132190476Y-118557142D01*
M02*
