M48
; DRILL file {KiCad 5.1.4-e60b266~84~ubuntu19.04.1} date Fri Sep  6 13:48:00 2019
; FORMAT={-:-/ absolute / inch / decimal}
; #@! TF.CreationDate,2019-09-06T13:48:00+02:00
; #@! TF.GenerationSoftware,Kicad,Pcbnew,5.1.4-e60b266~84~ubuntu19.04.1
; #@! TF.FileFunction,Plated,1,2,PTH
FMAT,2
INCH
T1C0.0157
T2C0.0256
T3C0.0362
T4C0.0394
T5C0.0906
%
G90
G05
T1
X4.6559Y-5.1079
X4.751Y-5.249
X4.7638Y-4.8031
X4.7638Y-5.3543
X4.8661Y-5.2484
X5.1181Y-5.0394
X5.1287Y-4.8138
X5.1909Y-5.3878
X5.5118Y-4.9606
X5.5118Y-5.0394
X5.5118Y-5.1181
T2
X4.5819Y-4.6063
X4.6319Y-4.6063
X4.6819Y-4.6063
X4.7319Y-4.6063
X4.7819Y-4.6063
X4.8319Y-4.6063
X4.8819Y-4.6063
T3
X4.2913Y-4.8819
X4.2913Y-4.9803
X4.2913Y-5.0591
X4.2913Y-5.1575
T4
X5.5906Y-5.2362
X5.5906Y-5.3362
X5.5906Y-4.7244
X5.5906Y-4.8244
T5
X4.2126Y-4.7835
X4.2126Y-5.2559
T0
M30
